<svg id="Capa_1" data-name="Capa 1" xmlns="http://www.w3.org/2000/svg" width="33.65" height="33.65" viewBox="0 0 33.65 33.65"><defs><style>.cls-1{fill:#efefef;}.cls-2{fill:#fff;}.cls-3{fill:#3c3c3c;}</style></defs><title>ico-dwn-eml</title><g id="Page-1"><g id="Fill-1-_-Fill-2-_-_-_-_-_-Fill-3-_-Fill-5-_-Fill-6-_-Fill-7" data-name="Fill-1-+-Fill-2-+-&lt;-+-&gt;-+-Fill-3-+-Fill-5-+-Fill-6-+-Fill-7"><path id="Fill-1" class="cls-1" d="M33.65,17a16.82,16.82,0,1,0-17,16.67A16.82,16.82,0,0,0,33.65,17" transform="translate(0 0)"/><g id="Fill-2-_-_-_-_-_-Fill-3-_-Fill-5-_-Fill-6-_-Fill-7" data-name="Fill-2-+-&lt;-+-&gt;-+-Fill-3-+-Fill-5-+-Fill-6-+-Fill-7"><g id="Fill-2-_-_-_-_" data-name="Fill-2-+-&lt;-+-&gt;"><path id="Fill-2" class="cls-2" d="M10,3H23.52V21.3H10Z" transform="translate(0 0)"/><g id="_-_-_" data-name="&lt;-+-&gt;"><path id="_" data-name="&gt;" class="cls-3" d="M20.79,12.21,19,8.89H17.83l1.85,3.57-1.85,3.69H19l1.75-3.43Z" transform="translate(0 0)"/><path id="_2" data-name="&lt;" class="cls-3" d="M13.14,12.72l1.75,3.43h1.24l-1.88-3.69,1.87-3.57H14.88l-1.75,3.32Z" transform="translate(0 0)"/></g></g></g></g></g><path class="cls-3" d="M13.5,28.18H10.92V23.61H13.5v.63H11.66v1.24h1.72v.63H11.66v1.44H13.5Z" transform="translate(0 0)"/><path class="cls-3" d="M16.47,28.18l-1.33-3.82h0q.05.85.05,1.59v2.22h-.68V23.61h1.05l1.27,3.64h0l1.31-3.64H19.2v4.57h-.72V25.92q0-.34,0-.89t0-.66h0l-1.37,3.81Z" transform="translate(0 0)"/><path class="cls-3" d="M20.4,28.18V23.61h.75v3.93h1.94v.64Z" transform="translate(0 0)"/></svg>