<?xml version="1.0" encoding="UTF-8" standalone="no"?>
<svg width="35px" height="35px" viewBox="0 0 35 35" version="1.1" xmlns="http://www.w3.org/2000/svg" xmlns:xlink="http://www.w3.org/1999/xlink" xmlns:sketch="http://www.bohemiancoding.com/sketch/ns">
    <!-- Generator: Sketch 3.3.2 (12043) - http://www.bohemiancoding.com/sketch -->
    <title>Group</title>
    <desc>Created with Sketch.</desc>
    <defs></defs>
    <g id="Page-1" stroke="none" stroke-width="1" fill="none" fill-rule="evenodd" sketch:type="MSPage">
        <g id="Group" sketch:type="MSLayerGroup">
            <path d="M34.489,17.789 C34.489,8.497 26.958,0.964 17.665,0.964 C8.374,0.964 0.841,8.497 0.841,17.789 C0.841,27.081 8.374,34.613 17.665,34.613 C26.958,34.613 34.489,27.081 34.489,17.789" id="Fill-15" fill="#FFFFFF" sketch:type="MSShapeGroup"></path>
            <path d="M12.792,2.466 C12.724,2.704 12.901,2.878 12.978,3.064 C13.438,4.188 13.783,5.344 14.024,6.534 C14.157,7.188 14.259,7.847 14.352,8.508 C14.515,9.649 14.544,10.794 14.483,11.937 C14.421,13.097 14.245,14.247 13.911,15.366 C13.88,15.474 13.855,15.585 13.816,15.736 C13.958,15.736 14.05,15.731 14.141,15.737 C14.72,15.763 15.3,15.767 15.874,15.825 C17.99,16.04 20.065,16.46 22.06,17.207 C23.513,17.751 24.907,18.421 26.19,19.306 C27.31,20.075 28.302,20.973 29.056,22.112 C29.644,23.003 30.035,23.974 30.207,25.028 C30.241,25.239 30.259,25.452 30.29,25.663 L30.368,25.739 L30.368,26.552 C30.108,26.638 29.85,26.728 29.587,26.806 C28.95,26.991 28.302,27.108 27.637,27.127 L27.52,27.204 L26.3,27.204 L26.224,27.126 C25.759,27.069 25.294,27.019 24.829,26.967 C24.151,26.89 23.5,26.697 22.853,26.491 C21.648,26.108 20.54,25.526 19.491,24.829 C18.266,24.015 17.165,23.054 16.148,21.992 C15.363,21.173 14.553,20.376 13.665,19.667 C12.791,18.969 11.831,18.427 10.745,18.122 C9.861,17.872 8.964,17.849 8.075,18.026 C7.065,18.228 6.142,18.642 5.373,19.352 C5.267,19.451 5.163,19.548 4.989,19.566 L4.962,19.392 C5.091,19.173 5.206,18.943 5.352,18.738 C5.938,17.925 6.714,17.327 7.597,16.874 C8.601,16.358 9.665,16.031 10.786,15.888 C11.048,15.854 11.31,15.811 11.568,15.774 L11.567,15.638 C11.351,14.95 11.175,14.257 11.067,13.542 C10.957,12.813 10.854,12.085 10.848,11.347 C10.843,10.673 10.81,9.999 10.91,9.327 C10.97,8.929 10.954,8.52 11.018,8.124 C11.13,7.454 11.261,6.786 11.413,6.126 C11.674,4.995 12.046,3.9 12.528,2.844 C12.581,2.727 12.597,2.593 12.63,2.466 L12.792,2.466" id="Fill-16" fill="#44A72A" sketch:type="MSShapeGroup"></path>
            <path d="M23.679,7.317 C23.772,8.241 23.583,9.047 23.278,9.837 C23.037,10.464 22.669,11.017 22.235,11.518 C21.902,11.901 21.489,12.213 21.044,12.46 C20.374,12.834 19.669,13.114 18.893,13.227 C18.445,13.291 17.995,13.267 17.522,13.401 C17.529,13.031 17.46,12.72 17.581,12.402 C17.626,12.284 17.573,12.131 17.598,11.999 C17.77,11.083 18.056,10.218 18.615,9.448 C19.257,8.567 20.148,8.052 21.138,7.706 C21.616,7.538 22.128,7.423 22.655,7.421 C22.985,7.419 23.315,7.356 23.679,7.317" id="Fill-17" fill="#A3CA73" sketch:type="MSShapeGroup"></path>
            <path d="M8.015,26.965 L8.015,23.681 L8.251,23.635 C8.603,23.63 8.956,23.622 9.308,23.64 C9.938,23.67 10.336,24.116 10.261,24.733 C10.237,24.923 10.114,25.099 10.018,25.325 L10.121,25.524 C10.491,26.177 10.186,26.852 9.455,26.995 C9.237,27.038 8.29,27.023 8.015,26.965 L8.015,26.965 Z M8.659,26.465 C8.999,26.405 9.338,26.558 9.6,26.253 L9.6,25.774 C9.31,25.476 8.98,25.628 8.659,25.579 L8.659,26.465 L8.659,26.465 Z M8.653,25.001 L9.394,25.001 C9.645,24.766 9.645,24.766 9.582,24.38 C9.314,24.118 8.981,24.231 8.653,24.229 L8.653,25.001 L8.653,25.001 Z" id="Fill-18" fill="#070707" sketch:type="MSShapeGroup"></path>
            <path d="M7.318,23.612 L7.318,24.18 L6.172,24.18 L5.944,24.394 L5.944,26.306 L6.155,26.47 C6.394,26.47 6.63,26.543 6.854,26.315 C6.876,26.19 6.903,26.026 6.937,25.827 L6.313,25.827 L6.313,25.273 L7.538,25.273 C7.577,25.695 7.603,26.106 7.469,26.511 C7.396,26.727 7.239,26.882 7.028,26.958 C6.623,27.106 6.208,27.106 5.803,26.96 C5.475,26.841 5.311,26.576 5.304,26.242 C5.288,25.633 5.285,25.022 5.304,24.413 C5.317,23.981 5.647,23.657 6.075,23.621 C6.291,23.602 6.509,23.613 6.726,23.612 C6.913,23.61 7.101,23.612 7.318,23.612" id="Fill-19" fill="#070707" sketch:type="MSShapeGroup"></path>
            <path d="M12.136,23.645 L14.048,23.645 C14.251,23.833 14.148,24.036 14.054,24.267 L12.786,24.267 L12.786,24.987 C13.129,25.056 13.479,24.985 13.837,25.03 C13.942,25.23 13.964,25.424 13.815,25.64 L12.794,25.64 C12.722,26.102 12.821,26.56 12.731,27.009 L12.148,27.009 L12.084,26.794 C12.079,25.833 12.08,24.871 12.083,23.91 C12.084,23.823 12.116,23.737 12.136,23.645" id="Fill-20" fill="#070707" sketch:type="MSShapeGroup"></path>
            <path d="M11.453,23.653 L11.453,26.982 C11.349,26.995 11.261,27.013 11.172,27.019 C11.079,27.023 10.985,27.019 10.853,27.019 L10.784,26.776 C10.778,25.803 10.778,24.829 10.782,23.856 L10.835,23.653 L11.453,23.653" id="Fill-21" fill="#070707" sketch:type="MSShapeGroup"></path>
        </g>
    </g>
</svg>