<svg id="Capa_1" data-name="Capa 1" xmlns="http://www.w3.org/2000/svg" width="33.65" height="33.65" viewBox="0 0 33.65 33.65"><defs><style>.cls-1{fill:#efefef;}.cls-2{fill:#3c3c3c;}</style></defs><title>ico-edit</title><g id="Page-1"><g id="Fill-26-_-edit45" data-name="Fill-26-+-edit45"><path id="Fill-26" class="cls-1" d="M17,1a16.83,16.83,0,0,0-.15,33.65H17A16.82,16.82,0,0,0,17.16,1H17" transform="translate(-0.18 -0.96)"/><g id="edit45"><path id="Shape" class="cls-2" d="M19.32,11,23,14.68,13.68,24,10,20.32,19.32,11Zm6.31-.78L23.95,8.5a1.63,1.63,0,0,0-2.35,0L20,10.15,23.75,14l1.87-1.92a1.34,1.34,0,0,0,0-1.86ZM8,25.46a.45.45,0,0,0,.55.53L13,24.93,9,21,8,25.46Z" transform="translate(-0.18 -0.96)"/></g></g></g></svg>