<svg id="Capa_1" data-name="Capa 1" xmlns="http://www.w3.org/2000/svg" width="22.08" height="225.24" viewBox="0 0 22.08 225.24"><defs><style>.cls-1{fill:#bcc6d1;}.cls-2{fill:#0e345c;}</style></defs><title>ico-admin-sp</title><g id="Page-1"><g id="Shape-_-Shape-_-Shape-_-Shape" data-name="Shape-+-Shape-+-Shape-+-Shape"><g id="Shape-_-Shape" data-name="Shape-+-Shape"><path id="Shape" class="cls-1" d="M12.72.11l.81.32a4.72,4.72,0,1,1-3.39,0L11,.11Z" transform="translate(-0.85 -0.11)"/><path id="Shape-2" data-name="Shape" class="cls-1" d="M15.68,10a11.61,11.61,0,0,1,5.06,2.44,5.74,5.74,0,0,1,2.17,4.64c0,1.08-.05,2.17,0,3.24.1,1.8-.58,2-2.4,1.76-.23,0-.44-.25-.81-.46V18.06h-1V23.3a11.3,11.3,0,0,1-1.92,1.16,14.32,14.32,0,0,1-9.91,0A11.12,11.12,0,0,1,5,23.34V18.1L4,18c0,.83,0,1.55,0,2.26s.2,1.43-.59,1.72A2.37,2.37,0,0,1,.94,21.7c0-.32-.08-.68-.08-1,0-1.25,0-2.49,0-3.74a5.38,5.38,0,0,1,1.76-4.12A11.32,11.32,0,0,1,8,10a6.92,6.92,0,0,0,7.63,0Z" transform="translate(-0.85 -0.11)"/></g><g id="Shape-_-Shape-2" data-name="Shape-+-Shape"><path id="Shape-3" data-name="Shape" class="cls-2" d="M12.72,200.11l.81.32a4.72,4.72,0,1,1-3.39,0l.81-.33Z" transform="translate(-0.85 -0.11)"/><path id="Shape-4" data-name="Shape" class="cls-2" d="M15.68,210a11.61,11.61,0,0,1,5.06,2.44,5.74,5.74,0,0,1,2.17,4.64c0,1.08-.05,2.17,0,3.24.1,1.8-.58,2-2.4,1.76-.23,0-.44-.25-.81-.46v-3.58h-1v5.24a11.3,11.3,0,0,1-1.92,1.16,14.32,14.32,0,0,1-9.91,0A11.12,11.12,0,0,1,5,223.34V218.1L4,218c0,.83,0,1.55,0,2.26s.2,1.43-.59,1.72a2.37,2.37,0,0,1-2.47-.31c0-.32-.08-.68-.08-1,0-1.25,0-2.49,0-3.74a5.38,5.38,0,0,1,1.76-4.12A11.32,11.32,0,0,1,8,210a6.92,6.92,0,0,0,7.63,0Z" transform="translate(-0.85 -0.11)"/></g></g></g></svg>