<svg id="Capa_1" data-name="Capa 1" xmlns="http://www.w3.org/2000/svg" width="33.65" height="33.65" viewBox="0 0 33.65 33.65"><defs><style>.cls-1{fill:#efefef;}.cls-2{fill:#3c3c3c;}</style></defs><title>ico-website</title><g id="Page-1"><g id="Group"><path id="Fill-22" class="cls-1" d="M33.89,17.79A16.82,16.82,0,1,0,17.07,34.61,16.83,16.83,0,0,0,33.89,17.79" transform="translate(-0.24 -0.96)"/><path id="Fill-23" class="cls-2" d="M11.69,15.37H10.15l-.69,2.54c0,.15-.09.44-.17.87s-.13.77-.16,1h0a3.56,3.56,0,0,0,0-.38c0-.16,0-.32-.07-.49s-.06-.32-.08-.47l-.06-.33-.67-2.75H6.44l-.71,2.75-.08.44a10.63,10.63,0,0,0-.18,1.24h0q-.16-1.2-.32-1.88l-.66-2.54H2.9l1.63,5.73H6.21l1-4.54h0l.6,2.53.44,2H10l1.65-5.73" transform="translate(-0.24 -0.96)"/><path id="Fill-24" class="cls-2" d="M21.2,15.37H19.67L19,17.91c0,.15-.09.44-.17.87s-.13.77-.16,1h0c0-.1,0-.22,0-.38s0-.32-.07-.49-.06-.32-.08-.47l-.07-.33-.67-2.75H16l-.71,2.75-.08.44A10.86,10.86,0,0,0,15,19.8h0q-.17-1.2-.32-1.88L14,15.37H12.42L14,21.11h1.68l1-4.54h0l.6,2.53.44,2h1.7l1.65-5.73" transform="translate(-0.24 -0.96)"/><path id="Fill-25" class="cls-2" d="M30.72,15.37H29.19l-.69,2.54c0,.15-.09.44-.17.87s-.13.77-.16,1h0a3.47,3.47,0,0,0,0-.38c0-.16,0-.32-.08-.49s-.06-.32-.08-.47l-.07-.33-.67-2.75H25.48l-.71,2.75-.08.44a10.41,10.41,0,0,0-.18,1.24h0c-.11-.8-.22-1.43-.32-1.88l-.66-2.54H21.94l1.63,5.73h1.68l1-4.54h0l.59,2.53.44,2h1.7l1.65-5.73" transform="translate(-0.24 -0.96)"/></g></g></svg>