<svg id="Capa_1" data-name="Capa 1" xmlns="http://www.w3.org/2000/svg" width="33.65" height="33.65" viewBox="0 0 33.65 33.65"><defs><style>.cls-1{fill:#efefef;}.cls-2{fill:#3c3c3c;}</style></defs><title>ico-quote</title><g id="Page-1"><g id="Fill-12-_-Fill-13-_-Fill-14" data-name="Fill-12-+-Fill-13-+-Fill-14"><path id="Fill-12" class="cls-1" d="M34.4,17.94a16.82,16.82,0,1,0-17,16.67,16.82,16.82,0,0,0,17-16.67" transform="translate(-0.75 -0.96)"/><path id="Fill-13" class="cls-2" d="M9.48,13.75a.43.43,0,0,1,.24.2,1.73,1.73,0,0,1,.28.73l0,.1-.57.39a3.93,3.93,0,0,0-1.08.92,1.89,1.89,0,0,0-.43,1.12c0,.52.32.93,1,1.21a2.52,2.52,0,0,1,.91.6,1.43,1.43,0,0,1,.36,1,1.73,1.73,0,0,1-.55,1.27,1.79,1.79,0,0,1-1.3.55,2.46,2.46,0,0,1-1.86-.93,3.38,3.38,0,0,1-.83-2.35,4.73,4.73,0,0,1,1.18-3.15,4.34,4.34,0,0,1,2.7-1.61Zm5.15,0a.75.75,0,0,1,.46.3,1.05,1.05,0,0,1,.29.59l0,.17a6.88,6.88,0,0,0-1.73,1.35,1.86,1.86,0,0,0-.39,1.14.88.88,0,0,0,.15.56,3.25,3.25,0,0,0,1,.65,1.74,1.74,0,0,1,1.11,1.56,1.58,1.58,0,0,1-.56,1.18,1.93,1.93,0,0,1-1.38.52,2.4,2.4,0,0,1-1.81-.89,3.17,3.17,0,0,1-.81-2.2,5.13,5.13,0,0,1,.46-2.11,4.69,4.69,0,0,1,1.35-1.75,6.49,6.49,0,0,1,1.91-1.08Z" transform="translate(-0.75 -0.96)"/><path id="Fill-14" class="cls-2" d="M19.72,20.87a1.26,1.26,0,0,1,.49-.37,3.27,3.27,0,0,0,1.15-1,2,2,0,0,0,.45-1.16,1.13,1.13,0,0,0-.68-1,4.22,4.22,0,0,1-1.21-.81,1.51,1.51,0,0,1-.32-1,1.66,1.66,0,0,1,.54-1.23,1.82,1.82,0,0,1,1.31-.52,2.44,2.44,0,0,1,1.83.93,3.31,3.31,0,0,1,.83,2.3,4.77,4.77,0,0,1-.7,2.54,5.21,5.21,0,0,1-1.87,1.83,2.69,2.69,0,0,1-1.19.44.45.45,0,0,1-.35-.18,1.64,1.64,0,0,1-.27-.78Zm5.32,0a1.87,1.87,0,0,1,.4-.28,4.48,4.48,0,0,0,1.24-1,1.85,1.85,0,0,0,.49-1.19,1.1,1.1,0,0,0-.2-.69A3.14,3.14,0,0,0,26,17a2.86,2.86,0,0,1-.52-.3,1.71,1.71,0,0,1-.4-.52,1.43,1.43,0,0,1-.15-.66,1.61,1.61,0,0,1,.54-1.2,1.86,1.86,0,0,1,1.34-.52,2.5,2.5,0,0,1,1.87.92,3.3,3.3,0,0,1,.84,2.31,4.44,4.44,0,0,1-.62,2.24,5.78,5.78,0,0,1-1.78,1.88,2.77,2.77,0,0,1-1.5.6.4.4,0,0,1-.3-.21,1.21,1.21,0,0,1-.3-.67v-.09Z" transform="translate(-0.75 -0.96)"/></g></g></svg>