<svg id="Capa_1" data-name="Capa 1" xmlns="http://www.w3.org/2000/svg" width="33.65" height="33.65" viewBox="0 0 33.65 33.65"><defs><style>.cls-1{fill:#efefef;}.cls-2{fill:#725a2d;}.cls-3{fill:#c0954c;}.cls-4{fill:#ebc279;}.cls-5{fill:#3c3c3c;}</style></defs><title>ico-dwc</title><g id="Page-1"><g id="Fill-1-_-Group" data-name="Fill-1-+-Group"><path id="Fill-1" class="cls-1" d="M34.26,17.94a16.82,16.82,0,1,0-17,16.67,16.82,16.82,0,0,0,17-16.67" transform="translate(-0.61 -0.96)"/><g id="Group"><path id="Fill-22" class="cls-2" d="M9.91,21H25.28v1.2H9.91Z" transform="translate(-0.61 -0.96)"/><path id="Fill-23" class="cls-3" d="M9.46,9h16V22.39h-16Z" transform="translate(-0.61 -0.96)"/><path id="Fill-24" class="cls-4" d="M25.44,9.13h-16l2.16-5.27H23.27l2.17,5.27" transform="translate(-0.61 -0.96)"/><path id="Fill-25" class="cls-2" d="M15.91,14.48h2.93v5.1H15.91Z" transform="translate(-0.61 -0.96)"/><path id="Fill-26" class="cls-2" d="M17.31,11.93l3.44,3.57H14l3.32-3.57" transform="translate(-0.61 -0.96)"/></g></g></g><path class="cls-5" d="M14.58,26.91a2.39,2.39,0,0,1-.66,1.82,2.65,2.65,0,0,1-1.9.63H10.68v-4.8h1.48a2.46,2.46,0,0,1,1.78.62A2.31,2.31,0,0,1,14.58,26.91Zm-.83,0q0-1.72-1.61-1.72h-.68V28.7H12A1.54,1.54,0,0,0,13.76,26.94Z" transform="translate(-0.61 -0.96)"/><path class="cls-5" d="M18.51,29.36,18,27.67q-.09-.27-.31-1.25h0q-.19.89-.3,1.26l-.48,1.69h-.85l-1-3.63h.79l.46,1.79q.16.66.22,1.14h0q0-.24.1-.55t.12-.46l.55-1.91h.85l.54,1.91q0,.16.12.49a3.79,3.79,0,0,1,.09.52h0a10.07,10.07,0,0,1,.23-1.13l.47-1.79h.77l-1,3.63Z" transform="translate(-0.61 -0.96)"/><path class="cls-5" d="M23.15,25.16a1.29,1.29,0,0,0-1.06.48,2.52,2.52,0,0,0,0,2.66,1.32,1.32,0,0,0,1.08.45,2.83,2.83,0,0,0,.59-.06l.59-.16v.67a3.6,3.6,0,0,1-1.28.21,2,2,0,0,1-1.62-.64A2.67,2.67,0,0,1,20.87,27a3,3,0,0,1,.27-1.31,2,2,0,0,1,.79-.86,2.4,2.4,0,0,1,1.22-.3,3,3,0,0,1,1.36.31l-.28.65a4.22,4.22,0,0,0-.51-.2A1.85,1.85,0,0,0,23.15,25.16Z" transform="translate(-0.61 -0.96)"/></svg>