<?xml version="1.0" encoding="UTF-8" standalone="no"?>
<svg width="35px" height="35px" viewBox="0 0 35 35" version="1.1" xmlns="http://www.w3.org/2000/svg" xmlns:xlink="http://www.w3.org/1999/xlink" xmlns:sketch="http://www.bohemiancoding.com/sketch/ns">
    <!-- Generator: Sketch 3.3.2 (12043) - http://www.bohemiancoding.com/sketch -->
    <title>Fill 1 + Group</title>
    <desc>Created with Sketch.</desc>
    <defs></defs>
    <g id="Page-1" stroke="none" stroke-width="1" fill="none" fill-rule="evenodd" sketch:type="MSPage">
        <g id="Fill-1-+-Group" sketch:type="MSLayerGroup">
            <path d="M34.262,17.94 C34.345,8.648 26.881,1.049 17.59,0.965 C8.298,0.881 0.698,8.348 0.615,17.639 C0.531,26.93 7.996,34.529 17.289,34.614 C26.58,34.698 34.179,27.232 34.262,17.94" id="Fill-1" fill="#A9D6F6" sketch:type="MSShapeGroup"></path>
            <g id="Group" transform="translate(9.000000, 3.000000)" sketch:type="MSShapeGroup">
                <path d="M0.914545455,18.0307386 L16.2827273,18.0307386 L16.2827273,19.2350568 L0.914545455,19.2350568 L0.914545455,18.0307386 Z" id="Fill-22" fill="#725A2D"></path>
                <g>
                    <path d="M0.463522727,5.97642045 L16.4354545,5.97642045 L16.4354545,19.3869886 L0.463522727,19.3869886 L0.463522727,5.97642045 Z" id="Fill-23" fill="#C0954C"></path>
                    <path d="M16.4354545,6.12517045 L0.463522727,6.12517045 L2.62795455,0.852102273 L14.2686364,0.852102273 L16.4354545,6.12517045" id="Fill-24" fill="#EBC279"></path>
                    <path d="M6.90670455,11.4809659 L9.83954545,11.4809659 L9.83954545,16.5846023 L6.90670455,16.5846023 L6.90670455,11.4809659 Z" id="Fill-25" fill="#725A2D"></path>
                    <path d="M8.31465909,8.92994318 L11.7542045,12.5015341 L4.99284091,12.5015341 L8.31465909,8.92994318" id="Fill-26" fill="#725A2D"></path>
                </g>
                <path d="M15.7004545,26.2613068 C15.7004545,27.6294886 14.58125,28.7486932 13.2130682,28.7486932 L3.68829545,28.7486932 C2.32011364,28.7486932 1.20090909,27.6294886 1.20090909,26.2613068 L1.20090909,24.0228977 C1.20090909,22.6547159 2.32011364,21.5347159 3.68829545,21.5347159 L13.2130682,21.5347159 C14.58125,21.5347159 15.7004545,22.6547159 15.7004545,24.0228977 L15.7004545,26.2613068" id="Fill-27" fill="#47799D"></path>
                <path d="M4.35806818,27.1665341 L3.01772727,27.1665341 L3.01772727,23.5058523 L4.35806818,23.5058523 C5.50113636,23.5058523 6.10568182,23.9815341 6.10568182,25.321875 C6.10568182,26.6797159 5.54568182,27.1665341 4.35806818,27.1665341 L4.35806818,27.1665341 Z M4.35806818,24.1676705 L3.87761364,24.1676705 L3.87761364,26.5047159 L4.40897727,26.5047159 C4.82738636,26.5047159 5.21795455,26.4021023 5.21795455,25.3274432 C5.21795455,24.1676705 4.72636364,24.1676705 4.35806818,24.1676705 L4.35806818,24.1676705 Z" id="Fill-29" fill="#FFFFFF"></path>
                <path d="M10.1314773,27.1665341 L9.31215909,27.1665341 L8.79670455,25.7013068 L8.21443182,27.1665341 L7.39431818,27.1665341 L6.51772727,24.5813068 L7.33784091,24.5813068 L7.87556818,26.2271023 L8.42920455,24.7952841 L9.19840909,24.7952841 L9.73056818,26.2326705 L10.17125,24.5813068 L10.9746591,24.5813068 L10.1314773,27.1665341" id="Fill-30" fill="#FFFFFF"></path>
                <path d="M13.1510227,27.2786932 C11.8607955,27.2786932 11.3859091,26.5150568 11.3859091,25.339375 C11.3859091,24.3203977 11.8098864,23.4263068 13.1677273,23.4263068 C13.4843182,23.4263068 13.8971591,23.4883523 14.1739773,23.5798295 L13.9146591,24.298125 C13.6768182,24.1963068 13.4389773,24.088125 13.1677273,24.088125 C12.53375,24.088125 12.2736364,24.4850568 12.2736364,25.3330114 C12.2736364,26.2326705 12.5114773,26.616875 13.1335227,26.616875 C13.4501136,26.616875 13.6593182,26.4983523 13.9536364,26.3798295 L14.21375,27.098125 C13.8915909,27.2110795 13.5917045,27.2786932 13.1510227,27.2786932" id="Fill-31" fill="#FFFFFF"></path>
            </g>
        </g>
    </g>
</svg>