<?xml version="1.0" encoding="UTF-8" standalone="no"?>
<svg width="35px" height="35px" viewBox="0 0 35 35" version="1.1" xmlns="http://www.w3.org/2000/svg" xmlns:xlink="http://www.w3.org/1999/xlink" xmlns:sketch="http://www.bohemiancoding.com/sketch/ns">
    <!-- Generator: Sketch 3.3.2 (12043) - http://www.bohemiancoding.com/sketch -->
    <title>Group</title>
    <desc>Created with Sketch.</desc>
    <defs></defs>
    <g id="Page-1" stroke="none" stroke-width="1" fill="none" fill-rule="evenodd" sketch:type="MSPage">
        <g id="Group" sketch:type="MSLayerGroup">
            <path d="M34.262,17.94 C34.345,8.648 26.881,1.049 17.59,0.965 C8.298,0.881 0.698,8.348 0.615,17.639 C0.531,26.93 7.996,34.529 17.289,34.614 C26.58,34.698 34.179,27.232 34.262,17.94" id="Fill-1" fill="#A9D6F6" sketch:type="MSShapeGroup"></path>
            <path d="M10.49,3.96 L24.228,4.083 L24.062,22.67 L10.324,22.547 L10.49,3.96" id="Fill-2" fill="#FFFFFF" sketch:type="MSShapeGroup"></path>
            <path d="M12.865,9.638 L21.753,9.718 L21.768,8.102 L12.879,8.022" id="Fill-3" fill="#1685C6" sketch:type="MSShapeGroup"></path>
            <path d="M12.835,12.872 L21.725,12.951 L21.74,11.334 L12.85,11.255" id="Fill-4" fill="#1685C6" sketch:type="MSShapeGroup"></path>
            <path d="M12.806,16.103 L21.696,16.183 L21.71,14.567 L12.821,14.487" id="Fill-5" fill="#1685C6" sketch:type="MSShapeGroup"></path>
            <path d="M12.778,19.336 L21.667,19.416 L21.681,17.799 L12.792,17.72" id="Fill-6" fill="#1685C6" sketch:type="MSShapeGroup"></path>
            <path d="M24.703,29.123 C24.69,30.513 23.543,31.64 22.153,31.628 L12.477,31.542 C11.087,31.529 9.96,30.382 9.972,28.992 L9.993,26.718 C10.005,25.328 11.153,24.201 12.543,24.214 L22.219,24.3 C23.609,24.312 24.736,25.46 24.723,26.85 L24.703,29.123" id="Fill-7" fill="#47799D" sketch:type="MSShapeGroup"></path>
            <path d="M14.888,29.981 L13.822,28.484 L13.77,28.484 L13.757,29.971 L12.886,29.963 L12.919,26.25 L14.422,26.264 C15.013,26.269 15.711,26.459 15.703,27.389 C15.699,27.865 15.488,28.328 14.844,28.465 L15.96,29.99 L14.888,29.981 L14.888,29.981 Z M14.444,26.935 L13.784,26.93 L13.776,27.812 L14.442,27.818 C14.672,27.821 14.816,27.639 14.819,27.381 C14.822,27.134 14.72,26.937 14.444,26.935 L14.444,26.935 Z" id="Fill-9" fill="#FFFFFF" sketch:type="MSShapeGroup"></path>
            <path d="M18.149,26.975 L18.122,30.01 L17.244,30.002 L17.271,26.967 L16.29,26.957 L16.296,26.281 L19.137,26.307 L19.131,26.982 L18.149,26.975" id="Fill-10" fill="#FFFFFF" sketch:type="MSShapeGroup"></path>
            <path d="M20.593,26.996 L20.586,27.799 L21.922,27.811 L21.916,28.477 L20.58,28.465 L20.565,30.031 L19.692,30.023 L19.726,26.311 L22.004,26.332 L21.998,27.009 L20.593,26.996" id="Fill-11" fill="#FFFFFF" sketch:type="MSShapeGroup"></path>
        </g>
    </g>
</svg>