<svg id="Capa_1" data-name="Capa 1" xmlns="http://www.w3.org/2000/svg" width="33.64" height="33.64" viewBox="0 0 33.64 33.64"><defs><style>.cls-1{fill:#efefef;}.cls-2{fill:#fff;}.cls-3{fill:#3c3c3c;}</style></defs><title>ico-dwn-rtf</title><g id="Page-1"><g id="Group"><path id="Fill-1" class="cls-1" d="M33.65,17a16.82,16.82,0,1,0-17,16.67A16.82,16.82,0,0,0,33.65,17v0" transform="translate(-0.01 -0.01)"/></g></g><rect class="cls-2" x="9.79" y="3.99" width="14.17" height="18.14"/><rect class="cls-3" x="12.38" y="8.05" width="9" height="1.54"/><rect class="cls-3" x="12.38" y="10.88" width="9" height="1.54"/><rect class="cls-3" x="12.38" y="13.71" width="9" height="1.54"/><rect class="cls-3" x="12.38" y="16.54" width="9" height="1.54"/><path d="M12,27.1v2h-.81v-5h1.39A2.29,2.29,0,0,1,14,24.5a1.28,1.28,0,0,1,.46,1.08,1.35,1.35,0,0,1-1,1.31L14.94,29H14l-1.18-2Zm0-.67h.56a1.28,1.28,0,0,0,.82-.21.76.76,0,0,0,.25-.62.67.67,0,0,0-.28-.56,1.5,1.5,0,0,0-.82-.18H12Z" transform="translate(-0.01 -0.01)"/><path d="M17.39,29h-.81V24.83H15.15v-.69h3.71v.69H17.39Z" transform="translate(-0.01 -0.01)"/><path d="M20.39,29h-.8v-4.9h2.8v.68h-2v1.54h1.86V27H20.39Z" transform="translate(-0.01 -0.01)"/></svg>