<svg id="Capa_1" data-name="Capa 1" xmlns="http://www.w3.org/2000/svg" width="33.65" height="33.65" viewBox="0 0 33.65 33.65"><defs><style>.cls-1{fill:#efefef;}.cls-2{fill:#3c3c3c;}</style></defs><title>ico-key</title><g id="Page-1"><g id="Fill-26-_-Fill-27" data-name="Fill-26-+-Fill-27"><path id="Fill-26" class="cls-1" d="M17,1a16.83,16.83,0,0,0-.15,33.65H17A16.82,16.82,0,0,0,17.16,1H17" transform="translate(-0.18 -0.96)"/><path id="Fill-27" class="cls-2" d="M19.76,23.57V21.75H17.9l-1.16-1.41a6.93,6.93,0,0,1-5.4-.25,6.23,6.23,0,0,1-2.82-2.8,6.44,6.44,0,0,1,9-8.49c2.66,1.56,3.66,4.38,2.75,8,.33.3.72.63,1.08,1,1.43,1.42,2.83,2.85,4.27,4.25a1.65,1.65,0,0,1,.56,1.37c0,.63,0,1.26,0,1.89s-.25,1-1,1-1.44,0-2.15,0-.95-.45-1.39-.9V23.57ZM15.15,13a2.21,2.21,0,0,0-2.24-2.31,2.21,2.21,0,0,0-2.3,2.24,2.2,2.2,0,0,0,2.24,2.3A2.2,2.2,0,0,0,15.15,13Z" transform="translate(-0.18 -0.96)"/></g></g></svg>