<?xml version="1.0" encoding="UTF-8" standalone="no"?>
<svg width="34px" height="34px" viewBox="0 0 34 34" version="1.1" xmlns="http://www.w3.org/2000/svg" xmlns:xlink="http://www.w3.org/1999/xlink" xmlns:sketch="http://www.bohemiancoding.com/sketch/ns">
    <!-- Generator: Sketch 3.3.2 (12043) - http://www.bohemiancoding.com/sketch -->
    <title>Fill 1 + Fill 2 + &lt; + &gt; + Fill 3 + Fill 5 + Fill 6 + Fill 7</title>
    <desc>Created with Sketch.</desc>
    <defs></defs>
    <g id="Page-1" stroke="none" stroke-width="1" fill="none" fill-rule="evenodd" sketch:type="MSPage">
        <g id="Fill-1-+-Fill-2-+-&lt;-+-&gt;-+-Fill-3-+-Fill-5-+-Fill-6-+-Fill-7" sketch:type="MSLayerGroup">
            <path d="M33.647702,16.9757018 C33.730702,7.68370182 26.266702,0.084701823 16.975702,0.000701822969 C7.68370201,-0.083298177 0.0837020084,7.38370182 0.000702008393,16.6747018 C-0.0832979916,25.9657018 7.38170201,33.5647018 16.674702,33.6497018 C25.965702,33.7337018 33.564702,26.2677018 33.647702,16.9757018" id="Fill-1" fill="#A9D6F6" sketch:type="MSShapeGroup"></path>
            <g id="Fill-2-+-&lt;-+-&gt;-+-Fill-3-+-Fill-5-+-Fill-6-+-Fill-7" transform="translate(10.000000, 3.000000)" sketch:type="MSShapeGroup">
                <g>
                    <g id="Fill-2-+-&lt;-+-&gt;">
                        <path d="M0,0 L13.5227273,0 L13.5227273,18.2954545 L0,18.2954545 L0,0 Z" id="Fill-2" fill="#FFFFFF"></path>
                        <g id="&lt;-+-&gt;" transform="translate(3.000000, 5.000000)" fill="#1685C6">
                            <path d="M7.79467677,4.20633585 L6.0480101,0.891335853 L4.83467677,0.891335853 L6.6880101,4.46133585 L4.83467677,8.15133585 L6.0480101,8.15133585 L7.79467677,4.71633585 L7.79467677,4.20633585 Z" id="&gt;"></path>
                            <path d="M0.137262626,4.71633585 L1.88392929,8.15133585 L3.12392929,8.15133585 L1.24392929,4.46133585 L3.11059596,0.891335853 L1.88392929,0.891335853 L0.137262626,4.20633585 L0.137262626,4.71633585 Z" id="&lt;"></path>
                        </g>
                    </g>
                    <g id="Fill-3-+-Fill-5-+-Fill-6-+-Fill-7" transform="translate(0.000000, 21.000000)">
                        <path d="M14.4995455,4.72579545 C14.4995455,6.09397727 13.3803409,7.21318182 12.0121591,7.21318182 L2.48738636,7.21318182 C1.11920455,7.21318182 0,6.09397727 0,4.72579545 L0,2.48738636 C0,1.11920455 1.11920455,0 2.48738636,0 L12.0121591,0 C13.3803409,0 14.4995455,1.11920455 14.4995455,2.48738636 L14.4995455,4.72579545" id="Fill-3" fill="#47799D"></path>
                        <g id="Fill-5-+-Fill-6-+-Fill-7" transform="translate(1.000000, 1.000000)" fill="#FFFFFF">
                            <path d="M0.763977273,4.29619318 L0.763977273,0.636306818 L3.00954545,0.636306818 L3.00954545,1.298125 L1.62386364,1.298125 L1.62386364,2.07369318 L2.89102273,2.07369318 L2.89102273,2.73551136 L1.62386364,2.73551136 L1.62386364,3.634375 L3.06045455,3.634375 L3.06045455,4.29619318 L0.763977273,4.29619318" id="Fill-5"></path>
                            <path d="M7.70272727,4.29619318 L7.70272727,1.55346591 L6.78159091,4.29619318 L5.85886364,4.29619318 L4.94329545,1.55346591 L4.94329545,4.29619318 L4.11761364,4.29619318 L4.11761364,0.636306818 L5.55977273,0.636306818 L6.35125,3.153125 L7.17136364,0.636306818 L8.55704545,0.636306818 L8.55704545,4.29619318 L7.70272727,4.29619318" id="Fill-6"></path>
                            <path d="M9.52829545,4.29619318 L9.52829545,0.636306818 L10.3881818,0.636306818 L10.3881818,3.61846591 L11.8359091,3.61846591 L11.8359091,4.29619318 L9.52829545,4.29619318" id="Fill-7"></path>
                        </g>
                    </g>
                </g>
            </g>
        </g>
    </g>
</svg>