<?xml version="1.0" encoding="UTF-8" standalone="no"?>
<svg width="23px" height="226px" viewBox="0 0 23 226" version="1.1" xmlns="http://www.w3.org/2000/svg" xmlns:xlink="http://www.w3.org/1999/xlink" xmlns:sketch="http://www.bohemiancoding.com/sketch/ns">
    <!-- Generator: Sketch 3.3.2 (12043) - http://www.bohemiancoding.com/sketch -->
    <title>Shape + Shape + Shape + Shape</title>
    <desc>Created with Sketch.</desc>
    <defs></defs>
    <g id="Page-1" stroke="none" stroke-width="1" fill="none" fill-rule="evenodd" sketch:type="MSPage">
        <g id="Shape-+-Shape-+-Shape-+-Shape" sketch:type="MSLayerGroup">
            <g id="Shape-+-Shape" fill="#1D86C8" sketch:type="MSShapeGroup">
                <path d="M12.724,0.113 C12.994,0.219 13.265,0.328 13.535,0.434 C15.719,1.288 16.908,3.478 16.461,5.818 C16.051,7.964 14.041,9.577 11.799,9.56 C9.606,9.543 7.635,7.937 7.225,5.829 C6.77,3.499 7.963,1.296 10.143,0.438 C10.415,0.331 10.682,0.221 10.954,0.112 C11.542,0.113 12.132,0.113 12.724,0.113 L12.724,0.113 L12.724,0.113 Z" id="Shape"></path>
                <path d="M15.683,10.019 C17.544,10.451 19.271,11.194 20.745,12.461 C22.163,13.679 22.948,15.195 22.913,17.101 C22.893,18.182 22.862,19.267 22.919,20.345 C23.017,22.145 22.335,22.315 20.523,22.101 C20.293,22.074 20.082,21.855 19.716,21.639 L19.716,18.059 L18.759,18.059 L18.759,23.296 C18.095,23.707 17.513,24.215 16.837,24.459 C13.546,25.644 10.222,25.644 6.929,24.471 C6.247,24.229 5.659,23.728 5.027,23.345 L5.027,18.105 C4.683,18.079 4.427,18.059 4.011,18.027 C4.011,18.862 4.025,19.573 4.007,20.284 C3.99,20.919 4.202,21.715 3.419,22.006 C2.62,22.302 1.759,22.356 0.944,21.699 C0.919,21.374 0.866,21.022 0.864,20.669 C0.852,19.424 0.885,18.178 0.852,16.933 C0.811,15.283 1.461,13.944 2.612,12.816 C4.132,11.325 6.005,10.512 8.048,10.014 C10.583,11.543 13.122,11.552 15.683,10.019 L15.683,10.019 L15.683,10.019 Z" id="Shape"></path>
            </g>
            <g id="Shape-+-Shape" transform="translate(0.000000, 200.000000)" fill="#F89D6D" sketch:type="MSShapeGroup">
                <path d="M12.724,0.113 C12.994,0.219 13.265,0.328 13.535,0.434 C15.719,1.288 16.908,3.478 16.461,5.818 C16.051,7.964 14.041,9.577 11.799,9.56 C9.606,9.543 7.635,7.937 7.225,5.829 C6.77,3.499 7.963,1.296 10.143,0.438 C10.415,0.331 10.682,0.221 10.954,0.112 C11.542,0.113 12.132,0.113 12.724,0.113 L12.724,0.113 L12.724,0.113 Z" id="Shape"></path>
                <path d="M15.683,10.019 C17.544,10.451 19.271,11.194 20.745,12.461 C22.163,13.679 22.948,15.195 22.913,17.101 C22.893,18.182 22.862,19.267 22.919,20.345 C23.017,22.145 22.335,22.315 20.523,22.101 C20.293,22.074 20.082,21.855 19.716,21.639 L19.716,18.059 L18.759,18.059 L18.759,23.296 C18.095,23.707 17.513,24.215 16.837,24.459 C13.546,25.644 10.222,25.644 6.929,24.471 C6.247,24.229 5.659,23.728 5.027,23.345 L5.027,18.105 C4.683,18.079 4.427,18.059 4.011,18.027 C4.011,18.862 4.025,19.573 4.007,20.284 C3.99,20.919 4.202,21.715 3.419,22.006 C2.62,22.302 1.759,22.356 0.944,21.699 C0.919,21.374 0.866,21.022 0.864,20.669 C0.852,19.424 0.885,18.178 0.852,16.933 C0.811,15.283 1.461,13.944 2.612,12.816 C4.132,11.325 6.005,10.512 8.048,10.014 C10.583,11.543 13.122,11.552 15.683,10.019 L15.683,10.019 L15.683,10.019 Z" id="Shape"></path>
            </g>
        </g>
    </g>
</svg>