<svg id="Capa_1" data-name="Capa 1" xmlns="http://www.w3.org/2000/svg" width="122.96" height="122.96" viewBox="0 0 122.96 122.96"><defs><style>.cls-1{fill:#ccc;}.cls-2{fill:#3c3c3c;}.cls-3{fill:#a7a7a7;}.cls-4{fill:#fff;}</style></defs><title>n-announcement</title><g id="Page-1"><g id="Group"><path id="Fill-16" class="cls-1" d="M123,61.48A61.48,61.48,0,1,0,61.48,123h0A61.48,61.48,0,0,0,123,61.48h0" transform="translate(0 0)"/><path id="Fill-59" class="cls-2" d="M90.88,85.59,76.78,71.5A26.05,26.05,0,1,0,57,80.67a25.44,25.44,0,0,0,11.6-2.85l15,15a5.31,5.31,0,0,0,3.69,1.74,5.08,5.08,0,0,0,3.61-1.69,5,5,0,0,0,1.68-3.77A5.3,5.3,0,0,0,90.88,85.59ZM57,38.69a15.87,15.87,0,1,1-15.88,15.9A15.87,15.87,0,0,1,57,38.69Z" transform="translate(0 0)"/><path id="Fill-60" class="cls-3" d="M57,71.45A16.9,16.9,0,1,1,73.91,54.54s0,0,0,0A16.93,16.93,0,0,1,57,71.49" transform="translate(0 0)"/><path id="Fill-61" class="cls-4" d="M54.1,50.75a4.85,4.85,0,1,1,4.85-4.86,4.85,4.85,0,0,1-4.85,4.86" transform="translate(0 0)"/></g></g></svg>