<?xml version="1.0" encoding="UTF-8" standalone="no"?>
<svg width="124px" height="124px" viewBox="0 0 124 124" version="1.1" xmlns="http://www.w3.org/2000/svg" xmlns:xlink="http://www.w3.org/1999/xlink" xmlns:sketch="http://www.bohemiancoding.com/sketch/ns">
    <!-- Generator: Sketch 3.3.2 (12043) - http://www.bohemiancoding.com/sketch -->
    <title>Group</title>
    <desc>Created with Sketch.</desc>
    <defs></defs>
    <g id="Page-1" stroke="none" stroke-width="1" fill="none" fill-rule="evenodd" sketch:type="MSPage">
        <g id="Group" sketch:type="MSLayerGroup">
            <path d="M123.233267,61.8904667 C123.233267,27.9351333 95.7073333,0.405066667 61.752,0.405066667 C27.7966667,0.405066667 0.270733333,27.9351333 0.270733333,61.8904667 C0.270733333,95.8458 27.7966667,123.369667 61.752,123.369667 C95.7073333,123.369667 123.233267,95.8458 123.233267,61.8904667" id="Fill-16" fill="#A9D6F6" sketch:type="MSShapeGroup"></path>
            <path d="M91.1544667,86.0002 L77.0536,71.9055333 C81.1559333,67.1274 83.4024,61.1485333 83.4024,54.9609333 C83.4024,40.5583333 71.6864667,28.8403333 57.2859333,28.8403333 C42.8792,28.8403333 31.1570667,40.5583333 31.1570667,54.9609333 C31.1570667,69.3635333 42.8792,81.0794667 57.2859333,81.0794667 C61.2498,81.0794667 65.1475333,80.1246667 68.8861333,78.2274667 L83.8529333,93.1901333 C83.917,93.2624667 85.3781333,94.9344 87.5398667,94.9344 C88.8212,94.9344 90.0343333,94.3681333 91.1544667,93.2459333 C92.3242,92.0803333 92.8904667,90.8093333 92.8388,89.4722 C92.7602667,87.3972667 91.1648,86.0043333 91.1544667,86.0002 L91.1544667,86.0002 Z M57.2859333,39.0972 C66.0320667,39.0972 73.1476,46.2127333 73.1476,54.9609333 C73.1476,63.7112 66.0320667,70.8308667 57.2859333,70.8308667 C48.5294667,70.8308667 41.4056667,63.7112 41.4056667,54.9609333 C41.4056667,46.2127333 48.5294667,39.0972 57.2859333,39.0972 L57.2859333,39.0972 Z" id="Fill-59" fill="#1685C6" sketch:type="MSShapeGroup"></path>
            <path d="M57.2859333,71.8642 C47.9590667,71.8642 40.3723333,64.2774667 40.3723333,54.9609333 C40.3723333,45.6402667 47.9590667,38.0638667 57.2859333,38.0638667 C66.6004,38.0638667 74.1809333,45.6402667 74.1809333,54.9609333 C74.1809333,64.2774667 66.6004,71.8642 57.2859333,71.8642" id="Fill-60" fill="#A9D6F6" sketch:type="MSShapeGroup"></path>
            <path d="M54.3698667,51.1624 C51.6914667,51.1624 49.5111333,48.9820667 49.5111333,46.3057333 C49.5111333,43.6294 51.6914667,41.4594 54.3698667,41.4594 C57.0462,41.4594 59.2203333,43.6294 59.2203333,46.3057333 C59.2203333,48.9820667 57.0462,51.1624 54.3698667,51.1624" id="Fill-61" fill="#FFFFFF" sketch:type="MSShapeGroup"></path>
        </g>
    </g>
</svg>