<?xml version="1.0" encoding="UTF-8" standalone="no"?>
<svg width="124px" height="124px" viewBox="0 0 124 124" version="1.1" xmlns="http://www.w3.org/2000/svg" xmlns:xlink="http://www.w3.org/1999/xlink" xmlns:sketch="http://www.bohemiancoding.com/sketch/ns">
    <!-- Generator: Sketch 3.3.2 (12043) - http://www.bohemiancoding.com/sketch -->
    <title>Fill 14 + Fill 15</title>
    <desc>Created with Sketch.</desc>
    <defs></defs>
    <g id="Page-1" stroke="none" stroke-width="1" fill="none" fill-rule="evenodd" sketch:type="MSPage">
        <g id="Fill-14-+-Fill-15" sketch:type="MSLayerGroup">
            <path d="M123.233267,61.5846 C123.233267,27.6292667 95.7073333,0.101266667 61.752,0.101266667 C27.7966667,0.101266667 0.270733333,27.6292667 0.270733333,61.5846 C0.270733333,95.542 27.7966667,123.0638 61.752,123.0638 C95.7073333,123.0638 123.233267,95.542 123.233267,61.5846" id="Fill-14" fill="#A9D6F6" sketch:type="MSShapeGroup"></path>
            <path d="M73.2240667,55.8165333 C75.5201333,53.0058667 78.3866,52.6876 81.2902667,54.8555333 C82.1582667,55.5024 82.9642667,56.2381333 83.8467333,56.8581333 C86.2668,58.5569333 88.598,57.6310667 88.8956,54.7170667 C89.0898667,52.8467333 89.1188,50.9826 89.0816,49.1226 L89.1291333,49.1122667 L89.063,48.6142 C88.9555333,45.0574667 88.5132667,41.5193333 87.7982,38.006 C87.5150667,36.6048 87.3352667,36.5097333 85.8865333,36.7990667 C80.7054,37.8365333 75.4664,38.1382667 70.2005333,38.0225333 C69.4792667,38.0018667 68.7290667,37.8551333 68.0656667,37.5864667 C66.774,37.0429333 66.6066,36.0426667 67.4291333,34.9080667 C68.4769333,33.4717333 69.5309333,32.0333333 70.4547333,30.5164 C71.6637333,28.5530667 71.4136667,26.5608 70.3121333,24.6202 C68.3653333,21.2205333 64.4696667,19.4142667 60.4396667,20.0735333 C54.1074,21.111 50.2344667,28.0012667 55.0828667,33.5688667 C55.6884,34.2674 56.2588,34.999 56.7734,35.7636667 C57.381,36.6688667 57.2611333,37.1793333 56.2174667,37.4976 C55.2585333,37.7910667 54.219,37.9812 53.2208,37.9584667 C48.3124667,37.851 43.4206667,37.5906 38.6012,36.5386667 C36.5345333,36.0902 36.4188,36.1522 35.9641333,38.0948667 L35.5714667,37.7786667 C35.1126667,41.137 34.6910667,44.5077333 34.4616667,47.895 C34.3190667,50.0050667 34.4265333,52.1668 34.7117333,54.2706667 C34.7737333,54.7212 34.9225333,55.1014667 35.1188667,55.4362667 L35.154,55.6367333 C35.6066,57.4843333 37.2144667,58.0878 38.8822667,57.1433333 C39.5436,56.7713333 40.1284667,56.2691333 40.7484667,55.8165333 C41.4614667,55.2854 42.1517333,54.715 42.8978,54.2231333 C44.4457333,53.2084 46.1052667,53.072 47.8268,53.754 C48.9366,54.1942 49.8976,54.7894 50.6767333,55.5334 C51.0942,56.1451333 51.4476,56.8002667 51.6956,57.4657333 C52.5780667,59.8506667 52.5181333,62.3658 51.7018,64.7817333 C51.3897333,65.6952 50.8875333,66.6024667 50.2799333,67.3485333 C47.9838667,70.1571333 45.1174,70.4774667 42.2137333,68.3095333 C41.3457333,67.6606 40.5397333,66.9269333 39.6552,66.3069333 C37.2372,64.6081333 34.906,65.534 34.6084,68.448 C34.4141333,70.3183333 34.3852,72.1804 34.4224,74.0404 L34.3748667,74.0528 L34.441,74.5508667 C34.5484667,78.1076 34.9907333,81.6457333 35.7058,85.1590667 C35.9889333,86.5602667 36.1666667,86.6553333 37.6174667,86.366 C42.7965333,85.3285333 48.0376,85.0268 53.3034667,85.1404667 C54.0247333,85.1632 54.7749333,85.3078667 55.4362667,85.5786 C56.73,86.1221333 56.8974,87.1224 56.0728,88.257 C55.0270667,89.6912667 53.971,91.1317333 53.0492667,92.6486667 C51.8382,94.6099333 52.0903333,96.6042667 53.1918667,98.5448667 C55.1386667,101.944533 59.0322667,103.7508 63.0643333,103.091533 C69.3966,102.054067 73.2695333,95.1638 68.4211333,89.5941333 C67.8156,88.8976667 67.2452,88.1660667 66.7306,87.4014 C66.123,86.4941333 66.2428667,85.9857333 67.2865333,85.6674667 C68.2434,85.374 69.2829333,85.1838667 70.2811333,85.2066 C75.1894667,85.3140667 80.0812667,85.5744667 84.9007333,86.6264 C86.9694667,87.0728 87.0852,87.0108 87.5398667,85.0702 L87.9325333,85.3843333 C88.3913333,82.026 88.8129333,78.6573333 89.0423333,75.2700667 C89.1849333,73.1579333 89.0774667,70.9982667 88.7902,68.8944 C88.7302667,68.4418 88.5794,68.0636 88.3851333,67.7288 L88.35,67.5283333 C87.8974,65.6807333 86.2874667,65.0752 84.6217333,66.0196667 C83.9604,66.3937333 83.3755333,66.8959333 82.7555333,67.3485333 C82.0404667,67.8796667 81.3522667,68.4500667 80.6062,68.9398667 C79.0582667,69.9566667 77.3987333,70.0930667 75.6772,69.4110667 C74.5674,68.9708667 73.6064,68.3756667 72.8252,67.6316667 C72.4098,67.0199333 72.0543333,66.3627333 71.8084,65.6993333 C70.9259333,63.3144 70.9858667,60.7992667 71.8022,58.3833333 C72.1142667,57.4698667 72.6164667,56.5626 73.2240667,55.8165333" id="Fill-15" fill="#1685C6" sketch:type="MSShapeGroup"></path>
        </g>
    </g>
</svg>