<svg id="Capa_1" data-name="Capa 1" xmlns="http://www.w3.org/2000/svg" width="122.96" height="122.96" viewBox="0 0 122.96 122.96"><defs><style>.cls-1{fill:#ccc;}.cls-2{fill:#3c3c3c;}</style></defs><title>n-extensions</title><g id="Page-1"><g id="Fill-14-_-Fill-15" data-name="Fill-14- -Fill-15"><path id="Fill-14" class="cls-1" d="M123,61.48A61.48,61.48,0,1,0,61.48,123h0A61.48,61.48,0,0,0,123,61.48h0" transform="translate(0 0)"/><path id="Fill-15" class="cls-2" d="M73,55.72c2.3-2.81,5.16-3.13,8.07-1,.87.65,1.67,1.38,2.56,2,2.42,1.7,4.75.77,5-2.14A45.26,45.26,0,0,0,88.77,49h0l-.07-.5A62.64,62.64,0,0,0,87.53,37.9c-.28-1.4-.46-1.5-1.91-1.21A71.58,71.58,0,0,1,69.93,37.9a6.26,6.26,0,0,1-2.13-.44c-1.29-.54-1.46-1.54-.64-2.68,1-1.44,2.1-2.87,3-4.39a5.45,5.45,0,0,0-.14-5.9,9.49,9.49,0,0,0-9.87-4.55c-6.33,1-10.21,7.93-5.36,13.5a22.78,22.78,0,0,1,1.69,2.19c.61.91.49,1.42-.56,1.73a9.68,9.68,0,0,1-3,.46,76,76,0,0,1-14.59-1.38c-2.07-.45-2.18-.39-2.64,1.56l-.39-.32c-.46,3.36-.88,6.73-1.11,10.12a31.81,31.81,0,0,0,.25,6.38,3.11,3.11,0,0,0,.41,1.17v.2c.45,1.85,2.06,2.45,3.73,1.51a19.51,19.51,0,0,0,1.87-1.33c.71-.53,1.4-1.1,2.15-1.59a5.11,5.11,0,0,1,4.93-.47,8.77,8.77,0,0,1,2.85,1.78,9.12,9.12,0,0,1,1,1.93,10.82,10.82,0,0,1,0,7.32A8.51,8.51,0,0,1,50,67.27c-2.3,2.81-5.16,3.13-8.07,1-.87-.65-1.67-1.38-2.56-2-2.42-1.7-4.75-.77-5,2.14a45.22,45.22,0,0,0-.18,5.49h0l.07.5A62.64,62.64,0,0,0,35.48,85c.28,1.4.46,1.5,1.91,1.21A71.7,71.7,0,0,1,53,85a6.25,6.25,0,0,1,2.13.44c1.29.54,1.46,1.54.64,2.68-1,1.43-2.1,2.87-3,4.39a5.45,5.45,0,0,0,.14,5.9A9.49,9.49,0,0,0,62.81,103c6.33-1,10.21-7.93,5.36-13.5a22.5,22.5,0,0,1-1.69-2.19c-.61-.91-.49-1.42.56-1.73a9.66,9.66,0,0,1,3-.46,76,76,0,0,1,14.59,1.41c2.07.45,2.18.38,2.64-1.56l.39.31c.46-3.36.88-6.73,1.11-10.11a31.65,31.65,0,0,0-.25-6.38,3.09,3.09,0,0,0-.41-1.17v-.2C87.66,65.57,86,65,84.38,65.91a19.91,19.91,0,0,0-1.87,1.33c-.72.53-1.4,1.1-2.15,1.59a5.11,5.11,0,0,1-4.93.47,8.8,8.8,0,0,1-2.85-1.78,9.16,9.16,0,0,1-1-1.93,10.82,10.82,0,0,1,0-7.32A8.51,8.51,0,0,1,73,55.7" transform="translate(0 0)"/></g></g></svg>