<svg id="Capa_1" data-name="Capa 1" xmlns="http://www.w3.org/2000/svg" width="122.96" height="122.96" viewBox="0 0 122.96 122.96"><defs><style>.cls-1{fill:#ccc;}.cls-2{fill:#fff;}.cls-3{fill:#3c3c3c;}</style></defs><title>n-organisation</title><g id="Page-1"><g id="Group"><path id="Fill-23" class="cls-1" d="M61.46,0A61.48,61.48,0,1,0,123,61.48,61.48,61.48,0,0,0,61.46,0h0" transform="translate(0 0)"/><path id="Fill-24" class="cls-2" d="M47.37,68.25a7.92,7.92,0,1,0-7.92,7.92h0a7.92,7.92,0,0,0,7.92-7.92" transform="translate(0 0)"/><path id="Fill-26" class="cls-2" d="M71.3,22.09A7.92,7.92,0,1,0,63.38,30h0a7.92,7.92,0,0,0,7.92-7.92" transform="translate(0 0)"/><path id="Fill-28" class="cls-2" d="M102.08,63.12A7.92,7.92,0,1,0,94.16,71h0a7.91,7.91,0,0,0,7.92-7.9s0,0,0,0" transform="translate(0 0)"/><path id="Fill-30" class="cls-2" d="M76.46,97.32a7.92,7.92,0,1,0-7.92,7.92h0a7.92,7.92,0,0,0,7.92-7.92" transform="translate(0 0)"/><path class="cls-3" d="M94.16,52.11a11,11,0,0,0-10.83,9.07l-34.4,1.48a11.06,11.06,0,0,0-2.47-2.93L60.17,32.62A11,11,0,1,0,55,29.18L40.71,57.31a11,11,0,0,0-1.26,22,11,11,0,0,0,4.83-1.13l14.81,13.5a11.05,11.05,0,1,0,4.59-4.21L48.87,73.94a10.94,10.94,0,0,0,1.59-5.14L84,67.36A11,11,0,1,0,94.16,52.11ZM63.39,17.27a4.82,4.82,0,1,1-4.82,4.82h0A4.82,4.82,0,0,1,63.39,17.27Zm-28.75,51a4.82,4.82,0,1,1,4.84,4.8h0a4.82,4.82,0,0,1-4.83-4.81h0Zm38.7,29.07a4.82,4.82,0,1,1-4.82-4.82h0a4.82,4.82,0,0,1,4.81,4.8Zm20.82-29.4A4.82,4.82,0,1,1,99,63.12h0A4.82,4.82,0,0,1,94.16,67.94Z" transform="translate(0 0)"/></g></g></svg>