<?xml version="1.0" encoding="UTF-8" standalone="no"?>
<svg width="124px" height="124px" viewBox="0 0 124 124" version="1.1" xmlns="http://www.w3.org/2000/svg" xmlns:xlink="http://www.w3.org/1999/xlink" xmlns:sketch="http://www.bohemiancoding.com/sketch/ns">
    <!-- Generator: Sketch 3.3.2 (12043) - http://www.bohemiancoding.com/sketch -->
    <title>Group</title>
    <desc>Created with Sketch.</desc>
    <defs></defs>
    <g id="Page-1" stroke="none" stroke-width="1" fill="none" fill-rule="evenodd" sketch:type="MSPage">
        <g id="Group" sketch:type="MSLayerGroup" transform="translate(0.264745, 0.000000)">
            <path d="M61.7499333,0.436066667 C27.7966667,0.436066667 0.270733333,27.9640667 0.270733333,61.9194 C0.270733333,95.8768 27.7966667,123.3986 61.7499333,123.3986 C95.7052667,123.3986 123.2312,95.8768 123.2312,61.9194 C123.2312,27.9640667 95.7052667,0.436066667 61.7499333,0.436066667" id="Fill-23" fill="#A9D6F5" sketch:type="MSShapeGroup"></path>
            <path d="M47.6428667,68.6918667 C47.6428667,64.3208667 44.0985333,60.7765333 39.7275333,60.7765333 C35.3544667,60.7765333 31.8101333,64.3208667 31.8101333,68.6918667 C31.8101333,73.0649333 35.3544667,76.6072 39.7275333,76.6072 C44.0985333,76.6072 47.6428667,73.0649333 47.6428667,68.6918667" id="Fill-24" fill="#A9D6F5" sketch:type="MSShapeGroup"></path>
            <path d="M47.6428667,68.6918667 L50.7428667,68.6918667 C50.7408,62.6076 45.8118,57.6786 39.7275333,57.6765333 C33.6412,57.6786 28.7122,62.6076 28.7101333,68.6918667 C28.7122,74.7761333 33.6412,79.7072 39.7275333,79.7072 C45.8118,79.7051333 50.7408,74.7761333 50.7428667,68.6918667 L44.5428667,68.6918667 C44.5366667,71.3516667 42.3852667,73.5030667 39.7275333,73.5072 C37.0677333,73.5030667 34.9142667,71.3516667 34.9101333,68.6918667 C34.9142667,66.0341333 37.0677333,63.8806667 39.7275333,63.8765333 C42.3852667,63.8806667 44.5366667,66.0341333 44.5428667,68.6918667 L47.6428667,68.6918667" id="Fill-25" fill="#1685C6" sketch:type="MSShapeGroup"></path>
            <path d="M71.579,22.5287333 C71.579,18.1577333 68.0346667,14.6134 63.6636667,14.6134 C59.2906,14.6134 55.7483333,18.1577333 55.7483333,22.5287333 C55.7483333,26.9018 59.2906,30.4440667 63.6636667,30.4440667 C68.0346667,30.4440667 71.579,26.9018 71.579,22.5287333" id="Fill-26" fill="#A9D6F5" sketch:type="MSShapeGroup"></path>
            <path d="M71.579,22.5287333 L74.679,22.5287333 C74.6769333,16.4424 69.7479333,11.5154667 63.6636667,11.5134 C57.5773333,11.5154667 52.6483333,16.4444667 52.6483333,22.5287333 C52.6483333,28.613 57.5773333,33.5440667 63.6636667,33.5440667 C69.7479333,33.542 74.6769333,28.613 74.679,22.5287333 L68.479,22.5287333 C68.4728,25.1885333 66.3214,27.3399333 63.6636667,27.3440667 C61.0038667,27.3399333 58.8524667,25.1885333 58.8483333,22.5287333 C58.8524667,19.8689333 61.0038667,17.7175333 63.6636667,17.7134 C66.3214,17.7175333 68.4728,19.871 68.479,22.5287333 L71.579,22.5287333" id="Fill-27" fill="#1685C6" sketch:type="MSShapeGroup"></path>
            <path d="M102.353733,63.5624 C102.353733,59.1914 98.8114667,55.6470667 94.4384,55.6470667 C90.0674,55.6470667 86.5230667,59.1914 86.5230667,63.5624 C86.5230667,67.9354667 90.0674,71.4777333 94.4384,71.4777333 C98.8114667,71.4777333 102.353733,67.9354667 102.353733,63.5624" id="Fill-28" fill="#A9D6F5" sketch:type="MSShapeGroup"></path>
            <path d="M102.353733,63.5624 L105.453733,63.5624 C105.451667,57.4781333 100.524733,52.5491333 94.4384,52.5470667 C88.3520667,52.5491333 83.4251333,57.4781333 83.4230667,63.5624 C83.4251333,69.6466667 88.3520667,74.5756667 94.4384,74.5777333 C100.524733,74.5777333 105.453733,69.6466667 105.453733,63.5624 L99.2537333,63.5624 C99.2496,66.2222 97.0982,68.3736 94.4384,68.3777333 C91.7806667,68.3736 89.6272,66.2222 89.6230667,63.5624 C89.6272,60.9046667 91.7806667,58.7512 94.4384,58.7470667 C97.0982,58.7512 99.2496,60.9046667 99.2537333,63.5624 L102.353733,63.5624" id="Fill-29" fill="#1685C6" sketch:type="MSShapeGroup"></path>
            <path d="M76.7084667,97.7574667 C76.7084667,93.3864667 73.1641333,89.8421333 68.7931333,89.8421333 C64.4200667,89.8421333 60.8757333,93.3864667 60.8757333,97.7574667 C60.8757333,102.128467 64.4200667,105.6728 68.7931333,105.6728 C73.1641333,105.6728 76.7084667,102.128467 76.7084667,97.7574667" id="Fill-30" fill="#A9D6F5" sketch:type="MSShapeGroup"></path>
            <path d="M76.7084667,97.7574667 L79.8084667,97.7574667 C79.8064,91.6711333 74.8774,86.7442 68.7931333,86.7421333 C62.7068,86.7442 57.7778,91.6711333 57.7757333,97.7574667 C57.7778,103.841733 62.7068,108.770733 68.7931333,108.7728 C74.8774,108.770733 79.8064,103.841733 79.8084667,97.7574667 L73.6084667,97.7574667 C73.6022667,100.417267 71.4508667,102.568667 68.7931333,102.5728 C66.1333333,102.568667 63.9798667,100.417267 63.9757333,97.7574667 C63.9798667,95.0997333 66.1333333,92.9462667 68.7931333,92.9421333 C71.4508667,92.9462667 73.6022667,95.0997333 73.6084667,97.7574667 L76.7084667,97.7574667" id="Fill-31" fill="#1685C6" sketch:type="MSShapeGroup"></path>
            <path d="M55.9901333,28.1376667 L39.7296,60.2309333 L45.26,63.0333333 L61.5205333,30.9400667" id="Fill-32" fill="#1685C6" sketch:type="MSShapeGroup"></path>
            <path d="M46.0494667,69.4358667 L85.8452,67.7246667 L85.5786,61.5288 L45.7849333,63.2420667" id="Fill-33" fill="#1685C6" sketch:type="MSShapeGroup"></path>
            <path d="M42.5444,76.7477333 L61.7995333,94.2978667 L65.9762667,89.7160667 L46.7211333,72.1659333" id="Fill-34" fill="#1685C6" sketch:type="MSShapeGroup"></path>
        </g>
    </g>
</svg>