<?xml version="1.0" encoding="UTF-8" standalone="no"?>
<svg width="122px" height="124px" viewBox="0 0 122 124" version="1.1" xmlns="http://www.w3.org/2000/svg" xmlns:xlink="http://www.w3.org/1999/xlink" xmlns:sketch="http://www.bohemiancoding.com/sketch/ns">
    <!-- Generator: Sketch 3.3.2 (12043) - http://www.bohemiancoding.com/sketch -->
    <title>Group</title>
    <desc>Created with Sketch.</desc>
    <defs></defs>
    <g id="Page-1" stroke="none" stroke-width="1" fill="none" fill-rule="evenodd" sketch:type="MSPage">
        <g id="Group" sketch:type="MSLayerGroup" transform="translate(-1.000000, 0.000000)">
            <path d="M61.9166557,0.436066667 C28.52,0.436066667 1.44531148,27.9640667 1.44531148,61.9194 C1.44531148,95.8768 28.52,123.3986 61.9166557,123.3986 C95.3153443,123.3986 122.390033,95.8768 122.390033,61.9194 C122.390033,27.9640667 95.3153443,0.436066667 61.9166557,0.436066667" id="Fill-23" fill="#CACACA" sketch:type="MSShapeGroup"></path>
            <path d="M48.0408525,68.6918667 C48.0408525,64.3208667 44.554623,60.7765333 40.2552787,60.7765333 C35.9539016,60.7765333 32.4676721,64.3208667 32.4676721,68.6918667 C32.4676721,73.0649333 35.9539016,76.6072 40.2552787,76.6072 C44.554623,76.6072 48.0408525,73.0649333 48.0408525,68.6918667" id="Fill-24" fill="#BDBDBD" sketch:type="MSShapeGroup"></path>
            <path d="M48.0408525,68.6918667 L51.0900328,68.6918667 C51.088,62.6076 46.2398033,57.6786 40.2552787,57.6765333 C34.2687213,57.6786 29.4205246,62.6076 29.4184918,68.6918667 C29.4205246,74.7761333 34.2687213,79.7072 40.2552787,79.7072 C46.2398033,79.7051333 51.088,74.7761333 51.0900328,68.6918667 L44.9916721,68.6918667 C44.9855738,71.3516667 42.8694426,73.5030667 40.2552787,73.5072 C37.639082,73.5030667 35.520918,71.3516667 35.5168525,68.6918667 C35.520918,66.0341333 37.639082,63.8806667 40.2552787,63.8765333 C42.8694426,63.8806667 44.9855738,66.0341333 44.9916721,68.6918667 L48.0408525,68.6918667" id="Fill-25" fill="#6C6C6C" sketch:type="MSShapeGroup"></path>
            <path d="M71.5845902,22.5287333 C71.5845902,18.1577333 68.0983607,14.6134 63.7990164,14.6134 C59.4976393,14.6134 56.0134426,18.1577333 56.0134426,22.5287333 C56.0134426,26.9018 59.4976393,30.4440667 63.7990164,30.4440667 C68.0983607,30.4440667 71.5845902,26.9018 71.5845902,22.5287333" id="Fill-26" fill="#BDBDBD" sketch:type="MSShapeGroup"></path>
            <path d="M71.5845902,22.5287333 L74.6337705,22.5287333 C74.6317377,16.4424 69.783541,11.5154667 63.7990164,11.5134 C57.812459,11.5154667 52.9642623,16.4444667 52.9642623,22.5287333 C52.9642623,28.613 57.812459,33.5440667 63.7990164,33.5440667 C69.783541,33.542 74.6317377,28.613 74.6337705,22.5287333 L68.5354098,22.5287333 C68.5293115,25.1885333 66.4131803,27.3399333 63.7990164,27.3440667 C61.1828197,27.3399333 59.0666885,25.1885333 59.062623,22.5287333 C59.0666885,19.8689333 61.1828197,17.7175333 63.7990164,17.7134 C66.4131803,17.7175333 68.5293115,19.871 68.5354098,22.5287333 L71.5845902,22.5287333" id="Fill-27" fill="#6C6C6C" sketch:type="MSShapeGroup"></path>
            <path d="M101.85482,63.5624 C101.85482,59.1914 98.370623,55.6470667 94.0692459,55.6470667 C89.7699016,55.6470667 86.2836721,59.1914 86.2836721,63.5624 C86.2836721,67.9354667 89.7699016,71.4777333 94.0692459,71.4777333 C98.370623,71.4777333 101.85482,67.9354667 101.85482,63.5624" id="Fill-28" fill="#BDBDBD" sketch:type="MSShapeGroup"></path>
            <path d="M101.85482,63.5624 L104.904,63.5624 C104.901967,57.4781333 100.055803,52.5491333 94.0692459,52.5470667 C88.0826885,52.5491333 83.2365246,57.4781333 83.2344918,63.5624 C83.2365246,69.6466667 88.0826885,74.5756667 94.0692459,74.5777333 C100.055803,74.5777333 104.904,69.6466667 104.904,63.5624 L98.8056393,63.5624 C98.8015738,66.2222 96.6854426,68.3736 94.0692459,68.3777333 C91.455082,68.3736 89.336918,66.2222 89.3328525,63.5624 C89.336918,60.9046667 91.455082,58.7512 94.0692459,58.7470667 C96.6854426,58.7512 98.8015738,60.9046667 98.8056393,63.5624 L101.85482,63.5624" id="Fill-29" fill="#6C6C6C" sketch:type="MSShapeGroup"></path>
            <path d="M76.6299672,97.7574667 C76.6299672,93.3864667 73.1437377,89.8421333 68.8443934,89.8421333 C64.5430164,89.8421333 61.0567869,93.3864667 61.0567869,97.7574667 C61.0567869,102.128467 64.5430164,105.6728 68.8443934,105.6728 C73.1437377,105.6728 76.6299672,102.128467 76.6299672,97.7574667" id="Fill-30" fill="#BDBDBD" sketch:type="MSShapeGroup"></path>
            <path d="M76.6299672,97.7574667 L79.6791475,97.7574667 C79.6771148,91.6711333 74.828918,86.7442 68.8443934,86.7421333 C62.8578361,86.7442 58.0096393,91.6711333 58.0076066,97.7574667 C58.0096393,103.841733 62.8578361,108.770733 68.8443934,108.7728 C74.828918,108.770733 79.6771148,103.841733 79.6791475,97.7574667 L73.5807869,97.7574667 C73.5746885,100.417267 71.4585574,102.568667 68.8443934,102.5728 C66.2281967,102.568667 64.1100328,100.417267 64.1059672,97.7574667 C64.1100328,95.0997333 66.2281967,92.9462667 68.8443934,92.9421333 C71.4585574,92.9462667 73.5746885,95.0997333 73.5807869,97.7574667 L76.6299672,97.7574667" id="Fill-31" fill="#6C6C6C" sketch:type="MSShapeGroup"></path>
            <path d="M56.2512787,28.1376667 L40.2573115,60.2309333 L45.6970492,63.0333333 L61.6910164,30.9400667" id="Fill-32" fill="#6C6C6C" sketch:type="MSShapeGroup"></path>
            <path d="M46.4735738,69.4358667 L85.616918,67.7246667 L85.3546885,61.5288 L46.213377,63.2420667" id="Fill-33" fill="#6C6C6C" sketch:type="MSShapeGroup"></path>
            <path d="M43.0259672,76.7477333 L61.9654426,94.2978667 L66.0737049,89.7160667 L47.1342295,72.1659333" id="Fill-34" fill="#6C6C6C" sketch:type="MSShapeGroup"></path>
        </g>
    </g>
</svg>