<svg id="Capa_1" data-name="Capa 1" xmlns="http://www.w3.org/2000/svg" width="120.94" height="122.96" viewBox="0 0 120.94 122.96"><defs><style>.cls-1{fill:#ccc;}.cls-2{fill:#bdbdbd;}.cls-3{fill:#6c6c6c;}</style></defs><title>n-organisation-grey</title><g id="Page-1"><g id="Group"><path id="Fill-23" class="cls-1" d="M60.92.44C27.52.44.45,28,.45,61.92S27.52,123.4,60.92,123.4s60.47-27.52,60.47-61.48S94.32.44,60.92.44" transform="translate(-0.45 -0.44)"/><path id="Fill-24" class="cls-2" d="M47,68.69a7.79,7.79,0,1,0-7.79,7.92A7.85,7.85,0,0,0,47,68.69" transform="translate(-0.45 -0.44)"/><path id="Fill-26" class="cls-2" d="M70.58,22.53a7.79,7.79,0,1,0-7.79,7.92,7.85,7.85,0,0,0,7.79-7.92" transform="translate(-0.45 -0.44)"/><path id="Fill-28" class="cls-2" d="M100.85,63.56a7.79,7.79,0,1,0-7.79,7.92,7.85,7.85,0,0,0,7.79-7.92" transform="translate(-0.45 -0.44)"/><path id="Fill-30" class="cls-2" d="M75.63,97.76a7.79,7.79,0,1,0-7.79,7.92,7.85,7.85,0,0,0,7.79-7.92" transform="translate(-0.45 -0.44)"/><path class="cls-3" d="M93.07,52.55a10.88,10.88,0,0,0-10.65,9.07L48.57,63.09a11,11,0,0,0-2.45-2.92L59.63,33.06a10.67,10.67,0,0,0,3.17.48A11,11,0,1,0,52,22.53a11.08,11.08,0,0,0,2.55,7.09l-14,28.13a10.74,10.74,0,0,0-1.24-.08,11,11,0,0,0,0,22A10.63,10.63,0,0,0,44,78.58l14.57,13.5A11.09,11.09,0,0,0,57,97.76a10.84,10.84,0,1,0,10.84-11,10.64,10.64,0,0,0-4.76,1.13L48.52,74.38a11.07,11.07,0,0,0,1.54-5.14l33-1.44a10.88,10.88,0,1,0,10-15.25ZM62.8,17.71a4.82,4.82,0,1,1-4.74,4.82A4.79,4.79,0,0,1,62.8,17.71Zm-28.28,51a4.74,4.74,0,1,1,4.74,4.82A4.78,4.78,0,0,1,34.52,68.69ZM72.58,97.76a4.74,4.74,0,1,1-4.74-4.82A4.78,4.78,0,0,1,72.58,97.76ZM93.07,68.38a4.82,4.82,0,1,1,4.74-4.82A4.78,4.78,0,0,1,93.07,68.38Z" transform="translate(-0.45 -0.44)"/></g></g></svg>