<?xml version="1.0" encoding="UTF-8" standalone="no"?>
<svg width="124px" height="124px" viewBox="0 0 124 124" version="1.1" xmlns="http://www.w3.org/2000/svg" xmlns:xlink="http://www.w3.org/1999/xlink" xmlns:sketch="http://www.bohemiancoding.com/sketch/ns">
    <!-- Generator: Sketch 3.3.2 (12043) - http://www.bohemiancoding.com/sketch -->
    <title>Group</title>
    <desc>Created with Sketch.</desc>
    <defs></defs>
    <g id="Page-1" stroke="none" stroke-width="1" fill="none" fill-rule="evenodd" sketch:type="MSPage">
        <g id="Group" sketch:type="MSLayerGroup">
            <path d="M123.233267,62.2542 C123.233267,28.2968 95.7052667,0.770866667 61.752,0.770866667 C27.7966667,0.770866667 0.270733333,28.2968 0.270733333,62.2542 C0.270733333,96.2116 27.7966667,123.7334 61.752,123.7334 C95.7052667,123.7334 123.233267,96.2116 123.233267,62.2542" id="Fill-1" fill="#A9D6F6" sketch:type="MSShapeGroup"></path>
            <path d="M49.5958667,61.1092667 C52.3197333,46.8968 51.8382,33.1142 45.3798667,19.4018667 C41.7797333,26.3727333 40.4984,33.2444 39.5353333,40.1429333 C38.5392,47.2708667 39.711,54.3306 41.4842,61.4440667 C32.8806667,62.6716667 25.3848667,65.2033333 21.173,73.1827333 C22.5556,72.8582667 23.6550667,72.0646667 24.8227333,71.3971333 C31.2624667,67.7143333 37.7807333,67.6812667 44.1274667,71.4529333 C46.8782,73.0897333 49.4222667,75.1460667 51.8278667,77.2768 C54.9196,80.0130667 57.6972,83.1027333 60.7496667,85.8886 C70.8804667,95.1183333 82.77,99.0408667 96.4141333,97.3276 C98.1191333,97.1106 99.7642,96.4327333 101.584933,95.9264 C101.051733,87.1968 97.9269333,80.2528 91.3549333,75.0386 C83.1812667,68.5534 73.7428,64.8272 63.5892667,62.9114 C59.0570667,62.0558 54.4298,61.7168667 49.5958667,61.1092667 M79.8828667,35.0093333 C67.3692,34.6807333 59.3836,42.9680667 61.2932,53.9028 C72.7074,54.3182 80.7715333,46.2850667 79.8828667,35.0093333" id="Fill-2" fill="#F8F9F9" sketch:type="MSShapeGroup"></path>
            <path d="M49.5958667,61.1092667 C54.4298,61.7168667 59.0570667,62.0558 63.5892667,62.9114 C73.7428,64.8272 83.1812667,68.5534 91.3549333,75.0386 C97.9269333,80.2528 101.051733,87.1968 101.584933,95.9264 C99.7642,96.4327333 98.1191333,97.1106 96.4141333,97.3276 C82.77,99.0408667 70.8804667,95.1183333 60.7496667,85.8886 C57.6972,83.1027333 54.9196,80.0130667 51.8278667,77.2768 C49.4222667,75.1460667 46.8782,73.0897333 44.1274667,71.4529333 C37.7807333,67.6812667 31.2624667,67.7143333 24.8227333,71.3971333 C23.6550667,72.0646667 22.5556,72.8582667 21.173,73.1827333 C25.3848667,65.2033333 32.8806667,62.6716667 41.4842,61.4440667 C39.711,54.3306 38.5392,47.2708667 39.5353333,40.1429333 C40.4984,33.2444 41.7797333,26.3727333 45.3798667,19.4018667 C51.8382,33.1142 52.3197333,46.8968 49.5958667,61.1092667" id="Fill-3" fill="#1685C6" sketch:type="MSShapeGroup"></path>
            <path d="M62.1488,53.9193333 L62.1322667,53.9193333 L62.1488,53.9193333 M61.2932,53.9028 C61.5763333,53.9131333 61.8532667,53.9193333 62.1322667,53.9193333 C61.8553333,53.9193333 61.5742667,53.9131333 61.2932,53.9028 M61.2601333,53.7023333 C61.2704667,53.7705333 61.2828667,53.8366667 61.2932,53.9028 C61.2828667,53.8366667 61.2704667,53.7705333 61.2601333,53.7023333 M79.1698667,34.999 C79.4054667,34.999 79.6431333,35.0031333 79.8828667,35.0093333 C79.887,35.0589333 79.8911333,35.1126667 79.8932,35.1643333 C79.8911333,35.1126667 79.887,35.0589333 79.8828667,35.0093333 C79.6431333,35.0031333 79.4054667,34.999 79.1698667,34.999 L79.1512667,34.999 L79.1698667,34.999" id="Fill-4" fill="#429DD4" sketch:type="MSShapeGroup"></path>
            <path d="M79.1698667,34.999 L79.1512667,34.999 C67.1356667,35.0072667 59.5179333,43.0796667 61.2601333,53.7023333 C61.2704667,53.7705333 61.2828667,53.8366667 61.2932,53.9028 C61.5742667,53.9131333 61.8553333,53.9193333 62.1322667,53.9193333 L62.1488,53.9193333 C73.0566667,53.9110667 80.6764667,46.0763333 79.8932,35.1643333 C79.8911333,35.1126667 79.887,35.0589333 79.8828667,35.0093333 C79.6431333,35.0031333 79.4054667,34.999 79.1698667,34.999" id="Fill-5" fill="#59A7D5" sketch:type="MSShapeGroup"></path>
        </g>
    </g>
</svg>