<svg id="Capa_1" data-name="Capa 1" xmlns="http://www.w3.org/2000/svg" width="122.96" height="122.96" viewBox="0 0 122.96 122.96"><defs><style>.cls-1{fill:#ccc;}.cls-2{fill:#f8f9f9;}.cls-3{fill:#3c3c3c;}.cls-4{fill:#429dd4;}.cls-5{fill:#a7a7a7;}</style></defs><title>n-registry</title><g id="Page-1"><g id="Group"><path id="Fill-1" class="cls-1" d="M123,61.48A61.48,61.48,0,1,0,61.48,123h0A61.48,61.48,0,0,0,123,61.48h0" transform="translate(0 0)"/><path id="Fill-2" class="cls-2" d="M49.33,60.34c2.72-14.21,2.24-28-4.22-41.71-3.6,7-4.88,13.84-5.84,20.74-1,7.13.18,14.19,2,21.3-8.6,1.23-16.1,3.76-20.31,11.74a13.74,13.74,0,0,0,3.65-1.79c6.44-3.68,13-3.72,19.3.06a51.71,51.71,0,0,1,7.7,5.82c3.09,2.74,5.87,5.83,8.92,8.61,10.13,9.23,22,13.15,35.66,11.44a38.44,38.44,0,0,0,5.17-1.4c-.53-8.72-3.65-15.67-10.23-20.92C82.91,67.74,73.47,64,63.31,62.1c-4.53-.86-9.16-1.19-14-1.8m30.3-26.07c-12.51-.33-20.5,8-18.59,18.89,11.41.42,19.48-7.62,18.59-18.89" transform="translate(0 0)"/><path id="Fill-3" class="cls-3" d="M49.33,60.34c4.83.61,9.46,1,14,1.8,10.14,1.92,19.58,5.64,27.75,12.09,6.57,5.21,9.7,12.16,10.23,20.89a38.44,38.44,0,0,1-5.17,1.4c-13.64,1.71-25.53-2.17-35.66-11.4-3-2.79-5.83-5.89-8.92-8.61a51.71,51.71,0,0,0-7.7-5.82C37.51,66.92,31,67,24.56,70.63a13.74,13.74,0,0,1-3.65,1.79c4.21-8,11.71-10.51,20.31-11.74-1.77-7.11-2.94-14.17-2-21.3,1-6.9,2.24-13.77,5.84-20.74C51.57,32.35,52,46.13,49.33,60.35" transform="translate(0 0)"/><path id="Fill-4" class="cls-4" d="M61.88,53.15h0m-.86,0h0m0-.2v0M78.9,34.23h.71v0H78.9" transform="translate(0 0)"/><path id="Fill-5" class="cls-5" d="M78.9,34.23h0c-12,0-19.63,8.08-17.89,18.7v.2h.84c10.91,0,18.53-7.84,17.74-18.76v-.15h-.71" transform="translate(0 0)"/></g></g></svg>