<svg id="Capa_1" data-name="Capa 1" xmlns="http://www.w3.org/2000/svg" width="122.96" height="121" viewBox="0 0 122.96 121"><defs><style>.cls-1{fill:#ccc;}.cls-2{fill:#3c3c3c;}.cls-3{fill:#a7a7a7;}</style></defs><title>n-settings</title><g id="Page-1"><g id="Group"><path id="Fill-39" class="cls-1" d="M123,60.47C123,27.08,95.46,0,61.46,0S0,27.08,0,60.47,27.52,121,61.46,121,123,93.87,123,60.47" transform="translate(0 0.02)"/><path id="Fill-40" class="cls-2" d="M45.65,37.73a8.46,8.46,0,1,1-8.6-8.32h.14a8.39,8.39,0,0,1,8.46,8.32h0" transform="translate(0 0.02)"/><path id="Fill-41" class="cls-2" d="M45.65,62.12a8.46,8.46,0,1,1-8.6-8.32h.14a8.39,8.39,0,0,1,8.46,8.32h0" transform="translate(0 0.02)"/><path id="Fill-42" class="cls-3" d="M37.19,78.19a8.33,8.33,0,1,0,8.46,8.32,8.33,8.33,0,0,0-8.46-8.32h0" transform="translate(0 0.02)"/><path id="Fill-43" class="cls-3" d="M62,29.41a8.33,8.33,0,1,0,8.47,8.32A8.33,8.33,0,0,0,62,29.41" transform="translate(0 0.02)"/><path id="Fill-44" class="cls-3" d="M62,53.8a8.33,8.33,0,1,0,8.47,8.32A8.33,8.33,0,0,0,62,53.8" transform="translate(0 0.02)"/><path id="Fill-45" class="cls-2" d="M70.46,86.52a8.46,8.46,0,1,1-8.6-8.32H62a8.39,8.39,0,0,1,8.46,8.32h0" transform="translate(0 0.02)"/><path id="Fill-46" class="cls-2" d="M95.25,37.73a8.46,8.46,0,1,1-8.6-8.32h.14a8.39,8.39,0,0,1,8.46,8.32h0" transform="translate(0 0.02)"/><path id="Fill-47" class="cls-3" d="M86.79,53.8a8.33,8.33,0,1,0,8.46,8.32,8.33,8.33,0,0,0-8.46-8.32" transform="translate(0 0.02)"/><path id="Fill-48" class="cls-2" d="M95.25,86.52a8.46,8.46,0,1,1-8.6-8.32h.14a8.39,8.39,0,0,1,8.46,8.32h0" transform="translate(0 0.02)"/></g></g></svg>