<?xml version="1.0" encoding="UTF-8" standalone="no"?>
<svg width="124px" height="121px" viewBox="0 0 124 121" version="1.1" xmlns="http://www.w3.org/2000/svg" xmlns:xlink="http://www.w3.org/1999/xlink" xmlns:sketch="http://www.bohemiancoding.com/sketch/ns">
    <!-- Generator: Sketch 3.3.2 (12043) - http://www.bohemiancoding.com/sketch -->
    <title>Group</title>
    <desc>Created with Sketch.</desc>
    <defs></defs>
    <g id="Page-1" stroke="none" stroke-width="1" fill="none" fill-rule="evenodd" sketch:type="MSPage">
        <g id="Group" sketch:type="MSLayerGroup" transform="translate(0.264745, -1.066667)">
            <path d="M123.233267,61.560918 C123.233267,28.1622295 95.7052667,1.0855082 61.752,1.0855082 C27.7966667,1.0855082 0.270733333,28.1622295 0.270733333,61.560918 C0.270733333,94.9616393 27.7966667,122.034295 61.752,122.034295 C95.7052667,122.034295 123.233267,94.9616393 123.233267,61.560918" id="Fill-39" fill="#A9D6F6" sketch:type="MSShapeGroup"></path>
            <path d="M45.9275333,38.8160656 C45.9275333,43.4121967 42.1393333,47.1403279 37.4645333,47.1403279 C32.7918,47.1403279 29.0015333,43.4121967 29.0015333,38.8160656 C29.0015333,34.2199344 32.7918,30.4918033 37.4645333,30.4918033 C42.1393333,30.4918033 45.9275333,34.2199344 45.9275333,38.8160656" id="Fill-40" fill="#1685C6" sketch:type="MSShapeGroup"></path>
            <path d="M45.9275333,63.2095082 C45.9275333,67.8056393 42.1393333,71.5337705 37.4645333,71.5337705 C32.7918,71.5337705 29.0015333,67.8056393 29.0015333,63.2095082 C29.0015333,58.613377 32.7918,54.8852459 37.4645333,54.8852459 C42.1393333,54.8852459 45.9275333,58.613377 45.9275333,63.2095082" id="Fill-41" fill="#1685C6" sketch:type="MSShapeGroup"></path>
            <path d="M37.4645333,79.2786885 C32.7918,79.2786885 29.0015333,83.0047869 29.0015333,87.6029508 C29.0015333,92.2011148 32.7918,95.9272131 37.4645333,95.9272131 C42.1393333,95.9272131 45.9275333,92.2011148 45.9275333,87.6029508 C45.9275333,83.0047869 42.1393333,79.2786885 37.4645333,79.2786885" id="Fill-42" fill="#5FADDD" sketch:type="MSShapeGroup"></path>
            <path d="M62.2645333,30.4918033 C57.5918,30.4918033 53.8015333,34.2199344 53.8015333,38.8160656 C53.8015333,43.4121967 57.5918,47.1403279 62.2645333,47.1403279 C66.9393333,47.1403279 70.7275333,43.4121967 70.7275333,38.8160656 C70.7275333,34.2199344 66.9393333,30.4918033 62.2645333,30.4918033" id="Fill-43" fill="#5FADDD" sketch:type="MSShapeGroup"></path>
            <path d="M62.2645333,54.8852459 C57.5918,54.8852459 53.8015333,58.613377 53.8015333,63.2095082 C53.8015333,67.8056393 57.5918,71.5337705 62.2645333,71.5337705 C66.9393333,71.5337705 70.7275333,67.8056393 70.7275333,63.2095082 C70.7275333,58.613377 66.9393333,54.8852459 62.2645333,54.8852459" id="Fill-44" fill="#5FADDD" sketch:type="MSShapeGroup"></path>
            <path d="M70.7275333,87.6029508 C70.7275333,92.199082 66.9393333,95.9272131 62.2645333,95.9272131 C57.5918,95.9272131 53.8015333,92.199082 53.8015333,87.6029508 C53.8015333,83.0068197 57.5918,79.2786885 62.2645333,79.2786885 C66.9393333,79.2786885 70.7275333,83.0068197 70.7275333,87.6029508" id="Fill-45" fill="#1685C6" sketch:type="MSShapeGroup"></path>
            <path d="M95.5275333,38.8160656 C95.5275333,43.4121967 91.7393333,47.1403279 87.0645333,47.1403279 C82.3918,47.1403279 78.6015333,43.4121967 78.6015333,38.8160656 C78.6015333,34.2199344 82.3918,30.4918033 87.0645333,30.4918033 C91.7393333,30.4918033 95.5275333,34.2199344 95.5275333,38.8160656" id="Fill-46" fill="#1685C6" sketch:type="MSShapeGroup"></path>
            <path d="M87.0645333,54.8852459 C82.3918,54.8852459 78.6015333,58.613377 78.6015333,63.2095082 C78.6015333,67.8056393 82.3918,71.5337705 87.0645333,71.5337705 C91.7393333,71.5337705 95.5275333,67.8056393 95.5275333,63.2095082 C95.5275333,58.613377 91.7393333,54.8852459 87.0645333,54.8852459" id="Fill-47" fill="#5FADDD" sketch:type="MSShapeGroup"></path>
            <path d="M95.5275333,87.6029508 C95.5275333,92.199082 91.7393333,95.9272131 87.0645333,95.9272131 C82.3918,95.9272131 78.6015333,92.199082 78.6015333,87.6029508 C78.6015333,83.0068197 82.3918,79.2786885 87.0645333,79.2786885 C91.7393333,79.2786885 95.5275333,83.0068197 95.5275333,87.6029508" id="Fill-48" fill="#1685C6" sketch:type="MSShapeGroup"></path>
        </g>
    </g>
</svg>