<svg id="Capa_1" data-name="Capa 1" xmlns="http://www.w3.org/2000/svg" width="122.96" height="120.95" viewBox="0 0 122.96 120.95"><defs><style>.cls-1{fill:#ccc;}.cls-2{fill:#3c3c3c;}</style></defs><title>n-users</title><g id="Page-1"><g id="Fill-17-_-Fill-63" data-name="Fill-17- -Fill-63"><path id="Fill-17" class="cls-1" d="M123,60.48C123,27.08,95.44,0,61.48,0S0,27.08,0,60.48,27.53,121,61.48,121,123,93.88,123,60.48"/><path id="Fill-63" class="cls-2" d="M87.38,75.31c-4.12-5.36-9.45-8.06-18.45-8.94A3.51,3.51,0,0,1,66.08,63c0-1.23,4-4.92,4-4.94C74.21,53.8,76.43,47,76.43,41.68a15,15,0,0,0-29.9,0c0,5.29,2.16,12.19,6.35,16.4,0,0,4,3.64,4,4.87a3.53,3.53,0,0,1-3.15,3.47c-8.81.91-14.08,3.64-18.17,8.88a12.51,12.51,0,0,0-1.83,6.18v7a5.65,5.65,0,0,0,5.7,5.6H83.55a5.65,5.65,0,0,0,5.7-5.6h0v-7a12.56,12.56,0,0,0-1.87-6.17"/></g></g></svg>