<?xml version="1.0" encoding="UTF-8" standalone="no"?>
<svg width="124px" height="121px" viewBox="0 0 124 121" version="1.1" xmlns="http://www.w3.org/2000/svg" xmlns:xlink="http://www.w3.org/1999/xlink" xmlns:sketch="http://www.bohemiancoding.com/sketch/ns">
    <!-- Generator: Sketch 3.3.2 (12043) - http://www.bohemiancoding.com/sketch -->
    <title>Fill 17 + Fill 63</title>
    <desc>Created with Sketch.</desc>
    <defs></defs>
    <g id="Page-1" stroke="none" stroke-width="1" fill="none" fill-rule="evenodd" sketch:type="MSPage">
        <g id="Fill-17-+-Fill-63" sketch:type="MSLayerGroup" transform="translate(0.000000, -1.000000)">
            <path d="M123.233267,61.5283934 C123.233267,28.1276721 95.7073333,1.05095082 61.752,1.05095082 C27.7966667,1.05095082 0.270733333,28.1276721 0.270733333,61.5283934 C0.270733333,94.9250492 27.7966667,121.997705 61.752,121.997705 C95.7073333,121.997705 123.233267,94.9250492 123.233267,61.5283934" id="Fill-17" fill="#A9D6F6" sketch:type="MSShapeGroup"></path>
            <path d="M87.6535333,76.3575738 C83.5264,71.0479344 78.2006,68.3016393 69.1982,67.4194098 C67.5758667,67.0982295 66.3503333,65.6854426 66.3503333,64.0002623 C66.3503333,62.7704262 70.3638,59.0849836 70.3369333,59.0585574 C74.4785333,54.846623 76.7043333,47.9920656 76.7043333,42.7271475 C76.7043333,34.5492459 70.0124667,27.9081311 61.7478667,27.9081311 C53.4936,27.9081311 46.7996667,34.5492459 46.7996667,42.7271475 C46.7996667,48.0205246 48.9634667,54.9137049 53.1505333,59.1297049 C53.1505333,59.1297049 57.1495333,62.7704262 57.1495333,64.0002623 C57.1495333,65.7789508 55.7855333,67.264918 54.0185333,67.4742951 C45.2042,68.3890492 39.9342,71.119082 35.8504667,76.3575738 C34.6683333,77.8699672 34.0235333,80.9069508 33.9842667,82.5311475 C33.9966667,82.956 33.9842667,89.5381639 33.9842667,89.5381639 C33.9842667,92.6300328 36.5304,95.1405246 39.68,95.1405246 L83.8219333,95.1405246 C86.9674,95.1405246 89.5197333,92.6300328 89.5197333,89.5381639 C89.5197333,89.5381639 89.5052667,82.956 89.5197333,82.5311475 C89.4742667,80.9069508 88.8377333,77.8699672 87.6535333,76.3575738" id="Fill-63" fill="#1685C6" sketch:type="MSShapeGroup"></path>
        </g>
    </g>
</svg>