<?xml version="1.0" encoding="UTF-8" standalone="no"?>
<svg width="16px" height="16px" viewBox="0 0 16 16" version="1.1" xmlns="http://www.w3.org/2000/svg" xmlns:xlink="http://www.w3.org/1999/xlink" xmlns:sketch="http://www.bohemiancoding.com/sketch/ns">
    <!-- Generator: Sketch 3.3.2 (12043) - http://www.bohemiancoding.com/sketch -->
    <title>Imported Layers</title>
    <desc>Created with Sketch.</desc>
    <defs></defs>
    <g id="Page-1" stroke="none" stroke-width="1" fill="none" fill-rule="evenodd" sketch:type="MSPage">
        <g id="Imported-Layers" sketch:type="MSLayerGroup" transform="translate(0.000000, -1.000000)">
            <path d="M15.318,8.528 C15.318,12.694 11.936,16.071 7.766,16.071 C3.594,16.071 0.212,12.694 0.212,8.528 C0.212,4.362 3.594,0.985 7.766,0.985 C11.936,0.985 15.318,4.362 15.318,8.528" id="Fill-1" fill="#E46E52" sketch:type="MSShapeGroup"></path>
            <path d="M6.609,12.5 C6.609,12.132 6.707,11.855 6.904,11.667 C7.102,11.479 7.388,11.385 7.765,11.385 C8.128,11.385 8.409,11.481 8.608,11.673 C8.808,11.866 8.907,12.141 8.907,12.5 C8.907,12.845 8.806,13.117 8.604,13.316 C8.403,13.514 8.123,13.614 7.765,13.614 C7.397,13.614 7.112,13.517 6.911,13.323 C6.71,13.127 6.609,12.853 6.609,12.5 L6.609,12.5 Z M8.572,10.257 L6.97,10.257 L6.635,3.851 L8.907,3.851 L8.572,10.257 L8.572,10.257 Z" id="Fill-2" fill="#FFFFFF" sketch:type="MSShapeGroup"></path>
        </g>
    </g>
</svg>