<?xml version="1.0" encoding="utf-8"?>
<!-- Generator: Adobe Illustrator 21.0.0, SVG Export Plug-In . SVG Version: 6.00 Build 0)  -->
<svg version="1.1" id="Capa_1" xmlns="http://www.w3.org/2000/svg" xmlns:xlink="http://www.w3.org/1999/xlink" x="0px" y="0px"
	 viewBox="0 0 30 121" style="enable-background:new 0 0 30 121;" xml:space="preserve">
<style type="text/css">
	.st0{fill:#A7A7A7;}
	.st1{fill:#3E3E3E;}
</style>
<g>
	<path class="st0" d="M17.2,1.1c-6.5,0-11.8,5.3-11.8,11.8s5.3,11.8,11.8,11.8S29,19.4,29,12.9S23.7,1.1,17.2,1.1z M22.4,16.7
		L21.1,18l-3.9-3.9l-4,4l-1.3-1.3l4-4L12,8.9l1.3-1.3l3.9,3.9l4-4l1.3,1.3l-4,4L22.4,16.7z"/>
	<path class="st1" d="M21.1,99.8c-4.6-4.6-12-4.6-16.6,0s-4.6,12,0,16.6s12,4.6,16.6,0C25.7,111.9,25.7,104.4,21.1,99.8z M17.9,112
		l-1.3,1.3l-3.9-3.9l-4,4l-1.3-1.3l4-4l-3.9-3.9l1.3-1.3l3.9,3.9l4-4l1.3,1.3l-4,4L17.9,112z"/>
</g>
</svg>
