<?xml version="1.0" encoding="utf-8"?>
<!-- Generator: Adobe Illustrator 17.1.0, SVG Export Plug-In . SVG Version: 6.00 Build 0)  -->
<!DOCTYPE svg PUBLIC "-//W3C//DTD SVG 1.1//EN" "http://www.w3.org/Graphics/SVG/1.1/DTD/svg11.dtd">
<svg version="1.1" id="Capa_1" xmlns="http://www.w3.org/2000/svg" xmlns:xlink="http://www.w3.org/1999/xlink" x="0px" y="0px"
	 viewBox="0 0 612 792" enable-background="new 0 0 612 792" xml:space="preserve">
<g>
	<circle fill-rule="evenodd" clip-rule="evenodd" fill="#1D86C8" cx="306.338" cy="395.555" r="11.757"/>
	<g>
		<path fill="#FFFFFF" d="M307.62,395.555l3.886,3.886l-1.301,1.301l-3.885-3.884l-4.019,4.017l-1.311-1.31l4.018-4.018
			l-3.867-3.867l1.302-1.3l3.867,3.865l4.036-4.036l1.311,1.311L307.62,395.555z"/>
	</g>
</g>
<g>
	<path fill-rule="evenodd" clip-rule="evenodd" fill="#F89D6D" d="M310.162,499.156c-4.59,4.592-12.033,4.592-16.627,0
		c-4.588-4.59-4.588-12.033,0-16.625c4.594-4.592,12.037-4.592,16.627,0C314.754,487.123,314.754,494.566,310.162,499.156z"/>
	<g>
		<path fill="#FFFFFF" d="M303.131,490.844l3.887,3.885l-1.301,1.301l-3.885-3.883l-4.02,4.016l-1.31-1.311l4.017-4.018
			l-3.867-3.867l1.303-1.299l3.867,3.865l4.035-4.037l1.312,1.312L303.131,490.844z"/>
	</g>
</g>
</svg>
