<?xml version="1.0" encoding="UTF-8" standalone="no"?>
<svg width="16px" height="16px" viewBox="0 0 16 16" version="1.1" xmlns="http://www.w3.org/2000/svg" xmlns:xlink="http://www.w3.org/1999/xlink" xmlns:sketch="http://www.bohemiancoding.com/sketch/ns">
    <!-- Generator: Sketch 3.3.2 (12043) - http://www.bohemiancoding.com/sketch -->
    <title>Imported Layers</title>
    <desc>Created with Sketch.</desc>
    <defs></defs>
    <g id="Page-1" stroke="none" stroke-width="1" fill="none" fill-rule="evenodd" sketch:type="MSPage">
        <g id="Imported-Layers" sketch:type="MSLayerGroup" transform="translate(0.000000, -1.000000)">
            <path d="M15.318,8.528 C15.318,12.694 11.936,16.071 7.766,16.071 C3.594,16.071 0.212,12.694 0.212,8.528 C0.212,4.362 3.594,0.985 7.766,0.985 C11.936,0.985 15.318,4.362 15.318,8.528" id="Fill-1" fill="#79BE78" sketch:type="MSShapeGroup"></path>
            <path d="M6.625,12.375 C6.409,12.375 6.202,12.281 6.059,12.117 L3.684,9.388 C3.412,9.075 3.445,8.602 3.758,8.33 C4.07,8.057 4.543,8.09 4.816,8.403 L6.543,10.388 L10.124,4.962 C10.352,4.615 10.818,4.521 11.163,4.749 C11.509,4.977 11.604,5.442 11.376,5.788 L7.251,12.038 C7.122,12.233 6.909,12.357 6.675,12.373 C6.658,12.374 6.642,12.375 6.625,12.375" id="Fill-2" fill="#FFFFFF" sketch:type="MSShapeGroup"></path>
        </g>
    </g>
</svg>