<?xml version="1.0" encoding="UTF-8" standalone="no"?>
<svg width="62px" height="62px" viewBox="0 0 62 62" version="1.1" xmlns="http://www.w3.org/2000/svg" xmlns:xlink="http://www.w3.org/1999/xlink" xmlns:sketch="http://www.bohemiancoding.com/sketch/ns">
    <!-- Generator: Sketch 3.3.2 (12043) - http://www.bohemiancoding.com/sketch -->
    <title>Imported Layers</title>
    <desc>Created with Sketch.</desc>
    <defs></defs>
    <g id="Page-1" stroke="none" stroke-width="1" fill="none" fill-rule="evenodd" sketch:type="MSPage">
        <g id="Imported-Layers" sketch:type="MSLayerGroup">
            <path d="M61.451,31.162 C61.451,14.425 47.885,0.857 31.148,0.857 C14.412,0.857 0.846,14.425 0.846,31.162 C0.846,47.897 14.412,61.325 31.148,61.325 C47.885,61.325 61.451,47.898 61.451,31.162" id="Fill-1" fill="#A9D6F6" sketch:type="MSShapeGroup"></path>
            <path d="M32.445,11.451 C32.865,11.616 33.287,11.785 33.707,11.95 C37.105,13.279 38.957,16.689 38.262,20.331 C37.623,23.672 34.494,26.183 31.004,26.155 C27.59,26.129 24.523,23.629 23.885,20.349 C23.175,16.723 25.033,13.293 28.425,11.958 C28.849,11.792 29.265,11.62 29.687,11.451 L32.445,11.451" id="Fill-2" fill="#1986C8" sketch:type="MSShapeGroup"></path>
            <path d="M37.05,26.868 C39.949,27.541 42.637,28.698 44.932,30.669 C47.138,32.565 48.361,34.925 48.307,37.892 C48.275,39.574 48.226,41.263 48.314,42.941 C48.466,45.744 47.406,46.008 44.584,45.675 C44.227,45.633 43.898,45.293 43.33,44.957 L43.33,39.385 L41.84,39.385 L41.84,47.536 C40.807,48.175 39.9,48.966 38.848,49.346 C33.727,51.19 28.551,51.19 23.426,49.364 C22.365,48.987 21.449,48.208 20.465,47.611 L20.465,39.455 C19.929,39.415 19.531,39.384 18.885,39.334 C18.885,40.634 18.904,41.741 18.877,42.848 C18.849,43.836 19.181,45.075 17.962,45.527 C16.718,45.987 15.379,46.071 14.111,45.05 C14.072,44.544 13.99,43.996 13.986,43.447 C13.969,41.509 14.019,39.569 13.969,37.631 C13.904,35.062 14.916,32.979 16.707,31.224 C19.072,28.902 21.988,27.638 25.168,26.861 C29.113,29.242 33.066,29.256 37.05,26.868" id="Fill-3" fill="#1986C8" sketch:type="MSShapeGroup"></path>
        </g>
    </g>
</svg>