<svg id="Capa_1" data-name="Capa 1" xmlns="http://www.w3.org/2000/svg" width="59.5" height="59.5" viewBox="0 0 59.5 59.5"><defs><style>.cls-1{fill:#ccc;}.cls-2{fill:#fff;}.cls-3{fill:#3c3c3c;}</style></defs><title>ico-title-voc</title><g id="Page-1"><g id="Imported-Layers"><path id="Fill-1" class="cls-1" d="M59.5,29.8A29.75,29.75,0,1,0,29.7,59.5,29.75,29.75,0,0,0,59.5,29.8" transform="translate(0 0)"/><path id="Fill-2" class="cls-2" d="M13.4,11.8h15v17h-15Z" transform="translate(0 0)"/><path class="cls-3" d="M25.4,25.8h-9v-2h9Zm0-3h-9v-2h9Zm0-3h-9v-2h9Zm0-3h-9v-2h9Z" transform="translate(0 0)"/><path id="Fill-4" class="cls-2" d="M31.4,11.8h15v17h-15Z" transform="translate(0 0)"/><path class="cls-3" d="M43.4,25.8h-9v-2h9Zm0-3h-9v-2h9Zm0-3h-9v-2h9Zm0-3h-9v-2h9Z" transform="translate(0 0)"/><path id="Fill-6" class="cls-2" d="M13.4,31.8h15v17h-15Z" transform="translate(0 0)"/><path class="cls-3" d="M25.4,45.8h-9v-2h9Zm0-3h-9v-2h9Zm0-3h-9v-2h9Zm0-3h-9v-2h9Z" transform="translate(0 0)"/><path id="Fill-8" class="cls-2" d="M31.4,31.8h15v17h-15Z" transform="translate(0 0)"/><path class="cls-3" d="M43.4,45.8h-9v-2h9Zm0-3h-9v-2h9Zm0-3h-9v-2h9Zm0-3h-9v-2h9Z" transform="translate(0 0)"/></g></g></svg>