<svg id="Capa_1" data-name="Capa 1" xmlns="http://www.w3.org/2000/svg" width="23.42" height="18.48" viewBox="0 0 23.42 18.48"><defs><style>.cls-1{fill:#4f4f4f;}</style></defs><title>ico-sidebar</title><path class="cls-1" d="M7.52,5.88A2.12,2.12,0,1,1,5.41,3.76,2.12,2.12,0,0,1,7.52,5.88Z" transform="translate(-3.29 -3.76)"/><rect class="cls-1" x="6.48" y="0.62" width="16.95" height="3"/><path class="cls-1" d="M7.52,13a2.12,2.12,0,1,1-2.12-2.12A2.12,2.12,0,0,1,7.52,13Z" transform="translate(-3.29 -3.76)"/><rect class="cls-1" x="6.48" y="7.74" width="16.95" height="3"/><path class="cls-1" d="M7.52,20.12A2.12,2.12,0,1,1,5.41,18a2.12,2.12,0,0,1,2.12,2.12Z" transform="translate(-3.29 -3.76)"/><rect class="cls-1" x="6.48" y="14.86" width="16.95" height="3"/></svg>