<?xml version="1.0" encoding="UTF-8" standalone="no"?>
<svg width="30px" height="26px" viewBox="0 0 30 26" version="1.1" xmlns="http://www.w3.org/2000/svg" xmlns:xlink="http://www.w3.org/1999/xlink" xmlns:sketch="http://www.bohemiancoding.com/sketch/ns">
    <!-- Generator: Sketch 3.3.2 (12043) - http://www.bohemiancoding.com/sketch -->
    <title>Imported Layers</title>
    <desc>Created with Sketch.</desc>
    <defs></defs>
    <g id="Page-1" stroke="none" stroke-width="1" fill="none" fill-rule="evenodd" sketch:type="MSPage">
        <path d="M6.388,3.693 C6.388,5.182 5.182,6.387 3.694,6.387 C2.205,6.387 1,5.182 1,3.693 C1,2.205 2.205,1 3.694,1 C5.182,1 6.388,2.205 6.388,3.693 L6.388,3.693 Z M9.678,3.58 L29.678,3.58 L9.678,3.58 Z M6.388,12.693 C6.388,14.182 5.182,15.387 3.694,15.387 C2.205,15.387 1,14.182 1,12.693 C1,11.205 2.205,10 3.694,10 C5.182,10 6.388,11.205 6.388,12.693 L6.388,12.693 Z M9.678,12.58 L29.678,12.58 L9.678,12.58 Z M6.388,21.693 C6.388,23.182 5.182,24.387 3.694,24.387 C2.205,24.387 1,23.182 1,21.693 C1,20.205 2.205,19 3.694,19 C5.182,19 6.388,20.205 6.388,21.693 L6.388,21.693 Z M9.678,21.58 L29.678,21.58 L9.678,21.58 Z" id="Imported-Layers" stroke="#4F4F4F" stroke-width="2" stroke-linecap="round" sketch:type="MSShapeGroup"></path>
    </g>
</svg>