<svg id="Capa_1" data-name="Capa 1" xmlns="http://www.w3.org/2000/svg" width="26.2" height="26.2" viewBox="0 0 26.2 26.2"><defs><style>.cls-1{fill:#3c3c3c;}</style></defs><title>ico-lang-hover</title><g id="Page-1"><path id="Shape" class="cls-1" d="M0,13.2A13.1,13.1,0,1,0,13.1,0,13.1,13.1,0,0,0,0,13.2Zm2.8,0a13.55,13.55,0,0,1,.2-2H5.6v1.7a9.7,9.7,0,0,0,.1,1.7H2.9A7.08,7.08,0,0,1,2.8,13.2ZM3.9,8.4A10.1,10.1,0,0,1,7.4,4.5,22.41,22.41,0,0,0,6,8.4Zm7.7-5.5h0l.1,5.5H9A16.35,16.35,0,0,1,11.6,2.9Zm2.9,0h0a14.16,14.16,0,0,1,2.7,5.5H14.5Zm4.3,1.6a10.1,10.1,0,0,1,3.5,3.9H20.2A30.44,30.44,0,0,0,18.8,4.5Zm4.5,6.7a12.31,12.31,0,0,1,.2,2,6.6,6.6,0,0,1-.1,1.4H20.6c0-.6.1-1.1.1-1.7a9.7,9.7,0,0,0-.1-1.7Zm-.7,6.2a10.66,10.66,0,0,1-4.2,4.7,20.7,20.7,0,0,0,1.8-4.7ZM7.8,22.1a10.66,10.66,0,0,1-4.2-4.7H6A38,38,0,0,0,7.8,22.1Zm.6-10.9h3.3v3.4H8.4a9.7,9.7,0,0,1-.1-1.7A9.7,9.7,0,0,0,8.4,11.2Zm6.1,0h3.3a9.7,9.7,0,0,1,.1,1.7,9.7,9.7,0,0,1-.1,1.7H14.5ZM9,17.4h2.7V23A17.08,17.08,0,0,1,9,17.4Zm5.5,0h2.7A19.33,19.33,0,0,1,14.5,23Z" transform="translate(0)"/></g></svg>