<?xml version="1.0" encoding="UTF-8" standalone="no"?>
<svg width="60px" height="61px" viewBox="0 0 60 61" version="1.1" xmlns="http://www.w3.org/2000/svg" xmlns:xlink="http://www.w3.org/1999/xlink" xmlns:sketch="http://www.bohemiancoding.com/sketch/ns">
    <!-- Generator: Sketch 3.3.2 (12043) - http://www.bohemiancoding.com/sketch -->
    <title>Imported Layers</title>
    <desc>Created with Sketch.</desc>
    <defs></defs>
    <g id="Page-1" stroke="none" stroke-width="1" fill="none" fill-rule="evenodd" sketch:type="MSPage">
        <g id="Imported-Layers" sketch:type="MSLayerGroup">
            <path d="M59.744,30.625 C59.744,14.193 46.425,0.873 29.995,0.873 C13.565,0.873 0.246,14.193 0.246,30.625 C0.246,47.055 13.565,60.373 29.995,60.373 C46.425,60.373 59.744,47.055 59.744,30.625" id="Fill-1" fill="#A9D6F6" sketch:type="MSShapeGroup"></path>
            <path d="M16,48 L43,48 L43,23.039 L34.246,13 L16,13 L16,48" id="Fill-2" fill="#FFFFFF" sketch:type="MSShapeGroup"></path>
            <path d="M34,13.289 L34,23 L42.996,23 L34,13.289" id="Fill-3" fill="#B4B4B4" sketch:type="MSShapeGroup"></path>
            <path d="M43.6069926,13.35769 L47.5173917,13.35769 L47.5173917,14.6674839 L43.6069926,14.6674839 L43.6069926,18.7107605 L42.2877075,18.7107605 L42.2877075,14.6674839 L38.396291,14.6674839 L38.396291,13.35769 L42.2877075,13.35769 L42.2877075,9.29543086 L43.6069926,9.29543086 L43.6069926,13.35769 Z" id="+" fill="#1685C6" sketch:type="MSShapeGroup"></path>
        </g>
    </g>
</svg>