<svg id="Capa_1" data-name="Capa 1" xmlns="http://www.w3.org/2000/svg" width="25.38" height="25.2" viewBox="0 0 25.38 25.2"><defs><style>.cls-1{fill:#a7a7a7;}</style></defs><title>ico-resources</title><path class="cls-1" d="M23.4,17a2.64,2.64,0,0,0-2,.87L19,16.35a4.91,4.91,0,0,0-.54-5.21l2-1.85a2,2,0,1,0-.68-.73l-2,1.86a4.82,4.82,0,0,0-4.61-1.06l-.82-2.14a3.8,3.8,0,1,0-.93.37l.81,2.13a5,5,0,0,0-2.72,3.87l-3.17-.06a2.82,2.82,0,1,0,0,1l3.16.06a5,5,0,0,0,3.13,4.26l-.73,2.55h0a2,2,0,1,0,1,.28l.73-2.56a4.89,4.89,0,0,0,4.88-1.92l2.49,1.52A2.65,2.65,0,1,0,23.4,17Z" transform="translate(-0.67 -0.13)"/></svg>