<svg id="Capa_1" data-name="Capa 1" xmlns="http://www.w3.org/2000/svg" width="25.4" height="225.3" viewBox="0 0 25.4 225.3"><defs><style>.cls-1{fill:#a7a7a7;}.cls-2{fill:#3c3c3c;}</style></defs><title>ico-resources-sp</title><g id="Page-1"><g id="Group-_-Group" data-name="Group- -Group"><path class="cls-1" d="M22.7,16.9a2.68,2.68,0,0,0-2,.89l-2.51-1.54a4.88,4.88,0,0,0-.54-5.19l2-1.88A2,2,0,1,0,19,8.46l-2,1.88a4.8,4.8,0,0,0-4.55-1L11.6,7.13a3.79,3.79,0,1,0-.93.36l.81,2.15a5,5,0,0,0-2.72,3.87l-3.2-.06a2.78,2.78,0,1,0,0,1l3.2.06a5,5,0,0,0,3.13,4.23l-.72,2.56h0a2,2,0,1,0,1,.28L12.83,19a4.85,4.85,0,0,0,4.84-1.9l2.51,1.54A2.7,2.7,0,1,0,22.7,16.9Z" transform="translate(0 0)"/><path class="cls-2" d="M22.7,216.9a2.69,2.69,0,0,0-2,.84l-2.53-1.53a4.89,4.89,0,0,0-.55-5.13l2-1.88a2,2,0,1,0-.7-.72l-2,1.87a4.81,4.81,0,0,0-4.51-1.08l-.83-2.17a3.77,3.77,0,1,0-1,.39l.83,2.15a5,5,0,0,0-2.72,3.87l-3.2-.06a2.78,2.78,0,1,0,0,1l3.2.05a5,5,0,0,0,3.11,4.23l-.73,2.57h0a2,2,0,1,0,1,.28l.73-2.57a4.85,4.85,0,0,0,4.82-1.89l2.52,1.53a2.7,2.7,0,1,0,2.52-1.75Z" transform="translate(0 0)"/></g></g></svg>