<svg id="Capa_1" data-name="Capa 1" xmlns="http://www.w3.org/2000/svg" width="22.11" height="25.1" viewBox="0 0 22.11 25.1"><defs><style>.cls-1{fill:#a6a6a6;}</style></defs><title>ico-account</title><g id="Page-1"><g id="UsXv8s"><g id="Group"><path id="Shape" class="cls-1" d="M11.8,0c.3.1.5.2.8.3a4.63,4.63,0,0,1,2.9,5.4,4.63,4.63,0,0,1-4.6,3.8A4.7,4.7,0,0,1,6.3,5.8,5,5,0,0,1,9.2.3c.3-.1.5-.2.8-.3Z" transform="translate(0)"/><path id="Shape-2" class="cls-1" d="M14.8,9.9a12,12,0,0,1,5.1,2.4,5.83,5.83,0,0,1,2.2,4.6c0,1.1-.1,2.2,0,3.2.1,1.8-.6,2-2.4,1.8-.2,0-.4-.2-.8-.5V17.8h-1V23c-.6.4-1.2.8-1.9,1.2a14.06,14.06,0,0,1-9.9,0,7.24,7.24,0,0,1-1.9-1.1V17.9a3.4,3.4,0,0,1-1-.1v2.3c0,.6.2,1.4-.6,1.7a2.29,2.29,0,0,1-2.5-.3c0-.3-.1-.7-.1-1V16.8a5.24,5.24,0,0,1,1.8-4.1A10.92,10.92,0,0,1,7.1,9.9,7.15,7.15,0,0,0,14.8,9.9Z" transform="translate(0)"/></g></g></g></svg>