<?xml version="1.0" encoding="UTF-8" standalone="no"?>
<svg width="25px" height="225px" viewBox="0 0 25 225" version="1.1" xmlns="http://www.w3.org/2000/svg" xmlns:xlink="http://www.w3.org/1999/xlink" xmlns:sketch="http://www.bohemiancoding.com/sketch/ns">
    <!-- Generator: Sketch 3.3.2 (12043) - http://www.bohemiancoding.com/sketch -->
    <title>Oval + Shape + Oval + Shape</title>
    <desc>Created with Sketch.</desc>
    <defs></defs>
    <g id="Page-1" stroke="none" stroke-width="1" fill="none" fill-rule="evenodd" sketch:type="MSPage">
        <g id="Oval-+-Shape-+-Oval-+-Shape" sketch:type="MSLayerGroup">
            <g id="Oval-+-Shape" sketch:type="MSShapeGroup">
                <circle id="Oval" fill="#1D86C8" cx="12.338" cy="12.555" r="11.757"></circle>
                <path d="M13.62,12.555 L17.506,16.441 L16.205,17.742 L12.32,13.858 L8.301,17.875 L6.99,16.565 L11.008,12.547 L7.141,8.68 L8.443,7.38 L12.31,11.245 L16.346,7.209 L17.657,8.52 L13.62,12.555 L13.62,12.555 Z" id="Shape" fill="#FFFFFF"></path>
            </g>
            <g id="Oval-+-Shape" transform="translate(0.000000, 200.000000)" sketch:type="MSShapeGroup">
                <circle id="Oval" fill="#F89D6D" cx="12.338" cy="12.555" r="11.757"></circle>
                <path d="M13.62,12.555 L17.506,16.441 L16.205,17.742 L12.32,13.858 L8.301,17.875 L6.99,16.565 L11.008,12.547 L7.141,8.68 L8.443,7.38 L12.31,11.245 L16.346,7.209 L17.657,8.52 L13.62,12.555 L13.62,12.555 Z" id="Shape" fill="#FFFFFF"></path>
            </g>
        </g>
    </g>
</svg>