<?xml version="1.0" encoding="UTF-8" standalone="no"?>
<svg width="61px" height="60px" viewBox="0 0 61 60" version="1.1" xmlns="http://www.w3.org/2000/svg" xmlns:xlink="http://www.w3.org/1999/xlink" xmlns:sketch="http://www.bohemiancoding.com/sketch/ns">
    <!-- Generator: Sketch 3.3.2 (12043) - http://www.bohemiancoding.com/sketch -->
    <title>Imported Layers</title>
    <desc>Created with Sketch.</desc>
    <defs></defs>
    <g id="Page-1" stroke="none" stroke-width="1" fill="none" fill-rule="evenodd" sketch:type="MSPage">
        <g id="Imported-Layers" sketch:type="MSLayerGroup">
            <path d="M60.119,30.002 C60.119,13.57 46.8,0.251 30.37,0.251 C13.94,0.251 0.621,13.57 0.621,30.002 C0.621,46.432 13.94,59.75 30.37,59.75 C46.8,59.75 60.119,46.432 60.119,30.002" id="Fill-1" fill="#A9D6F6" sketch:type="MSShapeGroup"></path>
            <path d="M14,12 L29,12 L29,29 L14,29 L14,12 Z" id="Fill-2" fill="#FFFFFF" sketch:type="MSShapeGroup"></path>
            <path d="M17,16 L26,16 M17,19 L26,19 M17,22 L26,22 M17,25 L26,25" id="Stroke-3" stroke="#1685C6" stroke-width="2" sketch:type="MSShapeGroup"></path>
            <path d="M32,12 L47,12 L47,29 L32,29 L32,12 Z" id="Fill-4" fill="#FFFFFF" sketch:type="MSShapeGroup"></path>
            <path d="M35,16 L44,16 M35,19 L44,19 M35,22 L44,22 M35,25 L44,25" id="Stroke-5" stroke="#1685C6" stroke-width="2" sketch:type="MSShapeGroup"></path>
            <path d="M14,32 L29,32 L29,49 L14,49 L14,32 Z" id="Fill-6" fill="#FFFFFF" sketch:type="MSShapeGroup"></path>
            <path d="M17,36 L26,36 M17,39 L26,39 M17,42 L26,42 M17,45 L26,45" id="Stroke-7" stroke="#1685C6" stroke-width="2" sketch:type="MSShapeGroup"></path>
            <path d="M32,32 L47,32 L47,49 L32,49 L32,32 Z" id="Fill-8" fill="#FFFFFF" sketch:type="MSShapeGroup"></path>
            <path d="M35,36 L44,36 M35,39 L44,39 M35,42 L44,42 M35,45 L44,45" id="Stroke-9" stroke="#1685C6" stroke-width="2" sketch:type="MSShapeGroup"></path>
        </g>
    </g>
</svg>