<?xml version="1.0" encoding="UTF-8" standalone="no"?>
<svg width="27px" height="28px" viewBox="0 0 27 28" version="1.1" xmlns="http://www.w3.org/2000/svg" xmlns:xlink="http://www.w3.org/1999/xlink" xmlns:sketch="http://www.bohemiancoding.com/sketch/ns">
    <!-- Generator: Sketch 3.3.2 (12043) - http://www.bohemiancoding.com/sketch -->
    <title>Shape</title>
    <desc>Created with Sketch.</desc>
    <defs></defs>
    <g id="Page-1" stroke="none" stroke-width="1" fill="none" fill-rule="evenodd" sketch:type="MSPage">
        <path d="M0.377,13.967 C0.377,21.217 6.254,27.094 13.504,27.094 C20.754,27.094 26.629,21.217 26.629,13.967 C26.629,6.717 20.754,0.84 13.504,0.84 C6.254,0.84 0.377,6.717 0.377,13.967 L0.377,13.967 Z M3.17,13.967 C3.17,13.297 3.231,12.643 3.356,12.012 L6.036,12.012 C5.985,12.565 5.964,13.123 5.964,13.688 C5.964,14.253 5.985,14.811 6.036,15.364 L3.261,15.364 C3.197,14.904 3.17,14.441 3.17,13.967 L3.17,13.967 Z M4.326,9.219 C5.14,7.639 6.353,6.297 7.834,5.326 C7.248,6.56 6.789,7.861 6.471,9.219 L4.326,9.219 L4.326,9.219 Z M12.023,3.738 L12.107,3.728 L12.107,9.218 L9.359,9.218 C9.912,7.219 10.822,5.365 12.023,3.738 L12.023,3.738 Z M14.9,3.729 L14.978,3.739 C16.177,5.366 17.095,7.22 17.648,9.22 L14.9,9.22 L14.9,3.729 L14.9,3.729 Z M19.168,5.326 C20.648,6.297 21.865,7.638 22.682,9.219 L20.532,9.219 C20.217,7.861 19.754,6.56 19.168,5.326 L19.168,5.326 Z M23.652,12.012 C23.775,12.643 23.836,13.297 23.836,13.967 C23.836,14.442 23.803,14.905 23.742,15.363 L20.978,15.363 C21.021,14.81 21.043,14.252 21.043,13.687 C21.043,13.122 21.021,12.564 20.978,12.011 L23.652,12.011 L23.652,12.012 Z M22.955,18.156 C22.078,20.127 20.603,21.775 18.76,22.865 C19.541,21.394 20.139,19.814 20.531,18.156 L22.955,18.156 L22.955,18.156 Z M8.246,22.865 C6.404,21.775 4.93,20.127 4.053,18.156 L6.477,18.156 C6.867,19.815 7.465,21.4 8.246,22.865 L8.246,22.865 Z M8.84,12.012 L12.108,12.012 L12.108,15.364 L8.84,15.364 C8.783,14.811 8.756,14.253 8.756,13.688 C8.756,13.123 8.783,12.565 8.84,12.012 L8.84,12.012 Z M14.9,12.012 L18.166,12.012 C18.225,12.565 18.25,13.123 18.25,13.688 C18.25,14.253 18.225,14.811 18.166,15.364 L14.9,15.364 L14.9,12.012 L14.9,12.012 Z M9.359,18.156 L12.107,18.156 L12.107,23.742 C10.867,22.088 9.924,20.201 9.359,18.156 L9.359,18.156 Z M14.9,18.156 L17.648,18.156 C17.084,20.201 16.138,22.088 14.9,23.742 L14.9,18.156 L14.9,18.156 Z" id="Shape" fill="#F89D6D" sketch:type="MSShapeGroup"></path>
    </g>
</svg>