<?xml version="1.0" encoding="UTF-8" standalone="no"?>
<svg width="23px" height="26px" viewBox="0 0 23 26" version="1.1" xmlns="http://www.w3.org/2000/svg" xmlns:xlink="http://www.w3.org/1999/xlink" xmlns:sketch="http://www.bohemiancoding.com/sketch/ns">
    <!-- Generator: Sketch 3.3.2 (12043) - http://www.bohemiancoding.com/sketch -->
    <title>UsXv8s_11_</title>
    <desc>Created with Sketch.</desc>
    <defs></defs>
    <g id="Page-1" stroke="none" stroke-width="1" fill="none" fill-rule="evenodd" sketch:type="MSPage">
        <g id="UsXv8s_11_" sketch:type="MSLayerGroup" fill="#F89D6D">
            <g id="Group" sketch:type="MSShapeGroup">
                <path d="M12.611,0.402 C12.881,0.508 13.152,0.617 13.422,0.722 C15.606,1.575 16.795,3.767 16.348,6.107 C15.938,8.253 13.928,9.867 11.686,9.849 C9.493,9.831 7.522,8.226 7.112,6.118 C6.657,3.788 7.85,1.585 10.03,0.727 C10.301,0.62 10.569,0.51 10.84,0.401 C11.43,0.402 12.019,0.402 12.611,0.402 L12.611,0.402 Z" id="Shape"></path>
                <path d="M15.57,10.307 C17.431,10.741 19.158,11.483 20.632,12.75 C22.05,13.967 22.835,15.482 22.8,17.389 C22.78,18.471 22.749,19.555 22.806,20.633 C22.904,22.434 22.222,22.604 20.41,22.391 C20.18,22.364 19.969,22.145 19.603,21.928 L19.603,18.348 L18.646,18.348 L18.646,23.586 C17.982,23.996 17.4,24.504 16.724,24.748 C13.433,25.934 10.109,25.932 6.816,24.76 C6.134,24.518 5.546,24.018 4.914,23.635 L4.914,18.395 C4.57,18.368 4.314,18.348 3.898,18.317 C3.898,19.151 3.912,19.864 3.894,20.573 C3.877,21.21 4.089,22.005 3.306,22.296 C2.507,22.591 1.646,22.646 0.831,21.989 C0.806,21.665 0.753,21.311 0.751,20.96 C0.739,19.714 0.772,18.468 0.739,17.224 C0.698,15.574 1.348,14.234 2.499,13.107 C4.018,11.615 5.892,10.802 7.934,10.304 C10.471,11.832 13.01,11.842 15.57,10.307 L15.57,10.307 Z" id="Shape"></path>
            </g>
        </g>
    </g>
</svg>