<svg id="Capa_1" data-name="Capa 1" xmlns="http://www.w3.org/2000/svg" width="60.6" height="60.6" viewBox="0 0 60.6 60.6"><defs><style>.cls-1{fill:#ccc;}.cls-2{fill:#fff;}.cls-3{fill:#3c3c3c;}.cls-4{fill:#a9d6f6;}</style></defs><title>ico-title-doc</title><g id="Page-1"><g id="Imported-Layers"><path id="Fill-1" class="cls-1" d="M60.6,30.3A30.3,30.3,0,1,0,30.2,60.5h.1A30.28,30.28,0,0,0,60.6,30.3" transform="translate(0 0.1)"/><path id="Fill-2" class="cls-2" d="M21.2,34.6l-.7-1.8a10.38,10.38,0,0,1,1-.4V29.9c-.5.2-1,.5-1.6.7l-.8-1.8a15.05,15.05,0,0,0,2.2-1.1,19.42,19.42,0,0,0-.2-2.4c-.9.5-1.9,1-2.8,1.4L17.4,25c1.2-.6,2.3-1.2,3.5-1.8-.1-1.2-.3-2.4-.5-3.5a7.72,7.72,0,0,1-.2-1.5c.4-.1.8-.1,1.2-.2l12.1-2.1c-1.2-2.5-2.4-4.8-3.7-7.2A136.72,136.72,0,0,1,11.7,20.5a97.44,97.44,0,0,1,8.9,24.3,89.29,89.29,0,0,0,.9-10.4c-.1.2-.2.2-.3.2" transform="translate(0 0.1)"/><path id="Fill-3" class="cls-3" d="M17.5,25.2l.9,1.7c.9-.5,1.9-.9,2.8-1.4-.1-.7-.1-1.4-.2-2.1-1.2.6-2.4,1.2-3.5,1.8" transform="translate(0 0.1)"/><path id="Fill-4" class="cls-3" d="M19,29l.8,1.8c.5-.2,1-.5,1.6-.7,0-.7-.1-1.4-.1-2.1A22.88,22.88,0,0,0,19,29" transform="translate(0 0.1)"/><path id="Fill-5" class="cls-3" d="M20.5,32.9l.7,1.8c.1,0,.1-.1.2-.1V32.5a3.55,3.55,0,0,0-.9.4" transform="translate(0 0.1)"/><path id="Fill-6" class="cls-2" d="M41.6,39h0" transform="translate(0 0.1)"/><path id="Fill-7" class="cls-2" d="M42.6,16.4c-2.8.4-5.6.9-8.3,1.3-1.1.2-2.3.4-3.4.5-.4.1-.8.1-1.2.2L22,19.6a29.09,29.09,0,0,1,.4,3.1c.1.7.1,1.4.2,2.1s.1,1.7.2,2.5a15.48,15.48,0,0,1,.1,2.1,20.9,20.9,0,0,0,.1,2.5V34a20.9,20.9,0,0,1-.1,2.5c0,.7-.1,1.4-.1,2.1-.2,2.6-.5,5.3-.9,7.9a.6.6,0,0,1-.1.4c6.9,1.1,13.8,2.3,20.7,3.4A110.11,110.11,0,0,0,42.6,16.4Zm-.9,14.4-2.4.1-3.6.1H35l-6.2.2-2.4.1V29.1l2.5-.1,4.5-.1,5.2-.2,3-.1ZM26.1,24.5l2.2-.2,4.5-.4,3.9-.3,4.5-.4.2,2.2-3.9.3-9.1.8-2.1.1ZM41.5,39l-.1,1.7-3.2-.2-12-.8.1-2.2,15,1h.1v.4C41.5,38.9,41.5,38.9,41.5,39Zm.2-3.7H40.6l-9.7-.2H26.5V33l4.4.1,4.3.1,4.7.1h1.7Z" transform="translate(0 0.1)"/><path id="Fill-8" class="cls-3" d="M41.3,23.2l-4.5.4-3.9.3-4.5.4-2.2.2.2,2.2,2.1-.2,9.1-.8,3.9-.3-.2-2.2" transform="translate(0 0.1)"/><path id="Fill-9" class="cls-3" d="M41.6,28.6l-3,.1-5.2.2-4.5.1-2.5.1.1,2.2,2.4-.1,6.2-.2h.7l3.6-.1,2.4-.1-.2-2.2" transform="translate(0 0.1)"/><path id="Fill-10" class="cls-3" d="M26.5,32.9v2.2l15.2.4V33.1l-15.2-.2" transform="translate(0 0.1)"/><path id="Fill-11" class="cls-4" d="M41.5,38.5h-.1c0,.1.1.2.1.4v-.4" transform="translate(0 0.1)"/><path id="Fill-12" class="cls-3" d="M41.4,38.5l-15-1-.1,2.2,15.1,1V38.5" transform="translate(0 0.1)"/></g></g></svg>