<svg id="Capa_1" data-name="Capa 1" xmlns="http://www.w3.org/2000/svg" width="60.7" height="60.7" viewBox="0 0 60.7 60.7"><defs><style>.cls-1{fill:#ccc;}.cls-2{fill:#3c3c3c;}</style></defs><title>ico-title-user</title><g id="Page-1"><g id="Imported-Layers"><path id="Fill-1" class="cls-1" d="M60.7,30.3A30.35,30.35,0,1,0,30.2,60.5h.1A30.34,30.34,0,0,0,60.7,30.3" transform="translate(0 0.2)"/><path id="Fill-2" class="cls-2" d="M31.6,10.6c.4.2.8.3,1.3.5a7.29,7.29,0,1,1-5.3,0c.4-.2.8-.3,1.3-.5h2.7" transform="translate(0 0.2)"/><path id="Fill-3" class="cls-2" d="M36.2,26a18.16,18.16,0,0,1,7.9,3.8A9.2,9.2,0,0,1,47.5,37c0,1.7-.1,3.4,0,5,.2,2.8-.9,3.1-3.7,2.7-.4,0-.7-.4-1.3-.7V38.4H41v8.2a18.34,18.34,0,0,1-3,1.8,22.63,22.63,0,0,1-15.4,0,18.34,18.34,0,0,1-3-1.8V38.4c-.5,0-.9-.1-1.6-.1v3.5c0,1,.3,2.2-.9,2.7a3.76,3.76,0,0,1-3.9-.5c0-.5-.1-1.1-.1-1.6V36.6a8,8,0,0,1,2.7-6.4,18.28,18.28,0,0,1,8.5-4.4c4,2.5,8,2.6,11.9.2" transform="translate(0 0.2)"/></g></g></svg>