<svg id="Capa_1" data-name="Capa 1" xmlns="http://www.w3.org/2000/svg" width="23.95" height="223.91" viewBox="0 0 23.95 223.91"><defs><style>.cls-1{fill:#a7a7a7;}.cls-2{fill:#3e3e3e;}</style></defs><title>ico-admin-sp</title><g id="Page-1"><g id="Shape-_-Shape" data-name="Shape- -Shape"><g id="Shape"><path class="cls-1" d="M.9,2.5,4.1,5.8,6.2,3.5,3.3.2S7.3-.9,9.6,2a4.85,4.85,0,0,1,.7,5.5S25,19.2,23.9,22.2l-1.5,1.3s-2.2,4-14.5-13.2c0,0-4.7,1.4-6.9-1.8A5.27,5.27,0,0,1,.9,2.5Z" transform="translate(-0.01 0)"/></g><g id="Shape-2"><path class="cls-2" d="M.9,202.5l3.2,3.3,2.1-2.3-2.9-3.3s4-1.1,6.3,1.8a4.85,4.85,0,0,1,.7,5.5S25,219.2,23.9,222.2l-1.5,1.3s-2.2,4-14.5-13.2c0,0-4.7,1.4-6.9-1.8A5.27,5.27,0,0,1,.9,202.5Z" transform="translate(-0.01 0)"/></g></g></g></svg>