<?xml version="1.0" encoding="UTF-8" standalone="no"?>
<svg width="62px" height="62px" viewBox="0 0 62 62" version="1.1" xmlns="http://www.w3.org/2000/svg" xmlns:xlink="http://www.w3.org/1999/xlink" xmlns:sketch="http://www.bohemiancoding.com/sketch/ns">
    <!-- Generator: Sketch 3.3.2 (12043) - http://www.bohemiancoding.com/sketch -->
    <title>Imported Layers</title>
    <desc>Created with Sketch.</desc>
    <defs></defs>
    <g id="Page-1" stroke="none" stroke-width="1" fill="none" fill-rule="evenodd" sketch:type="MSPage">
        <g id="Imported-Layers" sketch:type="MSLayerGroup">
            <path d="M61.303,31.162 C61.303,14.425 47.736,0.857 31,0.857 C14.264,0.857 0.697,14.425 0.697,31.162 C0.697,47.897 14.264,61.325 31,61.325 C47.736,61.325 61.303,47.898 61.303,31.162" id="Fill-1" fill="#A9D6F6" sketch:type="MSShapeGroup"></path>
            <path d="M21.93,35.545 L21.188,33.764 C21.508,33.63 21.826,33.485 22.146,33.349 C22.142,32.53 22.133,31.71 22.104,30.892 C21.585,31.136 21.065,31.391 20.544,31.627 L19.747,29.872 C20.498,29.53 21.247,29.168 21.996,28.81 C21.948,28.002 21.892,27.195 21.821,26.388 C20.887,26.876 19.952,27.359 19.014,27.823 L18.16,26.092 C19.318,25.522 20.472,24.928 21.622,24.318 C21.489,23.139 21.335,21.963 21.152,20.79 C21.075,20.29 20.992,19.79 20.905,19.292 C21.302,19.222 21.698,19.153 22.095,19.084 C26.133,18.379 30.171,17.674 34.209,16.97 C33.045,14.519 31.807,12.133 30.494,9.817 C24.688,14.299 18.629,18.227 12.397,21.584 C16.298,28.883 19.338,37.043 21.264,45.859 C21.767,42.41 22.053,38.937 22.124,35.461 C22.059,35.488 21.994,35.518 21.93,35.545" id="Fill-2" fill="#FFFFFF" sketch:type="MSShapeGroup"></path>
            <path d="M18.16,26.092 L19.014,27.823 C19.952,27.359 20.887,26.876 21.821,26.388 C21.76,25.697 21.7,25.007 21.622,24.318 C20.472,24.928 19.318,25.522 18.16,26.092" id="Fill-3" fill="#1986C8" sketch:type="MSShapeGroup"></path>
            <path d="M19.747,29.872 L20.544,31.627 C21.065,31.391 21.585,31.136 22.104,30.892 C22.081,30.197 22.037,29.504 21.996,28.81 C21.247,29.168 20.498,29.53 19.747,29.872" id="Fill-4" fill="#1986C8" sketch:type="MSShapeGroup"></path>
            <path d="M21.188,33.764 L21.93,35.545 C21.994,35.518 22.059,35.488 22.124,35.461 C22.138,34.757 22.149,34.053 22.146,33.349 C21.826,33.485 21.508,33.63 21.188,33.764" id="Fill-5" fill="#1986C8" sketch:type="MSShapeGroup"></path>
            <path d="M42.252,39.871 C42.244,39.835 42.234,39.801 42.225,39.765 L42.217,39.887 C42.229,39.882 42.241,39.877 42.252,39.871" id="Fill-6" fill="#FFFFFF" sketch:type="MSShapeGroup"></path>
            <path d="M43.28,17.258 C40.499,17.694 37.718,18.13 34.936,18.565 C33.789,18.746 32.642,18.925 31.494,19.106 C31.085,19.169 30.675,19.233 30.265,19.298 C27.701,19.7 25.136,20.102 22.571,20.503 C22.731,21.523 22.866,22.546 22.989,23.57 C23.072,24.263 23.136,24.957 23.202,25.652 C23.28,26.479 23.351,27.307 23.406,28.136 C23.452,28.832 23.493,29.527 23.522,30.224 C23.556,31.058 23.57,31.893 23.581,32.727 C23.588,33.428 23.594,34.127 23.585,34.828 C23.574,35.67 23.559,36.512 23.523,37.353 C23.494,38.063 23.441,38.772 23.394,39.48 C23.217,42.11 22.928,44.733 22.508,47.343 C22.488,47.469 22.474,47.596 22.454,47.723 C29.347,48.864 36.24,50.006 43.133,51.147 C44.991,39.929 45.04,28.488 43.28,17.258 L43.28,17.258 Z M42.381,31.681 L40.011,31.753 L36.446,31.86 L35.753,31.881 L29.575,32.068 L27.209,32.14 L27.143,29.972 L29.601,29.898 L34.052,29.763 L39.294,29.605 L42.316,29.514 L42.381,31.681 L42.381,31.681 Z M26.829,25.366 L29.056,25.183 L33.601,24.809 L37.453,24.493 L41.957,24.123 L42.134,26.284 L38.24,26.604 L29.095,27.356 L27.006,27.527 L26.829,25.366 L26.829,25.366 Z M42.217,39.887 L42.107,41.578 L38.918,41.371 L26.96,40.596 L27.101,38.432 L42.133,39.406 L42.248,39.414 L42.225,39.765 C42.234,39.801 42.244,39.835 42.252,39.871 C42.241,39.877 42.229,39.882 42.217,39.887 L42.217,39.887 Z M42.374,36.182 L41.302,36.168 L31.558,36.042 L27.195,35.986 L27.197,35.857 L27.223,33.817 L31.649,33.875 L35.963,33.931 L40.674,33.992 L42.401,34.014 L42.374,36.182 L42.374,36.182 Z" id="Fill-7" fill="#FFFFFF" sketch:type="MSShapeGroup"></path>
            <path d="M41.957,24.123 L37.453,24.493 L33.601,24.809 L29.056,25.183 L26.829,25.366 L27.006,27.527 L29.095,27.356 L38.24,26.604 L42.134,26.284 L41.957,24.123" id="Fill-8" fill="#1986C8" sketch:type="MSShapeGroup"></path>
            <path d="M42.316,29.514 L39.294,29.605 L34.052,29.763 L29.601,29.898 L27.143,29.972 L27.209,32.14 L29.575,32.068 L35.753,31.881 L36.446,31.86 L40.011,31.753 L42.381,31.681 L42.316,29.514" id="Fill-9" fill="#1986C8" sketch:type="MSShapeGroup"></path>
            <path d="M27.223,33.817 L27.195,35.986 L42.381,36.375 L42.401,34.014 L27.223,33.817" id="Fill-10" fill="#1986C8" sketch:type="MSShapeGroup"></path>
            <path d="M42.248,39.414 L42.133,39.406 C42.162,39.526 42.196,39.644 42.225,39.765 L42.248,39.414" id="Fill-11" fill="#A9D6F6" sketch:type="MSShapeGroup"></path>
            <path d="M42.133,39.406 L27.101,38.432 L26.96,40.596 L42.107,41.578 L42.133,39.406" id="Fill-12" fill="#1986C8" sketch:type="MSShapeGroup"></path>
        </g>
    </g>
</svg>