<?xml version="1.0" encoding="UTF-8" standalone="no"?>
<svg width="28px" height="227px" viewBox="0 0 28 227" version="1.1" xmlns="http://www.w3.org/2000/svg" xmlns:xlink="http://www.w3.org/1999/xlink" xmlns:sketch="http://www.bohemiancoding.com/sketch/ns">
    <!-- Generator: Sketch 3.3.2 (12043) - http://www.bohemiancoding.com/sketch -->
    <title>Shape + Shape</title>
    <desc>Created with Sketch.</desc>
    <defs></defs>
    <g id="Page-1" stroke="none" stroke-width="1" fill="none" fill-rule="evenodd" sketch:type="MSPage">
        <g id="Shape-+-Shape" sketch:type="MSLayerGroup">
            <g id="Shape" fill="#1D86C8" sketch:type="MSShapeGroup">
                <path d="M0.865,13.677 C0.865,20.928 6.742,26.804 13.992,26.804 C21.242,26.804 27.117,20.928 27.117,13.677 C27.117,6.427 21.242,0.551 13.992,0.551 C6.742,0.551 0.865,6.427 0.865,13.677 L0.865,13.677 L0.865,13.677 Z M3.658,13.677 C3.658,13.007 3.719,12.354 3.844,11.723 L6.524,11.723 C6.473,12.276 6.452,12.835 6.452,13.399 C6.452,13.963 6.473,14.522 6.524,15.074 L3.749,15.074 C3.685,14.616 3.658,14.153 3.658,13.677 L3.658,13.677 L3.658,13.677 Z M4.814,8.93 C5.628,7.349 6.841,6.009 8.322,5.037 C7.736,6.272 7.277,7.573 6.959,8.93 L4.814,8.93 L4.814,8.93 Z M12.512,3.45 L12.596,3.439 L12.596,8.93 L9.848,8.93 C10.4,6.93 11.31,5.076 12.512,3.45 L12.512,3.45 L12.512,3.45 Z M15.389,3.439 L15.467,3.45 C16.666,5.076 17.584,6.93 18.137,8.929 L15.389,8.929 L15.389,3.439 L15.389,3.439 Z M19.656,5.037 C21.136,6.009 22.353,7.349 23.17,8.93 L21.02,8.93 C20.705,7.573 20.242,6.272 19.656,5.037 L19.656,5.037 L19.656,5.037 Z M24.141,11.723 C24.264,12.354 24.325,13.008 24.325,13.677 C24.325,14.153 24.292,14.616 24.231,15.074 L21.467,15.074 C21.51,14.521 21.531,13.963 21.531,13.399 C21.531,12.835 21.51,12.277 21.467,11.723 L24.141,11.723 L24.141,11.723 Z M23.443,17.867 C22.566,19.839 21.091,21.487 19.248,22.576 C20.029,21.107 20.627,19.526 21.019,17.867 L23.443,17.867 L23.443,17.867 Z M8.734,22.576 C6.892,21.487 5.418,19.839 4.541,17.867 L6.965,17.867 C7.355,19.526 7.953,21.112 8.734,22.576 L8.734,22.576 L8.734,22.576 Z M9.328,11.723 L12.596,11.723 L12.596,15.074 L9.328,15.074 C9.271,14.521 9.244,13.963 9.244,13.399 C9.244,12.835 9.271,12.276 9.328,11.723 L9.328,11.723 L9.328,11.723 Z M15.389,11.723 L18.655,11.723 C18.714,12.276 18.739,12.835 18.739,13.399 C18.739,13.963 18.714,14.522 18.655,15.074 L15.389,15.074 L15.389,11.723 L15.389,11.723 Z M9.848,17.867 L12.596,17.867 L12.596,23.453 C11.355,21.799 10.412,19.912 9.848,17.867 L9.848,17.867 L9.848,17.867 Z M15.389,17.867 L18.137,17.867 C17.573,19.912 16.627,21.8 15.389,23.453 L15.389,17.867 L15.389,17.867 Z"></path>
            </g>
            <g id="Shape" transform="translate(0.000000, 200.000000)" fill="#F89D6D" sketch:type="MSShapeGroup">
                <path d="M0.865,13.677 C0.865,20.928 6.742,26.804 13.992,26.804 C21.242,26.804 27.117,20.928 27.117,13.677 C27.117,6.427 21.242,0.551 13.992,0.551 C6.742,0.551 0.865,6.427 0.865,13.677 L0.865,13.677 L0.865,13.677 Z M3.658,13.677 C3.658,13.007 3.719,12.354 3.844,11.723 L6.524,11.723 C6.473,12.276 6.452,12.835 6.452,13.399 C6.452,13.963 6.473,14.522 6.524,15.074 L3.749,15.074 C3.685,14.616 3.658,14.153 3.658,13.677 L3.658,13.677 L3.658,13.677 Z M4.814,8.93 C5.628,7.349 6.841,6.009 8.322,5.037 C7.736,6.272 7.277,7.573 6.959,8.93 L4.814,8.93 L4.814,8.93 Z M12.512,3.45 L12.596,3.439 L12.596,8.93 L9.848,8.93 C10.4,6.93 11.31,5.076 12.512,3.45 L12.512,3.45 L12.512,3.45 Z M15.389,3.439 L15.467,3.45 C16.666,5.076 17.584,6.93 18.137,8.929 L15.389,8.929 L15.389,3.439 L15.389,3.439 Z M19.656,5.037 C21.136,6.009 22.353,7.349 23.17,8.93 L21.02,8.93 C20.705,7.573 20.242,6.272 19.656,5.037 L19.656,5.037 L19.656,5.037 Z M24.141,11.723 C24.264,12.354 24.325,13.008 24.325,13.677 C24.325,14.153 24.292,14.616 24.231,15.074 L21.467,15.074 C21.51,14.521 21.531,13.963 21.531,13.399 C21.531,12.835 21.51,12.277 21.467,11.723 L24.141,11.723 L24.141,11.723 Z M23.443,17.867 C22.566,19.839 21.091,21.487 19.248,22.576 C20.029,21.107 20.627,19.526 21.019,17.867 L23.443,17.867 L23.443,17.867 Z M8.734,22.576 C6.892,21.487 5.418,19.839 4.541,17.867 L6.965,17.867 C7.355,19.526 7.953,21.112 8.734,22.576 L8.734,22.576 L8.734,22.576 Z M9.328,11.723 L12.596,11.723 L12.596,15.074 L9.328,15.074 C9.271,14.521 9.244,13.963 9.244,13.399 C9.244,12.835 9.271,12.276 9.328,11.723 L9.328,11.723 L9.328,11.723 Z M15.389,11.723 L18.655,11.723 C18.714,12.276 18.739,12.835 18.739,13.399 C18.739,13.963 18.714,14.522 18.655,15.074 L15.389,15.074 L15.389,11.723 L15.389,11.723 Z M9.848,17.867 L12.596,17.867 L12.596,23.453 C11.355,21.799 10.412,19.912 9.848,17.867 L9.848,17.867 L9.848,17.867 Z M15.389,17.867 L18.137,17.867 C17.573,19.912 16.627,21.8 15.389,23.453 L15.389,17.867 L15.389,17.867 Z"></path>
            </g>
        </g>
    </g>
</svg>