<svg id="Capa_1" data-name="Capa 1" xmlns="http://www.w3.org/2000/svg" width="23.6" height="223.6" viewBox="0 0 23.6 223.6"><defs><style>.cls-1{fill:#a7a7a7;}.cls-2{fill:#3c3c3c;}</style></defs><title>ico-logout-sp</title><g id="Page-1"><g id="Oval-_-Shape-_-Oval-_-Shape" data-name="Oval- -Shape- -Oval- -Shape"><path class="cls-1" d="M11.8,0A11.8,11.8,0,1,0,23.6,11.8,11.8,11.8,0,0,0,11.8,0ZM17,15.6l-1.3,1.3L11.8,13l-4,4L6.5,15.8l4-4L6.6,7.9,7.9,6.6l3.9,3.9,4-4,1.3,1.3-4,4Z" transform="translate(0)"/><path class="cls-2" d="M11.8,200a11.8,11.8,0,1,0,11.8,11.8A11.8,11.8,0,0,0,11.8,200ZM17,215.6l-1.3,1.3L11.8,213l-4,4-1.3-1.2,4-4-3.9-3.9,1.3-1.3,3.9,3.9,4-4,1.3,1.3-4,4Z" transform="translate(0)"/></g></g></svg>