<?xml version="1.0" encoding="utf-8"?>
<!-- Generator: Adobe Illustrator 17.1.0, SVG Export Plug-In . SVG Version: 6.00 Build 0)  -->
<!DOCTYPE svg PUBLIC "-//W3C//DTD SVG 1.1//EN" "http://www.w3.org/Graphics/SVG/1.1/DTD/svg11.dtd">
<svg version="1.1" id="Capa_1" xmlns="http://www.w3.org/2000/svg" xmlns:xlink="http://www.w3.org/1999/xlink" x="0px" y="0px"
	 viewBox="0 0 612 792" enable-background="new 0 0 612 792" xml:space="preserve">
<polygon fill="#6D7176" points="69,403 74,403 74,399 78,399 78,403 82,403 82,396 85.303,396 75.411,385.685 64.67,396 69,396 "/>
<g>
	<path fill="#6D7176" d="M293.535,385.333l3.168,3.308l2.066-2.343l-2.894-3.305c0,0,3.996-1.103,6.338,1.79
		c2.34,2.893,0.689,5.51,0.689,5.51s14.74,11.71,13.637,14.74l-1.516,1.241c0,0-2.203,3.993-14.465-13.225
		c0,0-4.684,1.378-6.885-1.79C291.469,388.089,293.535,385.333,293.535,385.333z"/>
</g>
<g id="UsXv8s_1_">
	<g>
		<path fill-rule="evenodd" clip-rule="evenodd" fill="#1D86C8" d="M429.724,382.113c0.27,0.106,0.541,0.215,0.811,0.321
			c2.184,0.854,3.373,3.044,2.926,5.384c-0.41,2.146-2.42,3.759-4.662,3.742c-2.193-0.017-4.164-1.623-4.574-3.731
			c-0.455-2.33,0.738-4.533,2.918-5.391c0.272-0.107,0.539-0.217,0.811-0.326C428.542,382.113,429.132,382.113,429.724,382.113z"/>
		<path fill-rule="evenodd" clip-rule="evenodd" fill="#1D86C8" d="M432.683,392.019c1.861,0.432,3.588,1.175,5.062,2.442
			c1.418,1.218,2.203,2.734,2.168,4.64c-0.02,1.081-0.051,2.166,0.006,3.244c0.098,1.8-0.584,1.97-2.396,1.756
			c-0.23-0.027-0.441-0.246-0.807-0.462c0-1.157,0-2.346,0-3.58c-0.391,0-0.604,0-0.957,0c0,1.73,0,3.414,0,5.237
			c-0.664,0.411-1.246,0.919-1.922,1.163c-3.291,1.185-6.615,1.185-9.908,0.012c-0.682-0.242-1.27-0.743-1.902-1.126
			c0-1.812,0-3.473,0-5.24c-0.344-0.026-0.6-0.046-1.016-0.078c0,0.835,0.014,1.546-0.004,2.257
			c-0.017,0.635,0.195,1.431-0.588,1.722c-0.799,0.296-1.66,0.35-2.475-0.307c-0.025-0.325-0.078-0.677-0.08-1.03
			c-0.012-1.245,0.021-2.491-0.012-3.736c-0.041-1.65,0.609-2.989,1.76-4.117c1.52-1.491,3.393-2.304,5.436-2.802
			C427.583,393.543,430.122,393.552,432.683,392.019z"/>
	</g>
</g>
<g>
	<circle fill="#6D7176" cx="174.441" cy="396.186" r="5.027"/>
	<circle fill="#6D7176" cx="170.506" cy="385.913" r="3.783"/>
	<circle fill="#6D7176" cx="163.512" cy="395.968" r="2.842"/>
	<circle fill="#6D7176" cx="183.402" cy="401.651" r="2.652"/>
	<circle fill="#6D7176" cx="181.436" cy="389.628" r="1.967"/>
	<circle fill="#6D7176" cx="171.818" cy="405.367" r="1.967"/>
	<polyline fill="none" stroke="#6D7176" stroke-miterlimit="10" points="170.506,385.913 174.441,396.186 163.512,395.968 	"/>
	<polyline fill="none" stroke="#6D7176" stroke-miterlimit="10" points="171.818,405.367 174.441,396.186 183.402,401.651 	"/>
	<line fill="none" stroke="#6D7176" stroke-miterlimit="10" x1="181.435" y1="389.628" x2="174.441" y2="396.186"/>
</g>
<path fill-rule="evenodd" clip-rule="evenodd" fill="#1D86C8" d="M521.865,396.677c0,7.251,5.877,13.127,13.127,13.127
	s13.125-5.876,13.125-13.127c0-7.25-5.875-13.126-13.125-13.126S521.865,389.427,521.865,396.677z M524.658,396.677
	c0-0.67,0.061-1.323,0.186-1.954h2.68c-0.051,0.553-0.072,1.112-0.072,1.676c0,0.564,0.021,1.123,0.072,1.675h-2.775
	C524.685,397.616,524.658,397.153,524.658,396.677z M525.814,391.93c0.814-1.581,2.027-2.921,3.508-3.893
	c-0.586,1.235-1.045,2.536-1.363,3.893H525.814z M533.512,386.45l0.084-0.011v5.491h-2.748
	C531.4,389.93,532.31,388.076,533.512,386.45z M536.389,386.439l0.078,0.011c1.199,1.626,2.117,3.48,2.67,5.479h-2.748V386.439z
	 M540.656,388.037c1.48,0.972,2.697,2.312,3.514,3.893h-2.15C541.705,390.573,541.242,389.272,540.656,388.037z M545.141,394.723
	c0.123,0.631,0.184,1.285,0.184,1.954c0,0.476-0.033,0.939-0.094,1.397h-2.764c0.043-0.553,0.064-1.111,0.064-1.675
	c0-0.564-0.021-1.122-0.064-1.676H545.141z M544.443,400.867c-0.877,1.972-2.352,3.62-4.195,4.709
	c0.781-1.469,1.379-3.05,1.771-4.709H544.443z M529.734,405.576c-1.842-1.089-3.316-2.737-4.193-4.709h2.424
	C528.355,402.526,528.953,404.112,529.734,405.576z M530.328,394.723h3.268v3.351h-3.268c-0.057-0.553-0.084-1.111-0.084-1.675
	C530.244,395.835,530.271,395.276,530.328,394.723z M536.389,394.723h3.266c0.059,0.553,0.084,1.112,0.084,1.676
	c0,0.564-0.025,1.123-0.084,1.675h-3.266V394.723z M530.848,400.867h2.748v5.586C532.355,404.799,531.412,402.912,530.848,400.867z
	 M536.389,400.867h2.748c-0.564,2.045-1.51,3.933-2.748,5.586V400.867z"/>
<polygon fill="#F89D6D" points="38,580 43,580 43,576 47,576 47,580 51,580 51,573 54.813,573 44.922,562.684 34.181,573 38,573 "/>
<g>
	<path fill="#F89D6D" d="M263.047,562.623l3.168,3.307l2.066-2.342l-2.895-3.305c0,0,3.996-1.104,6.338,1.789
		c2.34,2.892,0.69,5.51,0.69,5.51s14.74,11.711,13.637,14.74l-1.516,1.24c0,0-2.203,3.994-14.465-13.225
		c0,0-4.684,1.379-6.885-1.789C260.98,565.379,263.047,562.623,263.047,562.623z"/>
</g>
<g id="UsXv8s_11_">
	<g>
		<g>
			<path fill-rule="evenodd" clip-rule="evenodd" fill="#F89D6D" d="M399.611,559.402c0.27,0.106,0.541,0.215,0.811,0.32
				c2.184,0.853,3.373,3.045,2.926,5.385c-0.41,2.146-2.42,3.76-4.662,3.742c-2.193-0.018-4.164-1.623-4.574-3.731
				c-0.455-2.33,0.738-4.533,2.918-5.391c0.271-0.107,0.539-0.217,0.81-0.326C398.43,559.402,399.019,559.402,399.611,559.402z"/>
			<path fill-rule="evenodd" clip-rule="evenodd" fill="#F89D6D" d="M402.57,569.307c1.861,0.434,3.588,1.176,5.062,2.443
				c1.418,1.217,2.203,2.732,2.168,4.639c-0.02,1.082-0.051,2.166,0.006,3.244c0.098,1.801-0.584,1.971-2.396,1.758
				c-0.23-0.027-0.441-0.246-0.807-0.463c0-1.156,0-2.346,0-3.58c-0.391,0-0.603,0-0.957,0c0,1.73,0,3.416,0,5.238
				c-0.664,0.41-1.246,0.918-1.922,1.162c-3.291,1.186-6.615,1.184-9.908,0.012c-0.682-0.242-1.27-0.742-1.902-1.125
				c0-1.812,0-3.475,0-5.24c-0.344-0.027-0.6-0.047-1.016-0.078c0,0.834,0.014,1.547-0.004,2.256
				c-0.017,0.637,0.195,1.432-0.588,1.723c-0.799,0.295-1.66,0.35-2.475-0.307c-0.025-0.324-0.078-0.678-0.08-1.029
				c-0.012-1.246,0.021-2.492-0.012-3.736c-0.041-1.65,0.609-2.99,1.76-4.117c1.519-1.492,3.393-2.305,5.435-2.803
				C397.471,570.832,400.01,570.842,402.57,569.307z"/>
		</g>
	</g>
</g>
<g>
	<circle fill="#F89D6D" cx="143.952" cy="573.475" r="5.027"/>
	<circle fill="#F89D6D" cx="140.017" cy="563.201" r="3.783"/>
	<circle fill="#F89D6D" cx="133.022" cy="573.256" r="2.842"/>
	<circle fill="#F89D6D" cx="152.914" cy="578.94" r="2.652"/>
	<circle fill="#F89D6D" cx="150.947" cy="566.918" r="1.967"/>
	<circle fill="#F89D6D" cx="141.329" cy="582.656" r="1.967"/>
	<polyline fill="none" stroke="#F89D6D" stroke-miterlimit="10" points="140.017,563.201 143.952,573.475 133.022,573.256 	"/>
	<polyline fill="none" stroke="#F89D6D" stroke-miterlimit="10" points="141.329,582.656 143.952,573.475 152.914,578.94 	"/>
	<line fill="none" stroke="#F89D6D" stroke-miterlimit="10" x1="150.947" y1="566.918" x2="143.952" y2="573.475"/>
</g>
<path fill-rule="evenodd" clip-rule="evenodd" fill="#F89D6D" d="M549.377,573.967c0,7.25,5.877,13.127,13.127,13.127
	s13.125-5.877,13.125-13.127s-5.875-13.127-13.125-13.127S549.377,566.717,549.377,573.967z M552.17,573.967
	c0-0.67,0.061-1.324,0.186-1.955h2.68c-0.051,0.553-0.072,1.111-0.072,1.676s0.021,1.123,0.072,1.676h-2.775
	C552.197,574.904,552.17,574.441,552.17,573.967z M553.326,569.219c0.814-1.58,2.027-2.922,3.508-3.893
	c-0.586,1.234-1.045,2.535-1.363,3.893H553.326z M561.023,563.738l0.084-0.01v5.49h-2.748
	C558.912,567.219,559.822,565.365,561.023,563.738z M563.9,563.729l0.078,0.01c1.199,1.627,2.117,3.481,2.67,5.481H563.9V563.729z
	 M568.168,565.326c1.48,0.971,2.697,2.312,3.514,3.893h-2.15C569.217,567.861,568.754,566.56,568.168,565.326z M572.652,572.012
	c0.123,0.631,0.184,1.285,0.184,1.955c0,0.475-0.033,0.938-0.094,1.396h-2.764c0.043-0.553,0.065-1.111,0.065-1.676
	s-0.022-1.123-0.065-1.676H572.652z M571.955,578.156c-0.877,1.971-2.352,3.619-4.195,4.709c0.781-1.471,1.379-3.051,1.771-4.709
	H571.955z M557.246,582.865c-1.842-1.09-3.316-2.738-4.193-4.709h2.424C555.867,579.815,556.465,581.4,557.246,582.865z
	 M557.84,572.012h3.268v3.352h-3.268c-0.057-0.553-0.084-1.111-0.084-1.676S557.783,572.565,557.84,572.012z M563.9,572.012h3.266
	c0.059,0.553,0.084,1.111,0.084,1.676s-0.025,1.123-0.084,1.676H563.9V572.012z M558.359,578.156h2.748v5.586
	C559.867,582.088,558.924,580.201,558.359,578.156z M563.9,578.156h2.748c-0.564,2.045-1.51,3.932-2.748,5.586V578.156z"/>
</svg>
