<svg id="Capa_1" data-name="Capa 1" xmlns="http://www.w3.org/2000/svg" width="541.4" height="205" viewBox="0 0 541.4 205"><defs><style>.cls-1{fill:#6d7176;}.cls-2{fill:#0e345c;}.cls-3{fill:none;stroke:#6d7176;stroke-miterlimit:10;}.cls-4{fill:#bcc6d1;}</style></defs><title>icons</title><polygon class="cls-1" points="34.8 20.9 39.8 20.9 39.8 16.9 43.8 16.9 43.8 20.9 47.8 20.9 47.8 13.9 51.1 13.9 41.2 3.6 30.5 13.9 34.8 13.9 34.8 20.9"/><path class="cls-1" d="M260.1,4.2l3.2,3.3,2.1-2.3-2.9-3.3s4-1.1,6.3,1.8a4.87,4.87,0,0,1,.7,5.5s14.7,11.7,13.6,14.7l-1.5,1.2s-2.2,4-14.5-13.2c0,0-4.7,1.4-6.9-1.8A5.29,5.29,0,0,1,260.1,4.2Z" transform="translate(-0.8 -1)"/><g id="UsXv8s"><path class="cls-2" d="M396.3,1c.3.1.5.2.8.3A4.63,4.63,0,0,1,400,6.7a4.65,4.65,0,0,1-4.7,3.7,4.71,4.71,0,0,1-1.7-9.1c.3-.1.5-.2.8-.3Z" transform="translate(-0.8 -1)"/><path class="cls-2" d="M399.3,10.9a12,12,0,0,1,5.1,2.4,5.83,5.83,0,0,1,2.2,4.6c0,1.1-.1,2.2,0,3.2.1,1.8-.6,2-2.4,1.8-.2,0-.4-.2-.8-.5V18.8h-1V24a19.93,19.93,0,0,1-1.9,1.2,14.06,14.06,0,0,1-9.9,0,7.24,7.24,0,0,1-1.9-1.1V18.9a3.75,3.75,0,0,1-1-.1v2.3c0,.6.2,1.4-.6,1.7a2.31,2.31,0,0,1-2.5-.3c0-.3-.1-.7-.1-1V17.8a5.39,5.39,0,0,1,1.8-4.1,11.24,11.24,0,0,1,5.4-2.8A6.79,6.79,0,0,0,399.3,10.9Z" transform="translate(-0.8 -1)"/></g><circle class="cls-1" cx="140.2" cy="14.1" r="5"/><circle class="cls-1" cx="136.3" cy="3.8" r="3.8"/><circle class="cls-1" cx="129.3" cy="13.9" r="2.8"/><circle class="cls-1" cx="149.2" cy="19.6" r="2.7"/><circle class="cls-1" cx="147.2" cy="7.5" r="2"/><circle class="cls-1" cx="137.6" cy="23.3" r="2"/><polyline class="cls-3" points="136.3 3.8 140.2 14.1 129.3 13.9"/><polyline class="cls-3" points="137.6 23.3 140.2 14.1 149.2 19.6"/><line class="cls-3" x1="147.2" y1="7.5" x2="140.2" y2="14.1"/><path class="cls-2" d="M488.5,15.6A13.1,13.1,0,1,0,501.6,2.5,13.08,13.08,0,0,0,488.5,15.6Zm2.8,0a13.55,13.55,0,0,1,.2-2h2.7a9.7,9.7,0,0,0-.1,1.7,9.7,9.7,0,0,0,.1,1.7h-2.8A6.6,6.6,0,0,1,491.3,15.6Zm1.1-4.8a10.1,10.1,0,0,1,3.5-3.9,22.42,22.42,0,0,0-1.4,3.9Zm7.7-5.4h0l.1,5.5h-2.7A14.73,14.73,0,0,1,500.1,5.4Zm2.9-.1h0a14.16,14.16,0,0,1,2.7,5.5H503Zm4.3,1.6a10.1,10.1,0,0,1,3.5,3.9h-2.2A29.72,29.72,0,0,0,507.3,6.9Zm4.4,6.7a12.31,12.31,0,0,1,.2,2,6.6,6.6,0,0,1-.1,1.4H509c0-.6.1-1.1.1-1.7a9.7,9.7,0,0,0-.1-1.7Zm-.7,6.2a10.66,10.66,0,0,1-4.2,4.7,19.05,19.05,0,0,0,1.8-4.7Zm-14.7,4.7a10.66,10.66,0,0,1-4.2-4.7h2.4A38,38,0,0,0,496.3,24.5Zm.6-10.9h3.3V17h-3.3a9.7,9.7,0,0,1-.1-1.7C496.8,14.7,496.9,14.2,496.9,13.6Zm6.1,0h3.3a9.7,9.7,0,0,1,.1,1.7,9.7,9.7,0,0,1-.1,1.7H503Zm-5.6,6.2h2.7v5.6A22.3,22.3,0,0,1,497.4,19.8Zm5.6,0h2.7a19.33,19.33,0,0,1-2.7,5.6Z" transform="translate(-0.8 -1)"/><polygon class="cls-4" points="3.8 197.9 8.8 197.9 8.8 193.9 12.8 193.9 12.8 197.9 16.8 197.9 16.8 190.9 20.6 190.9 10.7 180.6 0 190.9 3.8 190.9 3.8 197.9"/><path class="cls-4" d="M229.6,181.5l3.2,3.3,2.1-2.3-2.9-3.3s4-1.1,6.3,1.8a4.87,4.87,0,0,1,.7,5.5s14.7,11.7,13.6,14.7l-1.5,1.2s-2.2,4-14.5-13.2c0,0-4.7,1.4-6.9-1.8A5.29,5.29,0,0,1,229.6,181.5Z" transform="translate(-0.8 -1)"/><g id="UsXv8s-2" data-name="UsXv8s"><path class="cls-4" d="M366.2,178.3c.3.1.5.2.8.3a4.71,4.71,0,0,1-1.8,9.1,4.71,4.71,0,0,1-1.7-9.1c.3-.1.5-.2.8-.3Z" transform="translate(-0.8 -1)"/><path class="cls-4" d="M369.2,188.2a12,12,0,0,1,5.1,2.4,5.83,5.83,0,0,1,2.2,4.6c0,1.1-.1,2.2,0,3.2.1,1.8-.6,2-2.4,1.8-.2,0-.4-.2-.8-.5v-3.6h-1v5.2a19.92,19.92,0,0,1-1.9,1.2,14.06,14.06,0,0,1-9.9,0,7.24,7.24,0,0,1-1.9-1.1v-5.2a3.75,3.75,0,0,1-1-.1v2.3c0,.6.2,1.4-.6,1.7a2.53,2.53,0,0,1-2.5-.3c0-.3-.1-.7-.1-1v-3.7a5.24,5.24,0,0,1,1.8-4.1,11.24,11.24,0,0,1,5.4-2.8A7,7,0,0,0,369.2,188.2Z" transform="translate(-0.8 -1)"/></g><path class="cls-4" d="M119.5,195.2a2.52,2.52,0,0,0-2,.9l-2.5-1.5a5.45,5.45,0,0,0,.5-2.2,5.14,5.14,0,0,0-1-3l2-1.9a1.93,1.93,0,0,0,1,.3,2,2,0,1,0-2-2,2.39,2.39,0,0,0,.2.9l-2,1.9a4.87,4.87,0,0,0-3.3-1.3,5.07,5.07,0,0,0-1.3.2l-.8-2.1a3.71,3.71,0,0,0,2-3.3,3.8,3.8,0,1,0-3.8,3.8,2.77,2.77,0,0,0,.9-.1l.8,2.1a4.89,4.89,0,0,0-2.7,3.9l-3.2-.1a2.82,2.82,0,0,0-5.6.4,2.82,2.82,0,0,0,5.6.5l3.2.1a5.24,5.24,0,0,0,3.1,4.3l-.7,2.6h0a2,2,0,1,0,2,2,2.06,2.06,0,0,0-1-1.7l.7-2.6a2.77,2.77,0,0,0,.9.1,5.07,5.07,0,0,0,4-2l2.5,1.5a2.92,2.92,0,0,0-.2.9,2.7,2.7,0,1,0,5.4,0A2.61,2.61,0,0,0,119.5,195.2Z" transform="translate(-0.8 -1)"/><path class="cls-4" d="M516,192.9a13.1,13.1,0,1,0,13.1-13.1A13.14,13.14,0,0,0,516,192.9Zm2.8,0a13.55,13.55,0,0,1,.2-2h2.7a14.5,14.5,0,0,0,0,3.4h-2.8A7.08,7.08,0,0,1,518.8,192.9Zm1.1-4.8a10.1,10.1,0,0,1,3.5-3.9,22.41,22.41,0,0,0-1.4,3.9Zm7.7-5.5h0l.1,5.5H525A16.35,16.35,0,0,1,527.6,182.6Zm2.9,0h0a14.16,14.16,0,0,1,2.7,5.5h-2.7Zm4.3,1.6a10.1,10.1,0,0,1,3.5,3.9h-2.2A19.84,19.84,0,0,0,534.8,184.2Zm4.5,6.7a12.31,12.31,0,0,1,.2,2,6.6,6.6,0,0,1-.1,1.4h-2.8c0-.6.1-1.1.1-1.7a9.7,9.7,0,0,0-.1-1.7Zm-.7,6.2a10.66,10.66,0,0,1-4.2,4.7,20.7,20.7,0,0,0,1.8-4.7Zm-14.8,4.7a10.66,10.66,0,0,1-4.2-4.7H522A38,38,0,0,0,523.8,201.8Zm.6-10.9h3.3v3.4h-3.3a9.7,9.7,0,0,1-.1-1.7C524.3,192,524.4,191.5,524.4,190.9Zm6.1,0h3.3a14.5,14.5,0,0,1,0,3.4h-3.3Zm-5.5,6.2h2.7v5.6A17.08,17.08,0,0,1,525,197.1Zm5.5,0h2.7a19.33,19.33,0,0,1-2.7,5.6Z" transform="translate(-0.8 -1)"/></svg>