<?xml version="1.0" encoding="UTF-8" standalone="no"?>
<svg width="16px" height="16px" viewBox="0 0 16 16" version="1.1" xmlns="http://www.w3.org/2000/svg" xmlns:xlink="http://www.w3.org/1999/xlink" xmlns:sketch="http://www.bohemiancoding.com/sketch/ns">
    <!-- Generator: Sketch 3.3.2 (12043) - http://www.bohemiancoding.com/sketch -->
    <title>Imported Layers</title>
    <desc>Created with Sketch.</desc>
    <defs></defs>
    <g id="Page-1" stroke="none" stroke-width="1" fill="none" fill-rule="evenodd" sketch:type="MSPage">
        <g id="Imported-Layers" sketch:type="MSLayerGroup">
            <path d="M15.916,7.871 C15.916,12.037 12.533,15.414 8.363,15.414 C4.191,15.414 0.809,12.037 0.809,7.871 C0.809,3.705 4.191,0.328 8.363,0.328 C12.533,0.328 15.916,3.705 15.916,7.871" id="Fill-1" fill="#F46E49" sketch:type="MSShapeGroup"></path>
            <path d="M7.299,9.602 L7.299,9.115 C7.299,8.695 7.388,8.332 7.567,8.022 C7.747,7.711 8.075,7.381 8.553,7.031 C9.012,6.703 9.315,6.436 9.462,6.231 C9.608,6.025 9.682,5.797 9.682,5.543 C9.682,5.258 9.576,5.043 9.366,4.893 C9.156,4.744 8.863,4.67 8.486,4.67 C7.83,4.67 7.082,4.885 6.241,5.312 L5.525,3.877 C6.502,3.33 7.537,3.057 8.631,3.057 C9.532,3.057 10.249,3.273 10.781,3.707 C11.313,4.139 11.579,4.717 11.579,5.438 C11.579,5.918 11.47,6.334 11.251,6.684 C11.031,7.033 10.616,7.426 10.003,7.863 C9.583,8.174 9.317,8.41 9.205,8.572 C9.094,8.733 9.038,8.945 9.038,9.207 L9.038,9.602 L7.299,9.602 L7.299,9.602 Z M7.088,11.844 C7.088,11.477 7.187,11.199 7.384,11.01 C7.581,10.822 7.867,10.729 8.244,10.729 C8.607,10.729 8.888,10.824 9.087,11.018 C9.286,11.209 9.386,11.484 9.386,11.844 C9.386,12.19 9.285,12.461 9.084,12.66 C8.883,12.858 8.603,12.957 8.244,12.957 C7.876,12.957 7.592,12.861 7.391,12.666 C7.189,12.471 7.088,12.197 7.088,11.844 L7.088,11.844 Z" id="Fill-2" fill="#FFFFFF" sketch:type="MSShapeGroup"></path>
        </g>
    </g>
</svg>