<?xml version="1.0" encoding="utf-8"?>
<!-- Generator: Adobe Illustrator 17.1.0, SVG Export Plug-In . SVG Version: 6.00 Build 0)  -->
<!DOCTYPE svg PUBLIC "-//W3C//DTD SVG 1.1//EN" "http://www.w3.org/Graphics/SVG/1.1/DTD/svg11.dtd">
<svg version="1.1" id="Capa_1" xmlns="http://www.w3.org/2000/svg" xmlns:xlink="http://www.w3.org/1999/xlink" x="0px" y="0px"
	 viewBox="0 0 183 69.75" enable-background="new 0 0 183 69.75" xml:space="preserve">
<g>
	<g>
		<path fill="#1B85C7" d="M109.283,14.533c-2.28-1.182-6.257-2.789-11.584-2.789c-6.596,0-9.557,3.551-9.557,7.188
			c0,4.65,3.215,6.766,11.163,10.402c10.404,4.65,15.057,10.656,15.057,19.199c0,11.332-8.544,19.619-23.683,19.619
			c-6.43,0-12.941-1.773-15.985-3.637l2.452-10.488c3.386,2.031,8.798,3.639,14.042,3.639c6.935,0,10.571-3.297,10.571-8.119
			c0-4.652-3.129-7.441-10.318-10.57c-9.81-4.229-15.901-10.318-15.901-18.777c0-10.656,8.375-18.859,22.415-18.859
			c6.171,0,10.909,1.438,13.952,2.959L109.283,14.533z"/>
		<path fill="#1B85C7" d="M125.179,14.024c-3.974,0-6.68-2.871-6.68-6.678c0-3.891,2.789-6.684,6.68-6.684
			c4.061,0,6.766,2.793,6.766,6.684C131.944,11.404,129.07,14.024,125.179,14.024z M131.523,67.307h-12.516V20.199h12.516V67.307z"
			/>
		<path fill="#1B85C7" d="M169.576,32.547c7.275,1.861,12.688,7.611,12.688,15.902c0,5.074-2.113,9.975-5.922,13.363
			c-4.398,3.973-11.672,6.088-23.256,6.088c-6.171,0-10.824-0.422-13.87-0.846V3.117c3.721-0.762,10.148-1.353,16.492-1.353
			c7.864,0,13.444,1.014,17.928,4.144c3.893,2.621,6.345,6.934,6.345,12.262c0,5.92-3.469,11.416-10.405,14.039V32.547z
			 M156.214,28.742c7.105,0,11.332-3.807,11.332-9.135c0-6.428-4.819-8.541-10.398-8.541c-2.709,0-4.399,0.17-5.5,0.422v17.254
			H156.214z M151.648,58.174c1.27,0.25,2.791,0.338,4.989,0.338c6.768,0,12.517-3.045,12.517-10.4
			c0-7.529-6.427-10.234-12.854-10.234h-4.652V58.174z"/>
	</g>
	<g>
		<defs>
			<path id="SVGID_15_" d="M5.43,15.996c14.928-7.58,32.719-11.041,49.399-9.553c7.369,14.76,10.785,32.365,8.82,48.789
				c-14.403,7.746-31.845,11.137-48.104,9.402C7.581,50.105,4.15,32.475,5.43,15.996z"/>
		</defs>
		<use xlink:href="#SVGID_15_"  overflow="visible" fill-rule="evenodd" clip-rule="evenodd" fill="#EF844C"/>
		<clipPath id="SVGID_1_">
			<use xlink:href="#SVGID_15_"  overflow="visible"/>
		</clipPath>
	</g>
	<g>
		<defs>
			<path id="SVGID_2_" d="M0.645,26.586C12.291,14.559,27.985,5.496,44.24,1.473c11.773,11.559,20.738,27.09,24.225,43.26
				C57.37,56.744,41.983,65.631,26.045,69.281C13.781,58.137,4.799,42.584,0.645,26.586z"/>
		</defs>
		<use xlink:href="#SVGID_2_"  overflow="visible" fill-rule="evenodd" clip-rule="evenodd" fill="#FDD732"/>
		<clipPath id="SVGID_3_">
			<use xlink:href="#SVGID_2_"  overflow="visible"/>
		</clipPath>
		<g clip-path="url(#SVGID_3_)">
			<g>
				<defs>
					<path id="SVGID_4_" d="M5.43,15.996c14.928-7.58,32.719-11.041,49.399-9.553c7.369,14.76,10.785,32.365,8.82,48.789
						c-14.403,7.746-31.845,11.137-48.104,9.402C7.581,50.105,4.15,32.475,5.43,15.996z"/>
				</defs>
				<use xlink:href="#SVGID_4_"  overflow="visible" fill-rule="evenodd" clip-rule="evenodd" fill="#F5B219"/>
				<clipPath id="SVGID_5_">
					<use xlink:href="#SVGID_4_"  overflow="visible"/>
				</clipPath>
			</g>
		</g>
	</g>
	<g>
		<defs>
			<path id="SVGID_21_" d="M0,41.139C5.749,25.414,16.4,10.752,29.611,0.463C45.069,6.234,59.577,16.777,69.34,30.131
				c-5.251,15.488-15.693,29.863-28.769,39.682C24.836,64.619,10.303,54.062,0,41.139z"/>
		</defs>
		<use xlink:href="#SVGID_21_"  overflow="visible" fill-rule="evenodd" clip-rule="evenodd" fill="#AAD5F1"/>
		<clipPath id="SVGID_6_">
			<use xlink:href="#SVGID_21_"  overflow="visible"/>
		</clipPath>
		<g clip-path="url(#SVGID_6_)">
			<g>
				<defs>
					<path id="SVGID_23_" d="M5.43,15.996c14.928-7.58,32.719-11.041,49.399-9.553c7.369,14.76,10.785,32.365,8.82,48.789
						c-14.403,7.746-31.845,11.137-48.104,9.402C7.581,50.105,4.15,32.475,5.43,15.996z"/>
				</defs>
				<use xlink:href="#SVGID_23_"  overflow="visible" fill-rule="evenodd" clip-rule="evenodd" fill="#D6A788"/>
				<clipPath id="SVGID_7_">
					<use xlink:href="#SVGID_23_"  overflow="visible"/>
				</clipPath>
			</g>
			<g>
				<defs>
					<path id="SVGID_8_" d="M0.645,26.586C12.291,14.559,27.985,5.496,44.24,1.473c11.773,11.559,20.738,27.09,24.225,43.26
						C57.37,56.744,41.983,65.631,26.045,69.281C13.781,58.137,4.799,42.584,0.645,26.586z"/>
				</defs>
				<use xlink:href="#SVGID_8_"  overflow="visible" fill-rule="evenodd" clip-rule="evenodd" fill="#AEC874"/>
				<clipPath id="SVGID_9_">
					<use xlink:href="#SVGID_8_"  overflow="visible"/>
				</clipPath>
				<g clip-path="url(#SVGID_9_)">
					<g>
						<defs>
							<path id="SVGID_10_" d="M5.43,15.996c14.928-7.58,32.719-11.041,49.399-9.553c7.369,14.76,10.785,32.365,8.82,48.789
								c-14.403,7.746-31.845,11.137-48.104,9.402C7.581,50.105,4.15,32.475,5.43,15.996z"/>
						</defs>
						<use xlink:href="#SVGID_10_"  overflow="visible" fill-rule="evenodd" clip-rule="evenodd" fill="#AEB555"/>
						<clipPath id="SVGID_11_">
							<use xlink:href="#SVGID_10_"  overflow="visible"/>
						</clipPath>
					</g>
				</g>
			</g>
		</g>
	</g>
	<g>
		<circle fill="#FFFFFF" cx="24.463" cy="40.604" r="18.526"/>
		<path fill="#FFFFFF" d="M24.464,40.604"/>
	</g>
	<g>
		<circle fill="#1B85C7" cx="24.463" cy="40.604" r="9.263"/>
		<path fill="#AAD5F1" d="M24.464,40.604"/>
	</g>
	<g>
		<circle fill="#FFFFFF" cx="54.623" cy="7.291" r="7.29"/>
		<path fill="#FFFFFF" d="M54.624,7.291"/>
	</g>
	<g>
		<circle fill="#1B85C7" cx="54.623" cy="7.291" r="3.645"/>
		<path fill="#AAD5F1" d="M54.624,7.291"/>
	</g>
	<g>
		<path fill="#FFFFFF" d="M60.881,50.545c0-2.236,1.812-4.049,4.048-4.049c2.234,0,4.048,1.812,4.048,4.049
			c0,2.233-1.813,4.045-4.048,4.045C62.692,54.59,60.881,52.777,60.881,50.545z"/>
		<path fill="#FFFFFF" d="M64.929,50.545"/>
	</g>
	<g>
		<path fill="#AAD5F1" d="M62.904,50.545c0-1.119,0.906-2.027,2.024-2.027c1.118,0,2.024,0.908,2.024,2.027
			c0,1.115-0.906,2.024-2.024,2.024C63.811,52.568,62.904,51.66,62.904,50.545z"/>
		<path fill="#AAD5F1" d="M64.929,50.545"/>
	</g>
	<path fill-rule="evenodd" clip-rule="evenodd" fill="#FFFFFF" d="M38.17,53.039c0,0,4.86-6.387,12.136-5.297
		c0.298,0.045,5.8,0.289,9.983,3.771c0.104,0.084,0.682,0.457,1.332,1.379c0,0.025,1.152-5.766,1.152-5.766
		s-2.661,1.789-7.962,0.402c-0.274-0.072-10.236-0.945-12.569-12.15C42.204,35.193,38.17,53.039,38.17,53.039z"/>
</g>
</svg>
