<?xml version="1.0" encoding="UTF-8" standalone="no"?>
<svg width="183px" height="93px" viewBox="0 0 183 93" version="1.1" xmlns="http://www.w3.org/2000/svg" xmlns:xlink="http://www.w3.org/1999/xlink" xmlns:sketch="http://www.bohemiancoding.com/sketch/ns">
    <!-- Generator: Sketch 3.4 (15575) - http://www.bohemiancoding.com/sketch -->
    <title>logo-sib</title>
    <desc>Created with Sketch.</desc>
    <defs>
        <path id="path-1" d="M0,0.18410574 L182.842985,0.18410574 L182.842985,92.3293051 L0,92.3293051"></path>
        <path id="path-3" d="M0,0.18410574 L182.842985,0.18410574 L182.842985,92.3293051 L0,92.3293051 L0,0.18410574 Z"></path>
    </defs>
    <g id="Page-1" stroke="none" stroke-width="1" fill="none" fill-rule="evenodd" sketch:type="MSPage">
        <g id="logo-sib" sketch:type="MSLayerGroup">
            <path d="M60.963658,14.0885121 C60.963658,17.4483036 58.2407728,20.1728474 54.8804284,20.1728474 C51.5162139,20.1728474 48.7905644,17.4483036 48.7905644,14.0885121 C48.7905644,10.7270619 51.5162139,8.00141239 54.8804284,8.00141239 C58.2407728,8.00141239 60.963658,10.7270619 60.963658,14.0885121 M2.10953112,34.8642644 C7.69296616,55.5476873 19.3286701,75.6345634 35.0312864,90.2004789 C53.3224405,85.8184305 71.0623831,76.2532251 84.9725946,63.3674819 C84.6674103,63.1109502 84.3788121,62.8334094 84.1150931,62.5332009 L84.1145402,62.5354124 C84.1145402,62.5354124 80.7436912,59.0340861 75.4936369,58.6791435 C69.436945,58.2700196 61.5519118,67.2884366 61.5519118,67.2884366 L61.5519118,67.2856722 C56.9227305,72.7999985 49.9797879,76.3063006 42.216939,76.3063006 C28.279084,76.3063006 16.9806308,65.0078474 16.9806308,51.0699924 C16.9806308,37.1326903 28.279084,25.8342372 42.216939,25.8342372 C45.2096248,25.8342372 48.0806792,26.3550408 50.7438544,27.311506 C56.9603257,29.5423369 62.0428604,34.146639 64.9105976,40.0286239 L64.9117033,40.0208837 C64.9117033,40.0208837 70.3851172,51.3630136 76.29751,52.4510619 C81.4259329,53.3942583 85.741084,50.7736541 85.741084,50.7736541 L85.7405311,50.7753127 C86.3381837,50.386645 86.9949934,50.0792492 87.6954798,49.8625242 C82.0589692,32.1176057 71.6661172,15.3645363 58.6194888,2.30850906 C37.6281172,7.72221299 17.3405492,19.4353187 2.10953112,34.8642644" id="Fill-1" fill="#ADC872" sketch:type="MSShapeGroup"></path>
            <path d="M82.9496429,28.818464 C83.668374,31.4761106 84.302516,34.1614006 84.8448816,36.8654882 C86.4200085,40.35631 87.8193227,43.9145819 89.030661,47.5192949 C90.1706792,44.9163825 91.2039934,42.2808508 92.1217577,39.6204399 C89.3325281,35.8443372 86.2580175,32.2363069 82.9496429,28.818464" id="Fill-3" fill="#F9BA33" sketch:type="MSShapeGroup"></path>
            <path d="M47.5599861,3.66248792 C44.8564514,2.39420393 42.1186387,1.23151813 39.3576054,0.184382175 C35.5527535,3.17596224 31.907681,6.43900151 28.4505843,9.92705891 C31.5096145,9.0695574 34.6045813,8.3209713 37.7244272,7.68904079 C40.9542943,6.20403172 44.2388955,4.86000453 47.5599861,3.66248792" id="Fill-5" fill="#F9BA33" sketch:type="MSShapeGroup"></path>
            <path d="M45.6582789,89.1662248 C48.3678952,90.3383094 51.113448,91.3965027 53.8866444,92.3291946 C57.8700734,89.3072066 61.6688438,85.9673184 65.247019,82.3675813 C62.5550946,83.1780888 59.8299979,83.8957142 57.0794692,84.5121644 C53.3470432,86.2719498 49.5294752,87.8271734 45.6582789,89.1662248" id="Fill-7" fill="#F9BA33" sketch:type="MSShapeGroup"></path>
            <g id="Group-11">
                <mask id="mask-2" sketch:name="Clip 10" fill="white">
                    <use xlink:href="#path-1"></use>
                </mask>
                <g id="Clip-10"></g>
                <path d="M3.52377281,45.7681341 C2.23503263,48.5512822 1.05686647,51.3703668 -0.000221148036,54.2159891 C3.19923807,58.1916779 6.69890574,61.9970828 10.4451535,65.5885269 C9.48702961,62.5018532 8.64943142,59.3709498 7.93899335,56.2085329 C6.30360363,52.7873728 4.8307577,49.2987625 3.52377281,45.7681341" id="Fill-9" fill="#F9BA33" sketch:type="MSShapeGroup" mask="url(#mask-2)"></path>
            </g>
            <path d="M20.6709281,84.8498021 C22.9083934,85.075926 25.1624447,85.2329411 27.4281063,85.3158716 C21.5815051,78.9009199 16.432626,71.7290891 12.09149,64.1011405 C14.2720097,71.3376571 17.1353239,78.3242764 20.6709281,84.8498021" id="Fill-12" fill="#BAE1F4" sketch:type="MSShapeGroup"></path>
            <path d="M84.5733671,72.340287 C84.8133127,70.2360634 84.9902311,68.1180181 85.1002523,65.9883625 C79.036926,71.4324743 72.3079441,76.2606888 65.1521465,80.337 C71.912642,78.2742417 78.4459079,75.5983505 84.5733671,72.340287" id="Fill-14" fill="#BAE1F4" sketch:type="MSShapeGroup"></path>
            <path d="M7.21578399,20.2341607 C7.03775982,22.6922211 6.93934894,25.1690792 6.9161284,27.6569946 C13.9414486,21.4924931 21.7667719,16.0638616 30.0708807,11.5496773 C22.1250317,13.7014477 14.42521,16.6145202 7.21578399,20.2341607" id="Fill-16" fill="#BAE1F4" sketch:type="MSShapeGroup"></path>
            <path d="M72.841906,7.52135529 C70.5264861,7.32729789 68.1955858,7.20345498 65.8536281,7.14982659 C71.6178517,13.8130169 76.7247127,21.1932798 80.9713079,29.023026 C78.9312172,21.5576211 76.1961689,14.3183402 72.841906,7.52135529" id="Fill-18" fill="#BAE1F4" sketch:type="MSShapeGroup"></path>
            <path d="M29.6665668,52.2338946 C29.0235789,45.3014565 34.1221468,39.157964 41.0523734,38.5149761 C47.9853644,37.8725411 54.1266453,42.9738734 54.7696332,49.9063115 C55.4120683,56.8348795 50.3129474,62.9745018 43.3805094,63.6169369 C36.4497299,64.2599248 30.3090018,59.1624625 29.6665668,52.2338946" id="Fill-20" fill="#53A3DA" sketch:type="MSShapeGroup"></path>
            <path d="M86.1106224,57.7194716 C85.9104834,55.5605139 87.4983263,53.6509006 89.657284,53.4507616 C91.8140302,53.2506227 93.7247492,54.8362541 93.9248882,56.9946589 C94.1250272,59.1552752 92.5388429,61.0665471 90.3820967,61.2666861 C88.223139,61.4668251 86.3107613,59.8800879 86.1106224,57.7194716" id="Fill-22" fill="#53A3DA" sketch:type="MSShapeGroup"></path>
            <path d="M51.8334508,14.0884568 C51.8334508,12.4088375 53.1968284,11.0432483 54.8803178,11.0432483 C56.5577257,11.0432483 57.9216562,12.4088375 57.9216562,14.0884568 C57.9216562,15.7680761 56.5577257,17.1320066 54.8803178,17.1320066 C53.1968284,17.1320066 51.8334508,15.7680761 51.8334508,14.0884568" id="Fill-24" fill="#53A3DA" sketch:type="MSShapeGroup"></path>
            <path d="M115.323891,34.3918369 C108.854205,31.4323233 106.238577,29.7117915 106.238577,25.9257372 C106.238577,22.9662236 108.647432,20.0758187 114.016353,20.0758187 C118.35196,20.0758187 121.587356,21.3833565 123.445553,22.3470091 L125.579631,14.018574 C123.101667,12.7795921 119.247057,11.609719 114.222574,11.609719 C102.79696,11.609719 95.9828366,18.2861782 95.9828366,26.9584985 C95.9828366,33.8411782 100.938764,38.7971057 108.922761,42.2381692 C114.773232,44.7852417 117.319752,47.056432 117.319752,50.8419335 C117.319752,54.7650997 114.360238,57.449284 108.71654,57.449284 C104.448936,57.449284 100.043667,56.1417462 97.2909272,54.4897704 L97.2771054,54.5489275 C97.6519514,55.4589517 97.8614891,56.4541178 97.8614891,57.4990423 C97.8614891,59.7094169 96.9315616,61.6991964 95.4482112,63.1117795 C97.9836734,64.5940242 103.172912,65.9844924 108.303547,65.9844924 C120.623704,65.9844924 127.575492,59.2389245 127.575492,50.0159456 C127.575492,43.06471 123.789991,38.1773384 115.323891,34.3918369" id="Fill-26" fill="#53A3DA" sketch:type="MSShapeGroup"></path>
            <path d="M136.384427,11.0590051 C133.21814,11.0590051 130.946949,13.3301955 130.946949,16.4964825 C130.946949,19.5936607 133.149584,21.9339598 136.384427,21.9339598 C139.550714,21.9339598 141.891013,19.8004341 141.891013,16.4964825 C141.891013,13.3301955 139.688378,11.0590051 136.384427,11.0590051" id="Fill-28" fill="#53A3DA" sketch:type="MSShapeGroup"></path>
            <mask id="mask-4" sketch:name="Clip 31" fill="white">
                <use xlink:href="#path-3"></use>
            </mask>
            <g id="Clip-31"></g>
            <path d="M131.360275,65.2961692 L141.546906,65.2961692 L141.546906,26.9584985 L131.360275,26.9584985 L131.360275,65.2961692 Z" id="Fill-30" fill="#53A3DA" sketch:type="MSShapeGroup" mask="url(#mask-4)"></path>
            <path d="M161.987509,58.1378284 C160.197868,58.1378284 158.959439,58.0692725 157.926678,57.8624991 L157.926678,41.3438465 L161.712179,41.3438465 C166.943436,41.3438465 172.17414,43.5459281 172.17414,49.6722816 C172.17414,55.6604175 167.493542,58.1378284 161.987509,58.1378284 L161.987509,58.1378284 Z M157.926678,19.8692665 C158.821222,19.6624931 160.197868,19.5248284 162.400503,19.5248284 C166.943436,19.5248284 170.866602,21.2453601 170.866602,26.4766169 C170.866602,30.812777 167.424986,33.9099553 161.643624,33.9099553 L157.926678,33.9099553 L157.926678,19.8692665 Z M172.518578,37.0071335 L172.518578,36.7323571 C178.162276,34.5982785 180.984125,30.1244538 180.984125,25.3067438 C180.984125,20.9705837 178.988264,17.4598586 175.82253,15.3263329 C172.17414,12.7798133 167.63176,11.9538254 161.23063,11.9538254 C156.067929,11.9538254 150.837225,12.4353752 147.809155,13.0551426 L147.809155,65.0896169 C150.286566,65.434055 154.072068,65.7779402 159.097104,65.7779402 C168.526303,65.7779402 174.445331,64.0574085 178.024611,60.8225656 C181.122343,58.0692725 182.842874,54.0769976 182.842874,49.947058 C182.842874,43.20149 178.437605,38.5219976 172.518578,37.0071335 L172.518578,37.0071335 Z" id="Fill-32" fill="#53A3DA" sketch:type="MSShapeGroup" mask="url(#mask-4)"></path>
            <path d="M107.353273,73.3955502 C105.87711,73.3955502 104.702814,74.1762027 103.830938,75.736955 C102.958509,77.2982601 102.522847,79.460535 102.522847,82.2248855 C102.522847,84.0233719 102.723539,85.5885471 103.126582,86.9215169 C103.529071,88.2544867 104.105715,89.278955 104.857065,89.9943689 C105.608968,90.7103356 106.480844,91.0674897 107.473799,91.0674897 C108.493844,91.0674897 109.370144,90.8844897 110.103802,90.517384 L110.103802,91.7248523 C109.40608,92.1278946 108.488869,92.3291393 107.353273,92.3291393 C106.109869,92.3291393 105.020162,91.9266498 104.085811,91.1211181 C103.150908,90.3166921 102.42886,89.151242 101.919113,87.6258734 C101.408814,86.1010577 101.153941,84.2915139 101.153941,82.1977949 C101.153941,79.0674444 101.710681,76.6071725 102.824715,74.817532 C103.938195,73.0289973 105.456929,72.1339006 107.380364,72.1339006 C108.578986,72.1339006 109.625569,72.4114414 110.520113,72.9659701 L109.916379,74.11981 C109.164476,73.6371544 108.310292,73.3955502 107.353273,73.3955502" id="Fill-33" fill="#53A3DA" sketch:type="MSShapeGroup" mask="url(#mask-4)"></path>
            <path d="M112.865278,84.7475211 C112.865278,86.8495332 113.115728,88.4373761 113.617181,89.5110498 C114.118081,90.5847236 114.900392,91.1215604 115.96522,91.1215604 C118.048988,91.1215604 119.091701,88.9968807 119.091701,84.7475211 C119.091701,80.5340982 118.048988,78.4271103 115.96522,78.4271103 C114.873302,78.4271103 114.084356,78.9551012 113.596725,80.0110831 C113.109093,81.0665121 112.865278,82.6455091 112.865278,84.7475211 M120.420247,84.7475211 C120.420247,87.1989471 120.033238,89.0753882 119.25922,90.3768444 C118.485755,91.6783006 117.378356,92.3290287 115.93813,92.3290287 C114.516148,92.3290287 113.426994,91.6783006 112.670667,90.3768444 C111.914894,89.0753882 111.537284,87.1989471 111.537284,84.7475211 C111.537284,79.7291193 113.02174,77.219642 115.992311,77.219642 C117.387202,77.219642 118.474145,77.8775574 119.252586,79.1922825 C120.031027,80.5070076 120.420247,82.3591224 120.420247,84.7475211" id="Fill-34" fill="#53A3DA" sketch:type="MSShapeGroup" mask="url(#mask-4)"></path>
            <path d="M124.219958,92.0606103 L122.945592,92.0606103 L122.945592,71.1814713 L124.219958,71.1814713 L124.219958,92.0606103 Z" id="Fill-35" fill="#53A3DA" sketch:type="MSShapeGroup" mask="url(#mask-4)"></path>
            <path d="M128.107187,84.7475211 C128.107187,86.8495332 128.357637,88.4373761 128.859091,89.5110498 C129.359991,90.5847236 130.142302,91.1215604 131.20713,91.1215604 C133.290897,91.1215604 134.33361,88.9968807 134.33361,84.7475211 C134.33361,80.5340982 133.290897,78.4271103 131.20713,78.4271103 C130.115211,78.4271103 129.326266,78.9551012 128.838634,80.0110831 C128.351003,81.0665121 128.107187,82.6455091 128.107187,84.7475211 M135.662157,84.7475211 C135.662157,87.1989471 135.275148,89.0753882 134.50113,90.3768444 C133.727665,91.6783006 132.620266,92.3290287 131.180039,92.3290287 C129.758057,92.3290287 128.668903,91.6783006 127.912577,90.3768444 C127.156804,89.0753882 126.779193,87.1989471 126.779193,84.7475211 C126.779193,79.7291193 128.26365,77.219642 131.234221,77.219642 C132.629112,77.219642 133.716054,77.8775574 134.494495,79.1922825 C135.272937,80.5070076 135.662157,82.3591224 135.662157,84.7475211" id="Fill-36" fill="#53A3DA" sketch:type="MSShapeGroup" mask="url(#mask-4)"></path>
            <path d="M150.534528,92.0607208 L150.534528,82.1444429 C150.534528,79.7024157 149.818562,78.4811257 148.387734,78.4811257 C147.403072,78.4811257 146.694293,78.9084943 146.26029,79.7626785 C145.82684,80.6168628 145.610115,81.875748 145.610115,83.539887 L145.610115,92.0607208 L144.348465,92.0607208 L144.348465,82.1444429 C144.348465,80.909884 144.173758,79.990461 143.824897,79.3867269 C143.476589,78.7829927 142.935329,78.4811257 142.20167,78.4811257 C141.235253,78.4811257 140.533108,78.9195517 140.095235,79.7964036 C139.656256,80.6727027 139.43732,82.0952375 139.43732,84.063455 L139.43732,92.0607208 L138.162402,92.0607208 L138.162402,77.5014399 L139.236075,77.5014399 L139.343332,79.5277088 L139.464411,79.5277088 C140.045477,77.9890713 141.034009,77.220029 142.429453,77.220029 C143.234985,77.220029 143.869679,77.4345426 144.334643,77.8641227 C144.80016,78.2931498 145.135752,78.9195517 145.34142,79.7422224 C145.690281,78.8482314 146.119861,78.2035849 146.629607,77.8099414 C147.139353,77.4168508 147.801692,77.220029 148.615516,77.220029 C149.715728,77.220029 150.52126,77.6424218 151.031006,78.4877601 C151.540752,79.3336514 151.795625,80.6865245 151.795625,82.5469323 L151.795625,92.0607208 L150.534528,92.0607208 Z" id="Fill-37" fill="#53A3DA" sketch:type="MSShapeGroup" mask="url(#mask-4)"></path>
            <path d="M159.274962,78.4273314 C158.156506,78.4273314 157.347104,78.9193858 156.846204,79.9034946 C156.345304,80.8876033 156.094853,82.5025369 156.094853,84.7477423 L156.094853,85.0833344 C156.094853,89.1441653 157.17295,91.17541 159.328591,91.17541 C160.312699,91.17541 161.048569,90.651842 161.535648,89.6052589 C162.023279,88.5586758 162.267095,86.9398722 162.267095,84.7477423 C162.267095,82.6451773 162.029914,81.0667332 161.556104,80.0107514 C161.081742,78.9553224 160.321545,78.4273314 159.274962,78.4273314 M159.328591,77.2469538 C162.173107,77.2469538 163.595642,79.7470323 163.595642,84.7477423 C163.595642,87.2168601 163.242358,89.0977242 162.535237,90.3903344 C161.828669,91.6829447 160.808624,92.3292498 159.476207,92.3292498 C158.778485,92.3292498 158.142684,92.1368511 157.570464,91.7520535 C156.998243,91.3678088 156.524434,90.7994583 156.147929,90.0481079 L156.041225,90.0481079 L155.866518,92.060555 L154.819935,92.060555 L154.819935,71.181416 L156.094853,71.181416 L156.094853,77.6627121 L156.041225,79.4202861 L156.147929,79.4202861 C156.917524,77.9712136 157.977376,77.2469538 159.328591,77.2469538" id="Fill-38" fill="#53A3DA" sketch:type="MSShapeGroup" mask="url(#mask-4)"></path>
            <path d="M167.39303,92.0606103 L166.118665,92.0606103 L166.118665,77.5013293 L167.39303,77.5013293 L167.39303,92.0606103 Z" id="Fill-39" fill="#53A3DA" sketch:type="MSShapeGroup" mask="url(#mask-4)"></path>
            <path d="M172.990563,91.2423625 C173.902799,91.2423625 174.611579,90.7923263 175.117455,89.8933595 C175.622225,88.9943927 175.87544,87.7222387 175.87544,86.0763444 L175.87544,84.5598218 L174.358917,84.6405408 C173.186832,84.7030151 172.317168,85.026997 171.74937,85.6130393 C171.18102,86.1990816 170.897397,87.0554773 170.897397,88.1827795 C170.897397,89.2382085 171.08482,90.0122266 171.460772,90.504281 C171.836724,90.9963353 172.34647,91.2423625 172.990563,91.2423625 L172.990563,91.2423625 Z M176.089953,92.0606103 L175.929068,90.0210725 L175.87544,90.0210725 C175.177718,91.55971 174.121736,92.3293051 172.7086,92.3293051 C171.760427,92.3293051 170.99802,91.951142 170.420823,91.1953686 C169.84418,90.4395952 169.555029,89.4261843 169.555029,88.1562417 C169.555029,86.7690906 169.97134,85.6710906 170.803409,84.8616888 C171.634926,84.052287 172.802588,83.6116495 174.305841,83.5397764 L175.87544,83.4596103 L175.87544,82.252142 C175.87544,80.8920816 175.705708,79.9013384 175.365693,79.2793595 C175.025125,78.6579335 174.462304,78.3466677 173.675017,78.3466677 C172.842947,78.3466677 171.993186,78.6197855 171.12518,79.1654683 L170.575074,78.1592447 C171.585721,77.5328429 172.646125,77.2199184 173.755183,77.2199184 C174.954358,77.2199184 175.817388,77.5980816 176.344826,78.3533021 C176.872817,79.1096284 177.137089,80.3729366 177.137089,82.1443323 L177.137089,92.0606103 L176.089953,92.0606103 Z" id="Fill-40" fill="#53A3DA" sketch:type="MSShapeGroup" mask="url(#mask-4)"></path>
            <path d="M167.829521,72.2554215 C167.829521,72.8486511 167.348524,73.3290952 166.755847,73.3290952 C166.162618,73.3290952 165.681621,72.8486511 165.681621,72.2554215 C165.681621,71.6621918 166.162618,71.1817477 166.755847,71.1817477 C167.348524,71.1817477 167.829521,71.6621918 167.829521,72.2554215" id="Fill-41" fill="#53A3DA" sketch:type="MSShapeGroup" mask="url(#mask-4)"></path>
        </g>
    </g>
</svg>