<?xml version="1.0" encoding="UTF-8" standalone="no"?>
<svg width="16px" height="16px" viewBox="0 0 16 16" version="1.1" xmlns="http://www.w3.org/2000/svg" xmlns:xlink="http://www.w3.org/1999/xlink" xmlns:sketch="http://www.bohemiancoding.com/sketch/ns">
    <!-- Generator: Sketch 3.3.2 (12043) - http://www.bohemiancoding.com/sketch -->
    <title>Imported Layers</title>
    <desc>Created with Sketch.</desc>
    <defs></defs>
    <g id="Page-1" stroke="none" stroke-width="1" fill="none" fill-rule="evenodd" sketch:type="MSPage">
        <g id="Imported-Layers" sketch:type="MSLayerGroup" transform="translate(0.000000, -1.000000)">
            <path d="M15.318,8.528 C15.318,12.694 11.936,16.071 7.766,16.071 C3.594,16.071 0.212,12.694 0.212,8.528 C0.212,4.362 3.594,0.985 7.766,0.985 C11.936,0.985 15.318,4.362 15.318,8.528" id="Fill-1" fill="#E05D55" sketch:type="MSShapeGroup"></path>
            <path d="M3.681,9.528 L11.85,9.528 C12.301,9.528 12.667,9.08 12.667,8.528 C12.667,7.975 12.301,7.528 11.85,7.528 L3.681,7.528 C3.229,7.528 2.864,7.975 2.864,8.528 C2.864,9.08 3.229,9.528 3.681,9.528" id="Fill-2" fill="#FFFFFF" sketch:type="MSShapeGroup"></path>
        </g>
    </g>
</svg>