<?xml version="1.0" encoding="UTF-8" standalone="no"?>
<svg width="21px" height="21px" viewBox="0 0 21 21" version="1.1" xmlns="http://www.w3.org/2000/svg" xmlns:xlink="http://www.w3.org/1999/xlink" xmlns:sketch="http://www.bohemiancoding.com/sketch/ns">
    <!-- Generator: Sketch 3.3.2 (12043) - http://www.bohemiancoding.com/sketch -->
    <title>Imported Layers</title>
    <desc>Created with Sketch.</desc>
    <defs></defs>
    <g id="Page-1" stroke="none" stroke-width="1" fill="none" fill-rule="evenodd" sketch:type="MSPage">
        <g id="Imported-Layers" sketch:type="MSLayerGroup" fill="#666464">
            <path d="M13.179,8.917 C13.179,6.93 11.561,5.314 9.575,5.314 C7.588,5.314 5.969,6.93 5.969,8.917 C5.969,10.903 7.588,12.521 9.575,12.521 C11.561,12.521 13.179,10.903 13.179,8.917" id="Fill-1" sketch:type="MSShapeGroup"></path>
            <path d="M10.849,0.271 C5.271,0.271 0.747,4.795 0.747,10.374 C0.747,15.952 5.271,20.477 10.849,20.477 C16.429,20.477 20.954,15.952 20.954,10.374 C20.954,4.795 16.429,0.271 10.849,0.271 L10.849,0.271 Z M15.409,16.925 L12.089,13.608 C11.337,14.015 10.489,14.266 9.575,14.266 C6.625,14.266 4.224,11.867 4.224,8.917 C4.224,5.967 6.625,3.566 9.575,3.566 C12.524,3.566 14.924,5.967 14.924,8.917 C14.924,10.318 14.371,11.583 13.486,12.538 L16.641,15.69 L15.409,16.925 L15.409,16.925 Z" id="Fill-2" sketch:type="MSShapeGroup"></path>
        </g>
    </g>
</svg>