<?xml version="1.0" encoding="utf-8"?>
<!-- Generator: Adobe Illustrator 17.1.0, SVG Export Plug-In . SVG Version: 6.00 Build 0)  -->
<!DOCTYPE svg PUBLIC "-//W3C//DTD SVG 1.1//EN" "http://www.w3.org/Graphics/SVG/1.1/DTD/svg11.dtd">
<svg version="1.1" id="Capa_1" xmlns="http://www.w3.org/2000/svg" xmlns:xlink="http://www.w3.org/1999/xlink" x="0px" y="0px"
	 viewBox="0 0 346.333 59.333" enable-background="new 0 0 346.333 59.333" xml:space="preserve">
<g>
	<g>
		<path fill="#1B85C7" d="M177.189,14.946c0,1.177-0.327,2.13-0.98,2.858c-0.654,0.729-1.484,1.094-2.491,1.094
			c-1.144,0-2.063-0.167-2.756-0.5v-1.04c0.34,0.189,0.762,0.34,1.265,0.451s1,0.167,1.491,0.167c0.732,0,1.334-0.278,1.805-0.834
			s0.706-1.262,0.706-2.118c0-0.791-0.167-1.419-0.5-1.883c-0.333-0.464-0.971-0.929-1.912-1.393
			c-0.739-0.373-1.292-0.733-1.657-1.084c-0.366-0.35-0.638-0.757-0.814-1.221c-0.177-0.464-0.265-1.02-0.265-1.667
			c0-0.706,0.144-1.334,0.432-1.883c0.288-0.55,0.69-0.977,1.206-1.28c0.517-0.304,1.082-0.456,1.697-0.456
			c0.556,0,1.061,0.062,1.515,0.187s0.812,0.259,1.074,0.402l-0.373,0.922c-0.726-0.373-1.464-0.56-2.216-0.56
			c-0.706,0-1.28,0.24-1.721,0.721c-0.441,0.481-0.662,1.117-0.662,1.908c0,0.804,0.16,1.429,0.48,1.873
			c0.32,0.444,0.948,0.905,1.883,1.383c0.967,0.471,1.675,1.021,2.123,1.652S177.189,14.044,177.189,14.946z"/>
		<path fill="#1B85C7" d="M179.622,18.702V4.364h0.96v14.338H179.622z"/>
		<path fill="#1B85C7" d="M189.223,14.946c0,1.177-0.327,2.13-0.98,2.858c-0.654,0.729-1.484,1.094-2.491,1.094
			c-1.144,0-2.063-0.167-2.756-0.5v-1.04c0.34,0.189,0.762,0.34,1.265,0.451c0.504,0.111,1.001,0.167,1.491,0.167
			c0.732,0,1.334-0.278,1.805-0.834s0.706-1.262,0.706-2.118c0-0.791-0.167-1.419-0.5-1.883c-0.334-0.464-0.971-0.929-1.912-1.393
			c-0.739-0.373-1.292-0.733-1.658-1.084c-0.365-0.35-0.637-0.757-0.813-1.221s-0.265-1.02-0.265-1.667
			c0-0.706,0.144-1.334,0.432-1.883c0.287-0.55,0.689-0.977,1.205-1.28c0.518-0.304,1.082-0.456,1.697-0.456
			c0.556,0,1.061,0.062,1.516,0.187c0.454,0.124,0.812,0.259,1.073,0.402l-0.372,0.922c-0.727-0.373-1.465-0.56-2.217-0.56
			c-0.706,0-1.279,0.24-1.721,0.721c-0.441,0.481-0.662,1.117-0.662,1.908c0,0.804,0.16,1.429,0.48,1.873s0.947,0.905,1.883,1.383
			c0.967,0.471,1.676,1.021,2.123,1.652S189.223,14.044,189.223,14.946z"/>
		<path fill="#1B85C7" d="M194.037,18.702h-0.961V5.286h-2.854V4.364h6.669v0.922h-2.854V18.702z"/>
		<path fill="#1B85C7" d="M203.825,18.702h-5.197V4.364h5.197v0.922h-4.236v5.443h4.001v0.922h-4.001v6.129h4.236V18.702z"/>
		<path fill="#1B85C7" d="M211.072,18.702l-3.814-13.053h-0.078c0.064,1.373,0.098,2.242,0.098,2.608v10.444h-0.922V4.364h1.422
			l3.217,10.964c0.287,0.968,0.474,1.792,0.559,2.472h0.078c0.066-0.483,0.269-1.301,0.608-2.451l3.188-10.984h1.472v14.338h-0.962
			V8.336c0-0.405,0.032-1.294,0.099-2.667h-0.079l-3.795,13.033H211.072z"/>
		<path fill="#1B85C7" d="M225.459,18.702l-1.266-5.197h-3.48l-1.246,5.197h-1l3.452-14.338h0.99l3.53,14.338H225.459z
			 M223.969,12.533l-1.266-5.345c-0.131-0.602-0.232-1.17-0.304-1.706c-0.06,0.568-0.15,1.138-0.274,1.706l-1.227,5.345H223.969z"/>
		<path fill="#1B85C7" d="M238.894,11.396c0,4.871-1.52,7.307-4.56,7.307h-2.55V4.364h2.608c1.478,0,2.597,0.597,3.358,1.79
			S238.894,9.095,238.894,11.396z M237.885,11.455c0-2.021-0.297-3.561-0.893-4.619c-0.595-1.06-1.475-1.589-2.638-1.589h-1.608
			v12.572h1.529c1.242,0,2.154-0.542,2.736-1.628C237.594,15.106,237.885,13.527,237.885,11.455z"/>
		<path fill="#1B85C7" d="M246.74,18.702h-5.197V4.364h5.197v0.922h-4.236v5.443h4.001v0.922h-4.001v6.129h4.236V18.702z"/>
		<path fill="#1B85C7" d="M253.047,18.702V4.364h0.961v14.338H253.047z"/>
		<path fill="#1B85C7" d="M264.697,18.702h-1.227l-5.423-12.857h-0.078c0.078,0.89,0.118,1.746,0.118,2.57v10.287h-0.941V4.364
			h1.244l5.385,12.71h0.059c-0.053-1.072-0.078-1.968-0.078-2.688V4.364h0.941V18.702z"/>
		<path fill="#1B85C7" d="M268.797,18.702h-0.961V4.364h5.217v0.922h-4.256v6.08h4.021v0.932h-4.021V18.702z"/>
		<path fill="#1B85C7" d="M282.771,11.514c0,2.373-0.355,4.197-1.064,5.473c-0.709,1.274-1.734,1.912-3.074,1.912
			c-1.354,0-2.38-0.643-3.08-1.927c-0.699-1.285-1.049-3.11-1.049-5.478c0-2.472,0.347-4.312,1.039-5.521
			c0.693-1.209,1.732-1.814,3.119-1.814c1.334,0,2.352,0.636,3.055,1.907C282.42,7.338,282.771,9.153,282.771,11.514z
			 M275.504,11.514c0,2.132,0.267,3.741,0.8,4.83c0.532,1.089,1.31,1.633,2.329,1.633c1.026,0,1.807-0.539,2.339-1.618
			s0.8-2.693,0.8-4.845c0-2.125-0.262-3.729-0.785-4.811s-1.298-1.623-2.324-1.623c-1.053,0-1.842,0.548-2.368,1.643
			C275.768,7.818,275.504,9.415,275.504,11.514z"/>
		<path fill="#1B85C7" d="M286.391,12.436v6.267h-0.961V4.364h1.961c1.398,0,2.422,0.33,3.069,0.99
			c0.647,0.661,0.971,1.647,0.971,2.962c0,0.994-0.177,1.812-0.529,2.452s-0.944,1.121-1.775,1.441l2.845,6.492h-1.079l-2.677-6.267
			H286.391z M286.391,11.553h1.343c0.87,0,1.54-0.268,2.011-0.804s0.706-1.334,0.706-2.394c0-1.078-0.24-1.856-0.721-2.334
			c-0.48-0.477-1.237-0.716-2.271-0.716h-1.068V11.553z"/>
		<path fill="#1B85C7" d="M298.678,18.702l-3.814-13.053h-0.078c0.064,1.373,0.098,2.242,0.098,2.608v10.444h-0.922V4.364h1.422
			l3.217,10.964c0.287,0.968,0.474,1.792,0.559,2.472h0.078c0.066-0.483,0.269-1.301,0.608-2.451l3.188-10.984h1.472v14.338h-0.962
			V8.336c0-0.405,0.032-1.294,0.099-2.667h-0.079l-3.795,13.033H298.678z"/>
		<path fill="#1B85C7" d="M313.064,18.702l-1.265-5.197h-3.481l-1.245,5.197h-1.001l3.453-14.338h0.99l3.53,14.338H313.064z
			 M311.574,12.533l-1.265-5.345c-0.131-0.602-0.232-1.17-0.304-1.706c-0.06,0.568-0.15,1.138-0.275,1.706l-1.226,5.345H311.574z"/>
		<path fill="#1B85C7" d="M319.665,5.061c-1.079,0-1.937,0.57-2.575,1.712c-0.637,1.141-0.955,2.721-0.955,4.741
			c0,1.314,0.146,2.458,0.441,3.433c0.293,0.974,0.715,1.723,1.265,2.245c0.55,0.523,1.187,0.785,1.912,0.785
			c0.745,0,1.386-0.134,1.923-0.402v0.883c-0.511,0.294-1.181,0.441-2.011,0.441c-0.909,0-1.705-0.294-2.388-0.883
			c-0.684-0.589-1.212-1.439-1.584-2.555c-0.373-1.114-0.56-2.438-0.56-3.967c0-2.288,0.407-4.086,1.222-5.394
			c0.813-1.308,1.924-1.962,3.329-1.962c0.876,0,1.641,0.203,2.294,0.608l-0.44,0.843C320.988,5.237,320.364,5.061,319.665,5.061z"
			/>
		<path fill="#1B85C7" d="M324.049,18.702V4.364h0.961v14.338H324.049z"/>
		<path fill="#1B85C7" d="M335.936,11.514c0,2.373-0.355,4.197-1.064,5.473c-0.709,1.274-1.734,1.912-3.074,1.912
			c-1.354,0-2.381-0.643-3.08-1.927c-0.699-1.285-1.049-3.11-1.049-5.478c0-2.472,0.346-4.312,1.039-5.521
			c0.693-1.209,1.732-1.814,3.119-1.814c1.334,0,2.352,0.636,3.055,1.907C335.584,7.338,335.936,9.153,335.936,11.514z
			 M328.668,11.514c0,2.132,0.266,3.741,0.799,4.83s1.31,1.633,2.33,1.633c1.025,0,1.806-0.539,2.338-1.618
			c0.533-1.079,0.8-2.693,0.8-4.845c0-2.125-0.262-3.729-0.784-4.811c-0.523-1.082-1.299-1.623-2.324-1.623
			c-1.053,0-1.842,0.548-2.369,1.643C328.932,7.818,328.668,9.415,328.668,11.514z M331.08,3.217V3.011
			c0.83-1.085,1.455-2.089,1.873-3.011h1.227v0.167c-0.256,0.458-0.643,0.984-1.162,1.579s-1.012,1.085-1.477,1.471H331.08z"/>
		<path fill="#1B85C7" d="M346.145,18.702h-1.227l-5.424-12.857h-0.078c0.078,0.89,0.118,1.746,0.118,2.57v10.287h-0.941V4.364
			h1.245l5.385,12.71h0.059c-0.053-1.072-0.078-1.968-0.078-2.688V4.364h0.941V18.702z"/>
		<path fill="#1B85C7" d="M177.189,32.468c0,1.177-0.327,2.13-0.98,2.858c-0.654,0.729-1.484,1.094-2.491,1.094
			c-1.144,0-2.063-0.167-2.756-0.5v-1.04c0.34,0.189,0.762,0.34,1.265,0.451s1,0.167,1.491,0.167c0.732,0,1.334-0.278,1.805-0.834
			s0.706-1.262,0.706-2.118c0-0.791-0.167-1.419-0.5-1.883c-0.333-0.464-0.971-0.929-1.912-1.393
			c-0.739-0.373-1.292-0.733-1.657-1.084c-0.366-0.35-0.638-0.757-0.814-1.221c-0.177-0.464-0.265-1.02-0.265-1.667
			c0-0.706,0.144-1.334,0.432-1.883c0.288-0.55,0.69-0.977,1.206-1.28c0.517-0.304,1.082-0.456,1.697-0.456
			c0.556,0,1.061,0.062,1.515,0.187s0.812,0.259,1.074,0.402l-0.373,0.922c-0.726-0.373-1.464-0.56-2.216-0.56
			c-0.706,0-1.28,0.24-1.721,0.721c-0.441,0.481-0.662,1.117-0.662,1.908c0,0.804,0.16,1.429,0.48,1.873
			c0.32,0.444,0.948,0.905,1.883,1.383c0.967,0.471,1.675,1.021,2.123,1.652S177.189,31.565,177.189,32.468z"/>
		<path fill="#1B85C7" d="M187.408,29.035c0,2.373-0.355,4.197-1.064,5.473c-0.709,1.274-1.734,1.912-3.074,1.912
			c-1.354,0-2.38-0.643-3.08-1.927c-0.699-1.285-1.049-3.11-1.049-5.478c0-2.472,0.347-4.312,1.04-5.521
			c0.693-1.209,1.732-1.814,3.119-1.814c1.334,0,2.352,0.636,3.055,1.907C187.057,24.859,187.408,26.675,187.408,29.035z
			 M180.141,29.035c0,2.132,0.266,3.741,0.799,4.83c0.532,1.089,1.31,1.633,2.329,1.633c1.026,0,1.807-0.539,2.339-1.618
			s0.8-2.693,0.8-4.845c0-2.125-0.262-3.729-0.785-4.811s-1.298-1.623-2.324-1.623c-1.053,0-1.842,0.548-2.368,1.643
			C180.404,25.34,180.141,26.937,180.141,29.035z"/>
		<path fill="#1B85C7" d="M190.066,21.886h2.746c1.124,0,1.988,0.288,2.594,0.863c0.604,0.575,0.906,1.425,0.906,2.55
			c0,1.941-0.709,3.053-2.127,3.334v0.079c0.816,0.17,1.425,0.534,1.824,1.093c0.398,0.56,0.598,1.339,0.598,2.339
			c0,1.282-0.284,2.282-0.854,3.001c-0.568,0.72-1.366,1.079-2.393,1.079h-3.295V21.886z M191.027,28.271h1.805
			c0.896,0,1.535-0.247,1.917-0.741c0.382-0.493,0.573-1.243,0.573-2.25c0-0.811-0.211-1.432-0.633-1.863
			c-0.421-0.432-1.047-0.647-1.877-0.647h-1.785V28.271z M191.027,29.152v6.188h2.207c1.582,0,2.373-1.072,2.373-3.217
			c0-0.954-0.232-1.688-0.697-2.201c-0.464-0.514-1.114-0.771-1.951-0.771H191.027z"/>
		<path fill="#1B85C7" d="M199.922,29.957v6.267h-0.961V21.886h1.961c1.399,0,2.422,0.33,3.07,0.99
			c0.646,0.661,0.971,1.647,0.971,2.962c0,0.994-0.177,1.812-0.529,2.452c-0.354,0.641-0.945,1.121-1.775,1.441l2.844,6.492h-1.078
			l-2.678-6.267H199.922z M199.922,29.074h1.344c0.869,0,1.539-0.268,2.01-0.804s0.707-1.334,0.707-2.394
			c0-1.078-0.24-1.856-0.721-2.334c-0.48-0.477-1.238-0.716-2.271-0.716h-1.068V29.074z"/>
		<path fill="#1B85C7" d="M212.69,36.224h-5.197V21.886h5.197v0.922h-4.236v5.443h4.001v0.922h-4.001v6.129h4.236V36.224z"/>
		<path fill="#1B85C7" d="M218.996,21.886h2.746c1.125,0,1.989,0.288,2.594,0.863c0.605,0.575,0.907,1.425,0.907,2.55
			c0,1.941-0.71,3.053-2.128,3.334v0.079c0.817,0.17,1.426,0.534,1.824,1.093c0.398,0.56,0.598,1.339,0.598,2.339
			c0,1.282-0.283,2.282-0.853,3.001c-0.569,0.72-1.366,1.079-2.394,1.079h-3.295V21.886z M219.957,28.271h1.805
			c0.896,0,1.535-0.247,1.918-0.741c0.382-0.493,0.573-1.243,0.573-2.25c0-0.811-0.211-1.432-0.633-1.863
			c-0.421-0.432-1.048-0.647-1.878-0.647h-1.785V28.271z M219.957,29.152v6.188h2.207c1.582,0,2.373-1.072,2.373-3.217
			c0-0.954-0.232-1.688-0.696-2.201c-0.464-0.514-1.114-0.771-1.951-0.771H219.957z"/>
		<path fill="#1B85C7" d="M227.892,36.224V21.886h0.961v14.338H227.892z"/>
		<path fill="#1B85C7" d="M239.777,29.035c0,2.373-0.354,4.197-1.063,5.473c-0.71,1.274-1.734,1.912-3.075,1.912
			c-1.354,0-2.379-0.643-3.079-1.927c-0.699-1.285-1.05-3.11-1.05-5.478c0-2.472,0.348-4.312,1.04-5.521
			c0.692-1.209,1.732-1.814,3.118-1.814c1.334,0,2.353,0.636,3.056,1.907C239.426,24.859,239.777,26.675,239.777,29.035z
			 M232.511,29.035c0,2.132,0.267,3.741,0.8,4.83c0.532,1.089,1.309,1.633,2.328,1.633c1.027,0,1.807-0.539,2.34-1.618
			c0.532-1.079,0.799-2.693,0.799-4.845c0-2.125-0.262-3.729-0.785-4.811c-0.522-1.082-1.297-1.623-2.324-1.623
			c-1.053,0-1.842,0.548-2.367,1.643C232.773,25.34,232.511,26.937,232.511,29.035z"/>
		<path fill="#1B85C7" d="M249.545,28.917c0,4.871-1.52,7.307-4.56,7.307h-2.55V21.886h2.608c1.478,0,2.597,0.597,3.358,1.79
			S249.545,26.616,249.545,28.917z M248.535,28.977c0-2.021-0.297-3.561-0.893-4.619c-0.595-1.06-1.475-1.589-2.638-1.589h-1.608
			v12.572h1.529c1.242,0,2.154-0.542,2.736-1.628C248.244,32.628,248.535,31.049,248.535,28.977z"/>
		<path fill="#1B85C7" d="M252.193,36.224V21.886h0.961v14.338H252.193z"/>
		<path fill="#1B85C7" d="M261.568,21.886h0.99l-3.393,14.338h-1.069l-3.374-14.338h1.001l2.334,10.082
			c0.183,0.771,0.304,1.338,0.362,1.701s0.118,0.819,0.177,1.368c0.052-0.379,0.108-0.752,0.167-1.118s0.115-0.675,0.172-0.927
			C258.99,32.74,259.869,29.038,261.568,21.886z"/>
		<path fill="#1B85C7" d="M269.326,36.224h-5.197V21.886h5.197v0.922h-4.236v5.443h4v0.922h-4v6.129h4.236V36.224z"/>
		<path fill="#1B85C7" d="M272.817,29.957v6.267h-0.961V21.886h1.961c1.399,0,2.423,0.33,3.069,0.99
			c0.648,0.661,0.971,1.647,0.971,2.962c0,0.994-0.176,1.812-0.529,2.452c-0.353,0.641-0.944,1.121-1.775,1.441l2.845,6.492h-1.079
			l-2.677-6.267H272.817z M272.817,29.074h1.343c0.87,0,1.541-0.268,2.012-0.804s0.705-1.334,0.705-2.394
			c0-1.078-0.24-1.856-0.721-2.334c-0.48-0.477-1.236-0.716-2.27-0.716h-1.069V29.074z"/>
		<path fill="#1B85C7" d="M285.89,32.468c0,1.177-0.327,2.13-0.98,2.858c-0.654,0.729-1.484,1.094-2.491,1.094
			c-1.145,0-2.062-0.167-2.756-0.5v-1.04c0.34,0.189,0.762,0.34,1.266,0.451c0.503,0.111,1,0.167,1.49,0.167
			c0.732,0,1.334-0.278,1.805-0.834s0.706-1.262,0.706-2.118c0-0.791-0.167-1.419-0.501-1.883c-0.332-0.464-0.971-0.929-1.912-1.393
			c-0.738-0.373-1.291-0.733-1.656-1.084c-0.367-0.35-0.639-0.757-0.814-1.221c-0.177-0.464-0.266-1.02-0.266-1.667
			c0-0.706,0.145-1.334,0.432-1.883c0.288-0.55,0.69-0.977,1.207-1.28c0.516-0.304,1.082-0.456,1.696-0.456
			c0.556,0,1.061,0.062,1.515,0.187c0.455,0.124,0.812,0.259,1.074,0.402l-0.373,0.922c-0.725-0.373-1.464-0.56-2.216-0.56
			c-0.706,0-1.28,0.24-1.722,0.721c-0.441,0.481-0.661,1.117-0.661,1.908c0,0.804,0.159,1.429,0.48,1.873
			c0.32,0.444,0.948,0.905,1.883,1.383c0.968,0.471,1.675,1.021,2.123,1.652S285.89,31.565,285.89,32.468z"/>
		<path fill="#1B85C7" d="M288.322,36.224V21.886h0.961v14.338H288.322z"/>
		<path fill="#1B85C7" d="M299.531,28.917c0,4.871-1.52,7.307-4.561,7.307h-2.549V21.886h2.607c1.479,0,2.598,0.597,3.359,1.79
			S299.531,26.616,299.531,28.917z M298.521,28.977c0-2.021-0.298-3.561-0.893-4.619c-0.596-1.06-1.475-1.589-2.639-1.589h-1.607
			v12.572h1.529c1.242,0,2.154-0.542,2.736-1.628C298.23,32.628,298.521,31.049,298.521,28.977z"/>
		<path fill="#1B85C7" d="M307.602,36.224l-1.265-5.197h-3.481l-1.245,5.197h-1.001l3.453-14.338h0.99l3.53,14.338H307.602z
			 M306.111,30.055l-1.265-5.345c-0.131-0.602-0.232-1.17-0.304-1.706c-0.06,0.568-0.15,1.138-0.275,1.706l-1.226,5.345H306.111z"/>
		<path fill="#1B85C7" d="M317.262,28.917c0,4.871-1.52,7.307-4.56,7.307h-2.55V21.886h2.608c1.478,0,2.597,0.597,3.358,1.79
			S317.262,26.616,317.262,28.917z M316.252,28.977c0-2.021-0.297-3.561-0.893-4.619c-0.595-1.06-1.475-1.589-2.638-1.589h-1.608
			v12.572h1.529c1.242,0,2.154-0.542,2.736-1.628C315.961,32.628,316.252,31.049,316.252,28.977z"/>
		<path fill="#1B85C7" d="M178.798,46.438c0,4.871-1.52,7.307-4.56,7.307h-2.55V39.407h2.608c1.478,0,2.597,0.597,3.359,1.79
			S178.798,44.138,178.798,46.438z M177.788,46.498c0-2.021-0.297-3.561-0.892-4.619c-0.595-1.06-1.475-1.589-2.638-1.589h-1.608
			v12.572h1.53c1.242,0,2.154-0.542,2.736-1.628C177.497,50.149,177.788,48.57,177.788,46.498z"/>
		<path fill="#1B85C7" d="M186.643,53.745h-5.197V39.407h5.197v0.922h-4.236v5.443h4.002v0.922h-4.002v6.129h4.236V53.745z"/>
		<path fill="#1B85C7" d="M197,40.104c-1.079,0-1.938,0.57-2.574,1.712c-0.638,1.141-0.957,2.721-0.957,4.741
			c0,1.314,0.147,2.458,0.441,3.433c0.295,0.974,0.717,1.723,1.266,2.245c0.549,0.523,1.187,0.785,1.912,0.785
			c0.746,0,1.387-0.134,1.922-0.402V53.5c-0.51,0.294-1.18,0.441-2.01,0.441c-0.909,0-1.705-0.294-2.389-0.883
			c-0.683-0.589-1.211-1.439-1.584-2.555c-0.372-1.114-0.559-2.438-0.559-3.967c0-2.288,0.407-4.086,1.221-5.394
			c0.814-1.308,1.924-1.962,3.33-1.962c0.876,0,1.641,0.203,2.295,0.608l-0.441,0.843C198.324,40.28,197.699,40.104,197,40.104z"/>
		<path fill="#1B85C7" d="M209.17,46.557c0,2.373-0.355,4.197-1.064,5.473c-0.709,1.274-1.734,1.912-3.074,1.912
			c-1.354,0-2.38-0.643-3.08-1.927c-0.699-1.285-1.049-3.11-1.049-5.478c0-2.472,0.347-4.312,1.039-5.521
			c0.693-1.209,1.732-1.814,3.119-1.814c1.334,0,2.352,0.636,3.055,1.907C208.818,42.381,209.17,44.196,209.17,46.557z
			 M201.902,46.557c0,2.132,0.267,3.741,0.8,4.83c0.532,1.089,1.31,1.633,2.329,1.633c1.026,0,1.807-0.539,2.339-1.618
			s0.8-2.693,0.8-4.845c0-2.125-0.262-3.729-0.785-4.811s-1.298-1.623-2.324-1.623c-1.053,0-1.842,0.548-2.368,1.643
			C202.166,42.861,201.902,44.458,201.902,46.557z"/>
		<path fill="#1B85C7" d="M211.828,53.745V39.407h0.961v13.416h4.041v0.922H211.828z"/>
		<path fill="#1B85C7" d="M226.588,46.557c0,2.373-0.355,4.197-1.064,5.473c-0.709,1.274-1.734,1.912-3.074,1.912
			c-1.354,0-2.381-0.643-3.08-1.927c-0.699-1.285-1.049-3.11-1.049-5.478c0-2.472,0.346-4.312,1.039-5.521
			c0.693-1.209,1.732-1.814,3.119-1.814c1.334,0,2.352,0.636,3.055,1.907C226.236,42.381,226.588,44.196,226.588,46.557z
			 M219.32,46.557c0,2.132,0.266,3.741,0.799,4.83s1.31,1.633,2.33,1.633c1.025,0,1.806-0.539,2.338-1.618
			c0.533-1.079,0.8-2.693,0.8-4.845c0-2.125-0.262-3.729-0.784-4.811c-0.523-1.082-1.299-1.623-2.324-1.623
			c-1.053,0-1.842,0.548-2.369,1.643C219.584,42.861,219.32,44.458,219.32,46.557z"/>
		<path fill="#1B85C7" d="M233.962,53.745l-3.815-13.053h-0.078c0.065,1.373,0.099,2.242,0.099,2.608v10.444h-0.922V39.407h1.422
			l3.217,10.964c0.288,0.968,0.474,1.792,0.559,2.472h0.079c0.064-0.483,0.268-1.301,0.607-2.451l3.188-10.984h1.471v14.338h-0.961
			V43.379c0-0.405,0.033-1.294,0.098-2.667h-0.078l-3.795,13.033H233.962z"/>
		<path fill="#1B85C7" d="M242.926,39.407h2.746c1.124,0,1.988,0.288,2.594,0.863c0.604,0.575,0.906,1.425,0.906,2.55
			c0,1.941-0.709,3.053-2.127,3.334v0.079c0.816,0.17,1.425,0.534,1.824,1.093c0.398,0.56,0.598,1.339,0.598,2.339
			c0,1.282-0.284,2.282-0.854,3.001c-0.568,0.72-1.366,1.079-2.393,1.079h-3.295V39.407z M243.887,45.792h1.805
			c0.896,0,1.535-0.247,1.917-0.741c0.382-0.493,0.573-1.243,0.573-2.25c0-0.811-0.211-1.432-0.633-1.863
			c-0.421-0.432-1.047-0.647-1.877-0.647h-1.785V45.792z M243.887,46.674v6.188h2.207c1.582,0,2.373-1.072,2.373-3.217
			c0-0.954-0.232-1.688-0.697-2.201c-0.464-0.514-1.114-0.771-1.951-0.771H243.887z"/>
		<path fill="#1B85C7" d="M251.82,53.745V39.407h0.961v14.338H251.82z"/>
		<path fill="#1B85C7" d="M261.343,53.745l-1.265-5.197h-3.482l-1.244,5.197h-1.001l3.452-14.338h0.99l3.531,14.338H261.343z
			 M259.852,47.576l-1.264-5.345c-0.131-0.602-0.232-1.17-0.305-1.706c-0.059,0.568-0.15,1.138-0.274,1.706l-1.226,5.345H259.852z"
			/>
	</g>
	<g>
		<g>
			<g>
				<g>
					<g>
						<path fill="#1B85C7" d="M91.078,12.285c-1.902-0.987-5.22-2.329-9.665-2.329c-5.503,0-7.974,2.964-7.974,5.997
							c0,3.88,2.682,5.646,9.313,8.679c8.681,3.881,12.563,8.892,12.563,16.019c0,9.455-7.129,16.369-19.76,16.369
							c-5.365,0-10.797-1.479-13.337-3.034l2.046-8.75c2.825,1.695,7.34,3.035,11.716,3.035c5.786,0,8.82-2.751,8.82-6.772
							c0-3.882-2.611-6.209-8.609-8.82c-8.185-3.528-13.267-8.609-13.267-15.667c0-8.891,6.988-15.736,18.702-15.736
							c5.148,0,9.102,1.2,11.641,2.471L91.078,12.285z"/>
					</g>
				</g>
				<path fill="#1B85C7" d="M104.444,11.964c-3.315,0-5.574-2.398-5.574-5.575c0-3.245,2.327-5.574,5.574-5.574
					c3.388,0,5.645,2.329,5.645,5.574C110.089,9.776,107.691,11.964,104.444,11.964z M109.738,56.419H99.295V17.115h10.443V56.419z"
					/>
				<g>
					<g>
						<path fill="#1B85C7" d="M141.487,27.418c6.071,1.554,10.587,6.35,10.587,13.267c0,4.234-1.764,8.324-4.941,11.15
							c-3.669,3.316-9.738,5.078-19.403,5.078c-5.148,0-9.031-0.351-11.573-0.704V2.863c3.104-0.636,8.467-1.129,13.761-1.129
							c6.562,0,11.217,0.845,14.958,3.456c3.248,2.188,5.294,5.787,5.294,10.231c0,4.94-2.894,9.525-8.682,11.714V27.418z
							 M130.339,24.241c5.928,0,9.455-3.176,9.455-7.621c0-5.36-4.021-7.126-8.676-7.126c-2.26,0-3.669,0.143-4.588,0.352v14.396
							H130.339z M126.529,48.799c1.059,0.21,2.328,0.282,4.163,0.282c5.647,0,10.443-2.54,10.443-8.679
							c0-6.281-5.362-8.539-10.725-8.539h-3.881V48.799z"/>
					</g>
				</g>
			</g>
		</g>
		<g>
			<g>
				<defs>
					<path id="SVGID_15_" d="M4.53,13.608C16.985,7.283,31.83,4.396,45.747,5.637c6.149,12.316,8.999,27.006,7.359,40.71
						c-12.018,6.462-26.57,9.292-40.135,7.845C6.325,42.066,3.463,27.357,4.53,13.608z"/>
				</defs>
				<use xlink:href="#SVGID_15_"  overflow="visible" fill-rule="evenodd" clip-rule="evenodd" fill="#EF844C"/>
				<clipPath id="SVGID_1_">
					<use xlink:href="#SVGID_15_"  overflow="visible"/>
				</clipPath>
			</g>
			<g>
				<defs>
					<path id="SVGID_2_" d="M0.538,22.444C10.255,12.409,23.35,4.849,36.913,1.489c9.823,9.644,17.303,22.604,20.213,36.095
						c-9.258,10.023-22.096,17.437-35.395,20.483C11.499,48.77,4.004,35.793,0.538,22.444z"/>
				</defs>
				<use xlink:href="#SVGID_2_"  overflow="visible" fill-rule="evenodd" clip-rule="evenodd" fill="#FDD732"/>
				<clipPath id="SVGID_3_">
					<use xlink:href="#SVGID_2_"  overflow="visible"/>
				</clipPath>
				<g clip-path="url(#SVGID_3_)">
					<g>
						<defs>
							<path id="SVGID_4_" d="M4.53,13.608C16.985,7.283,31.83,4.396,45.747,5.637c6.149,12.316,8.999,27.006,7.359,40.71
								c-12.018,6.462-26.57,9.292-40.135,7.845C6.325,42.066,3.463,27.357,4.53,13.608z"/>
						</defs>
						<use xlink:href="#SVGID_4_"  overflow="visible" fill-rule="evenodd" clip-rule="evenodd" fill="#F5B219"/>
						<clipPath id="SVGID_5_">
							<use xlink:href="#SVGID_4_"  overflow="visible"/>
						</clipPath>
					</g>
				</g>
			</g>
			<g>
				<defs>
					<path id="SVGID_21_" d="M0,34.587C4.797,21.468,13.684,9.231,24.707,0.646C37.604,5.462,49.709,14.26,57.854,25.401
						C53.473,38.323,44.76,50.317,33.851,58.51C20.722,54.176,8.597,45.368,0,34.587z"/>
				</defs>
				<use xlink:href="#SVGID_21_"  overflow="visible" fill-rule="evenodd" clip-rule="evenodd" fill="#AAD5F1"/>
				<clipPath id="SVGID_6_">
					<use xlink:href="#SVGID_21_"  overflow="visible"/>
				</clipPath>
				<g clip-path="url(#SVGID_6_)">
					<g>
						<defs>
							<path id="SVGID_23_" d="M4.53,13.608C16.985,7.283,31.83,4.396,45.747,5.637c6.149,12.316,8.999,27.006,7.359,40.71
								c-12.018,6.462-26.57,9.292-40.135,7.845C6.325,42.066,3.463,27.357,4.53,13.608z"/>
						</defs>
						<use xlink:href="#SVGID_23_"  overflow="visible" fill-rule="evenodd" clip-rule="evenodd" fill="#D6A788"/>
						<clipPath id="SVGID_7_">
							<use xlink:href="#SVGID_23_"  overflow="visible"/>
						</clipPath>
					</g>
					<g>
						<defs>
							<path id="SVGID_8_" d="M0.538,22.444C10.255,12.409,23.35,4.849,36.913,1.489c9.823,9.644,17.303,22.604,20.213,36.095
								c-9.258,10.023-22.096,17.437-35.395,20.483C11.499,48.77,4.004,35.793,0.538,22.444z"/>
						</defs>
						<use xlink:href="#SVGID_8_"  overflow="visible" fill-rule="evenodd" clip-rule="evenodd" fill="#AEC874"/>
						<clipPath id="SVGID_9_">
							<use xlink:href="#SVGID_8_"  overflow="visible"/>
						</clipPath>
						<g clip-path="url(#SVGID_9_)">
							<g>
								<defs>
									<path id="SVGID_10_" d="M4.53,13.608C16.985,7.283,31.83,4.396,45.747,5.637c6.149,12.316,8.999,27.006,7.359,40.71
										c-12.018,6.462-26.57,9.292-40.135,7.845C6.325,42.066,3.463,27.357,4.53,13.608z"/>
								</defs>
								<use xlink:href="#SVGID_10_"  overflow="visible" fill-rule="evenodd" clip-rule="evenodd" fill="#AEB555"/>
								<clipPath id="SVGID_11_">
									<use xlink:href="#SVGID_10_"  overflow="visible"/>
								</clipPath>
							</g>
						</g>
					</g>
				</g>
			</g>
			<g>
				<circle fill="#FFFFFF" cx="20.411" cy="34.14" r="15.458"/>
				<path fill="#FFFFFF" d="M20.412,34.14"/>
			</g>
			<path fill="#1B85C7" d="M12.683,34.14c0-4.269,3.46-7.73,7.729-7.73c4.269,0,7.729,3.462,7.729,7.73
				c0,3.992-3.735,7.727-7.729,7.727C16.143,41.866,12.683,38.406,12.683,34.14z"/>
			<path fill="#AAD5F1" d="M20.412,34.14"/>
			<g>
				<circle fill="#FFFFFF" cx="45.575" cy="6.345" r="6.082"/>
				<path fill="#FFFFFF" d="M45.576,6.345"/>
			</g>
			<path fill="#1B85C7" d="M42.535,6.345c0-1.681,1.361-3.041,3.042-3.041c1.68,0,3.04,1.36,3.04,3.041
				c0,1.401-1.637,3.041-3.04,3.041C43.896,9.386,42.535,8.023,42.535,6.345z"/>
			<path fill="#AAD5F1" d="M45.576,6.345"/>
			<g>
				<path fill="#FFFFFF" d="M50.796,42.434c0-1.865,1.512-3.379,3.377-3.379c1.864,0,3.377,1.514,3.377,3.379
					c0,1.862-1.513,3.375-3.377,3.375C52.308,45.809,50.796,44.296,50.796,42.434z"/>
				<path fill="#FFFFFF" d="M54.174,42.434"/>
			</g>
			<path fill="#1B85C7" d="M52.485,42.434c0-0.933,0.756-1.69,1.689-1.69c0.933,0,1.689,0.758,1.689,1.69
				c0,0.931-0.756,1.688-1.689,1.688C53.241,44.121,52.485,43.364,52.485,42.434z"/>
			<path fill="#1B85C7" d="M54.174,42.434"/>
			<path fill-rule="evenodd" clip-rule="evenodd" fill="#FFFFFF" d="M31.848,44.516c0,0,4.055-5.33,10.125-4.421
				c0.248,0.038,4.839,0.241,8.33,3.146c0.087,0.072,0.569,0.384,1.111,1.152c0,0.019,0.962-4.811,0.962-4.811
				s-2.221,1.491-6.644,0.336c-0.229-0.061-8.541-0.789-10.487-10.138C35.213,29.625,31.848,44.516,31.848,44.516z"/>
		</g>
	</g>
</g>
</svg>
