<svg id="Capa_1" data-name="Capa 1" xmlns="http://www.w3.org/2000/svg" width="335.62" height="62.71" viewBox="0 0 335.62 62.71"><defs><style>.cls-1{fill:#fff;}</style></defs><title>sib-logo-full</title><path class="cls-1" d="M7.13,37.75a81,81,0,0,0,22.4,37.66,77.45,77.45,0,0,0,34-18.26,5.37,5.37,0,0,1-.58-.57h0A9.72,9.72,0,0,0,57.07,54c-4.12-.28-9.49,5.86-9.49,5.86h0a17.18,17.18,0,1,1,2.29-18.55h0s3.72,7.72,7.75,8.46A10.07,10.07,0,0,0,64,48.57h0A5.32,5.32,0,0,1,65.37,48,81.5,81.5,0,0,0,45.58,15.59,85,85,0,0,0,7.13,37.75ZM47.18,23.61A4.14,4.14,0,1,1,43,19.47,4.14,4.14,0,0,1,47.18,23.61Z" transform="translate(-5.69 -14.15)"/><path class="cls-1" d="M62.14,33.63q.73,2.71,1.29,5.48,1.61,3.56,2.85,7.25,1.16-2.66,2.1-5.38A72.64,72.64,0,0,0,62.14,33.63Z" transform="translate(-5.69 -14.15)"/><path class="cls-1" d="M38.06,16.51q-2.76-1.29-5.58-2.37a80.62,80.62,0,0,0-7.42,6.63q3.12-.88,6.31-1.52Q34.66,17.74,38.06,16.51Z" transform="translate(-5.69 -14.15)"/><path class="cls-1" d="M36.76,74.7q2.77,1.2,5.6,2.15a74,74,0,0,0,7.73-6.78q-2.75.83-5.56,1.46A78.11,78.11,0,0,1,36.76,74.7Z" transform="translate(-5.69 -14.15)"/><path class="cls-1" d="M8.09,45.17Q6.77,48,5.69,50.92a81.63,81.63,0,0,0,7.11,7.74q-1-3.15-1.71-6.38C10,49.94,9,47.57,8.09,45.17Z" transform="translate(-5.69 -14.15)"/><path class="cls-1" d="M19.76,71.76q2.28.23,4.6.32A80.75,80.75,0,0,1,13.92,57.64,75.23,75.23,0,0,0,19.76,71.76Z" transform="translate(-5.69 -14.15)"/><path class="cls-1" d="M63.25,63.25q.24-2.15.36-4.32A78.59,78.59,0,0,1,50,68.69,74.47,74.47,0,0,0,63.25,63.25Z" transform="translate(-5.69 -14.15)"/><path class="cls-1" d="M10.6,27.79q-.18,2.51-.2,5.05a86.81,86.81,0,0,1,15.76-11A83.19,83.19,0,0,0,10.6,27.79Z" transform="translate(-5.69 -14.15)"/><path class="cls-1" d="M55.26,19.14q-2.36-.2-4.76-.25A84.13,84.13,0,0,1,60.79,33.77,82,82,0,0,0,55.26,19.14Z" transform="translate(-5.69 -14.15)"/><circle class="cls-1" cx="34.42" cy="48.77" r="8.58" transform="translate(-10.05 -10.76) rotate(-5.3)"/><path class="cls-1" d="M34.42,48.78" transform="translate(-5.69 -14.15)"/><circle class="cls-1" cx="66.95" cy="53.05" r="2.67" transform="translate(-10.3 -7.74) rotate(-5.3)"/><path class="cls-1" d="M67,53.05" transform="translate(-5.69 -14.15)"/><circle class="cls-1" cx="37.35" cy="9.46" r="2.07"/><path class="cls-1" d="M43,23.61" transform="translate(-5.69 -14.15)"/><path class="cls-1" d="M56.82,54" transform="translate(-5.69 -14.15)"/><path class="cls-1" d="M84.53,37.15c-4.46-2-6.26-3.23-6.26-5.83,0-2,1.66-4,5.36-4a14,14,0,0,1,6.5,1.57l1.47-5.74a17.65,17.65,0,0,0-7.83-1.66C75.9,21.45,71.2,26.05,71.2,32c0,4.74,3.42,8.16,8.92,10.53,4,1.76,5.79,3.32,5.79,5.93S83.87,53,80,53a16.36,16.36,0,0,1-7.87-2v0a5.33,5.33,0,0,1-1.26,5.9,19.77,19.77,0,0,0,8.86,2c8.49,0,13.28-4.65,13.28-11C93,43.13,90.36,39.76,84.53,37.15Z" transform="translate(-5.69 -14.15)"/><path class="cls-1" d="M99,21.07a3.61,3.61,0,0,0-3.75,3.75,3.77,3.77,0,0,0,7.54,0A3.6,3.6,0,0,0,99,21.07Z" transform="translate(-5.69 -14.15)"/><rect class="cls-1" x="89.89" y="17.88" width="7.02" height="26.42"/><path class="cls-1" d="M123.95,39v-.19c3.89-1.47,5.83-4.55,5.83-7.87A8.07,8.07,0,0,0,126.23,24c-2.51-1.76-5.65-2.32-10.06-2.32a52,52,0,0,0-9.25.76V58.31a57.35,57.35,0,0,0,7.78.47c6.5,0,10.58-1.19,13-3.42a10,10,0,0,0,3.32-7.5A9,9,0,0,0,123.95,39ZM113.89,27.14A14.45,14.45,0,0,1,117,26.9c3.13,0,5.83,1.19,5.83,4.79,0,3-2.37,5.12-6.36,5.12h-2.56Zm2.8,26.38a14.55,14.55,0,0,1-2.8-.19V41.94h2.61c3.61,0,7.21,1.52,7.21,5.74S120.49,53.52,116.69,53.52Z" transform="translate(-5.69 -14.15)"/><path class="cls-1" d="M145,34.12a4.36,4.36,0,0,1-1,3,3.38,3.38,0,0,1-2.63,1.15,6.77,6.77,0,0,1-2.91-.53v-1.1a4.93,4.93,0,0,0,1.34.48,7.29,7.29,0,0,0,1.58.18,2.39,2.39,0,0,0,1.91-.88,3.85,3.85,0,0,0,.22-4.23,5.45,5.45,0,0,0-2-1.47,7.4,7.4,0,0,1-1.75-1.14,3.48,3.48,0,0,1-.86-1.29,5,5,0,0,1-.28-1.76,4.22,4.22,0,0,1,.46-2,3.35,3.35,0,0,1,1.27-1.35,3.5,3.5,0,0,1,1.79-.48,6.1,6.1,0,0,1,1.6.2,5.39,5.39,0,0,1,1.13.42l-.39,1a5.08,5.08,0,0,0-2.34-.59,2.36,2.36,0,0,0-1.82.76,2.86,2.86,0,0,0-.7,2,3.34,3.34,0,0,0,.51,2,5.61,5.61,0,0,0,2,1.46,5.8,5.8,0,0,1,2.25,1.75A4.11,4.11,0,0,1,145,34.12Z" transform="translate(-5.69 -14.15)"/><path class="cls-1" d="M147.29,23.72a1.2,1.2,0,0,1,.19-.73.59.59,0,0,1,.49-.26.51.51,0,0,1,.45.26,1.64,1.64,0,0,1,0,1.44.51.51,0,0,1-.45.26.59.59,0,0,1-.49-.26A1.2,1.2,0,0,1,147.29,23.72Zm1.13,14.36h-1V26.84h1Z" transform="translate(-5.69 -14.15)"/><path class="cls-1" d="M155.84,35.27a3.14,3.14,0,0,1-.75,2.22,2.8,2.8,0,0,1-2.16.8,4.19,4.19,0,0,1-1.35-.2,3.32,3.32,0,0,1-.9-.44V36.51a2.72,2.72,0,0,0,1,.61,3.64,3.64,0,0,0,1.3.23,1.72,1.72,0,0,0,1.37-.57,2.23,2.23,0,0,0,.5-1.52,2.16,2.16,0,0,0-.36-1.26,5,5,0,0,0-1.36-1.17,9.33,9.33,0,0,1-1.57-1.16,3.25,3.25,0,0,1-.65-1,3.16,3.16,0,0,1-.23-1.29,2.66,2.66,0,0,1,.82-2,2.86,2.86,0,0,1,2.08-.79,3.84,3.84,0,0,1,2.27.64l-.51.86a3.18,3.18,0,0,0-1.8-.57,1.9,1.9,0,0,0-1.39.51,1.83,1.83,0,0,0-.52,1.35,2.13,2.13,0,0,0,.35,1.25,5.4,5.4,0,0,0,1.49,1.22A9.49,9.49,0,0,1,155,33.07a2.93,2.93,0,0,1,.61,1A3.4,3.4,0,0,1,155.84,35.27Z" transform="translate(-5.69 -14.15)"/><path class="cls-1" d="M160.18,37.38a2.42,2.42,0,0,0,.81-.12v.83a2.85,2.85,0,0,1-1.17.21q-1.74,0-1.74-2.6v-8h-1v-.58l1-.29.32-2.67h.68v2.67h1.78v.87h-1.78v7.7a3.33,3.33,0,0,0,.25,1.55A.93.93,0,0,0,160.18,37.38Z" transform="translate(-5.69 -14.15)"/><path class="cls-1" d="M166,38.3a3,3,0,0,1-2.74-1.52,7.87,7.87,0,0,1-1-4.23,9.07,9.07,0,0,1,.86-4.4,2.68,2.68,0,0,1,2.46-1.52A2.48,2.48,0,0,1,167.78,28a6.88,6.88,0,0,1,.81,3.59v.91h-5.33a8,8,0,0,0,.69,3.68,2.19,2.19,0,0,0,2,1.22,4.39,4.39,0,0,0,2.23-.69v1A4.22,4.22,0,0,1,166,38.3Zm-.45-10.78q-2,0-2.23,4.05h4.32a6.5,6.5,0,0,0-.57-3A1.7,1.7,0,0,0,165.51,27.52Z" transform="translate(-5.69 -14.15)"/><path class="cls-1" d="M180.65,38.09V30.43q0-2.83-1.66-2.83a1.71,1.71,0,0,0-1.64,1,6.61,6.61,0,0,0-.5,2.92v6.58h-1V30.43a4.4,4.4,0,0,0-.4-2.13,1.35,1.35,0,0,0-1.25-.7,1.7,1.7,0,0,0-1.63,1,7.85,7.85,0,0,0-.51,3.3v6.18h-1V26.84h.83l.08,1.56h.09a2.36,2.36,0,0,1,2.29-1.78,2.09,2.09,0,0,1,1.47.5,2.86,2.86,0,0,1,.78,1.45,3.39,3.39,0,0,1,1-1.49,2.44,2.44,0,0,1,1.53-.46,2,2,0,0,1,1.87,1,6.29,6.29,0,0,1,.59,3.13v7.35Z" transform="translate(-5.69 -14.15)"/><path class="cls-1" d="M188.95,38.09l-.12-1.58h0a2.61,2.61,0,0,1-2.45,1.78,2.1,2.1,0,0,1-1.77-.88,3.74,3.74,0,0,1-.67-2.35,3.4,3.4,0,0,1,1-2.55,4,4,0,0,1,2.71-1l1.21-.06v-.93a5,5,0,0,0-.39-2.3,1.38,1.38,0,0,0-1.31-.72,3.69,3.69,0,0,0-2,.63l-.42-.78a4.59,4.59,0,0,1,2.46-.73,2.27,2.27,0,0,1,2,.88,5.28,5.28,0,0,1,.61,2.93v7.66Zm-2.39-.63a1.82,1.82,0,0,0,1.64-1,6.15,6.15,0,0,0,.58-3V32.3l-1.17.06a2.94,2.94,0,0,0-2,.75,2.75,2.75,0,0,0-.66,2,3,3,0,0,0,.44,1.79A1.41,1.41,0,0,0,186.55,37.46Z" transform="translate(-5.69 -14.15)"/><path class="cls-1" d="M199.46,38.3q-3.28,0-3.28-5.81a9.27,9.27,0,0,1,.82-4.36,2.66,2.66,0,0,1,3.85-1.06,3.15,3.15,0,0,1,1.08,1.2H202L202,27V22h1V38.09h-.81l-.08-1.58H202a3.29,3.29,0,0,1-1,1.32A2.46,2.46,0,0,1,199.46,38.3Zm.06-.86a2,2,0,0,0,1.82-1.1,6.45,6.45,0,0,0,.64-3.22v-.64a8.5,8.5,0,0,0-.62-3.73,2,2,0,0,0-1.88-1.19,1.8,1.8,0,0,0-1.74,1.27,9.94,9.94,0,0,0-.53,3.67,9.55,9.55,0,0,0,.55,3.68A1.84,1.84,0,0,0,199.52,37.44Z" transform="translate(-5.69 -14.15)"/><path class="cls-1" d="M209.16,38.3a3,3,0,0,1-2.74-1.52,7.87,7.87,0,0,1-1-4.23,9.07,9.07,0,0,1,.86-4.4,2.68,2.68,0,0,1,2.46-1.52A2.48,2.48,0,0,1,211,28a6.88,6.88,0,0,1,.81,3.59v.91h-5.33a8,8,0,0,0,.69,3.68,2.19,2.19,0,0,0,2,1.22,4.39,4.39,0,0,0,2.23-.69v1A4.22,4.22,0,0,1,209.16,38.3Zm-.45-10.78q-2,0-2.23,4.05h4.32a6.5,6.5,0,0,0-.57-3A1.7,1.7,0,0,0,208.71,27.52Z" transform="translate(-5.69 -14.15)"/><path class="cls-1" d="M218.43,38.09V22.94h1V38.09Z" transform="translate(-5.69 -14.15)"/><path class="cls-1" d="M227.69,38.09V30.34q0-2.8-1.66-2.8a2,2,0,0,0-1.85,1,7.08,7.08,0,0,0-.59,3.33v6.18h-1V26.84h.83l.08,1.56h.09a2.93,2.93,0,0,1,1-1.32,2.42,2.42,0,0,1,1.42-.47,2.29,2.29,0,0,1,2,.88,4.76,4.76,0,0,1,.65,2.81v7.77Z" transform="translate(-5.69 -14.15)"/><path class="cls-1" d="M234.5,27.71h-1.76V38.09h-1V27.71h-1.43v-.56l1.43-.42v-.85a6.91,6.91,0,0,1,.51-3.09,1.83,1.83,0,0,1,1.76-.94,3.24,3.24,0,0,1,1.32.26L235,23a2.37,2.37,0,0,0-1-.26,1,1,0,0,0-.77.3,2.08,2.08,0,0,0-.38,1,10.84,10.84,0,0,0-.12,1.87v.94h1.76Z" transform="translate(-5.69 -14.15)"/><path class="cls-1" d="M242.65,32.44a8.62,8.62,0,0,1-.9,4.35,2.83,2.83,0,0,1-2.56,1.51,2.77,2.77,0,0,1-2.52-1.51,8.75,8.75,0,0,1-.88-4.35q0-5.81,3.44-5.81a2.8,2.8,0,0,1,2.52,1.52A8.47,8.47,0,0,1,242.65,32.44Zm-5.83,0a9,9,0,0,0,.58,3.68,1.91,1.91,0,0,0,1.81,1.24q2.41,0,2.41-4.92t-2.41-4.88a1.9,1.9,0,0,0-1.83,1.22A9.11,9.11,0,0,0,236.82,32.44Z" transform="translate(-5.69 -14.15)"/><path class="cls-1" d="M248.25,26.63a3.23,3.23,0,0,1,1,.15l-.24,1a2,2,0,0,0-.77-.16,1.4,1.4,0,0,0-1.06.59,4.19,4.19,0,0,0-.77,1.63,8.94,8.94,0,0,0-.28,2.31v6h-1V26.84h.81l.1,2h.07Q246.9,26.63,248.25,26.63Z" transform="translate(-5.69 -14.15)"/><path class="cls-1" d="M260.48,38.09V30.43q0-2.83-1.66-2.83a1.71,1.71,0,0,0-1.64,1,6.61,6.61,0,0,0-.5,2.92v6.58h-1V30.43a4.4,4.4,0,0,0-.4-2.13,1.35,1.35,0,0,0-1.25-.7,1.7,1.7,0,0,0-1.63,1,7.85,7.85,0,0,0-.51,3.3v6.18h-1V26.84h.83l.08,1.56h.09a2.36,2.36,0,0,1,2.29-1.78,2.09,2.09,0,0,1,1.47.5,2.86,2.86,0,0,1,.78,1.45,3.39,3.39,0,0,1,1-1.49,2.44,2.44,0,0,1,1.53-.46,2,2,0,0,1,1.87,1,6.29,6.29,0,0,1,.59,3.13v7.35Z" transform="translate(-5.69 -14.15)"/><path class="cls-1" d="M268.78,38.09l-.12-1.58h0a2.61,2.61,0,0,1-2.45,1.78,2.1,2.1,0,0,1-1.77-.88,3.74,3.74,0,0,1-.67-2.35,3.4,3.4,0,0,1,1-2.55,4,4,0,0,1,2.71-1l1.21-.06v-.93a5,5,0,0,0-.39-2.3,1.38,1.38,0,0,0-1.31-.72,3.69,3.69,0,0,0-2,.63l-.42-.78a4.59,4.59,0,0,1,2.46-.73,2.27,2.27,0,0,1,2,.88,5.28,5.28,0,0,1,.61,2.93v7.66Zm-2.39-.63a1.82,1.82,0,0,0,1.64-1,6.15,6.15,0,0,0,.58-3V32.3l-1.17.06a2.94,2.94,0,0,0-2,.75,2.75,2.75,0,0,0-.66,2,3,3,0,0,0,.44,1.79A1.41,1.41,0,0,0,266.39,37.46Z" transform="translate(-5.69 -14.15)"/><path class="cls-1" d="M275.45,38.3a2.76,2.76,0,0,1-2.54-1.46,8.67,8.67,0,0,1-.86-4.31,9,9,0,0,1,.86-4.39,2.78,2.78,0,0,1,2.56-1.51,3.57,3.57,0,0,1,1.74.38l-.38.87a3.07,3.07,0,0,0-1.27-.32q-2.48,0-2.48,4.94t2.48,4.9a4.46,4.46,0,0,0,1.6-.33v.83a3.06,3.06,0,0,1-.84.29A4.31,4.31,0,0,1,275.45,38.3Z" transform="translate(-5.69 -14.15)"/><path class="cls-1" d="M279,23.72a1.2,1.2,0,0,1,.19-.73.59.59,0,0,1,.49-.26.51.51,0,0,1,.45.26,1.64,1.64,0,0,1,0,1.44.51.51,0,0,1-.45.26.59.59,0,0,1-.49-.26A1.2,1.2,0,0,1,279,23.72Zm1.13,14.36h-1V26.84h1Z" transform="translate(-5.69 -14.15)"/><path class="cls-1" d="M289.46,32.44a8.62,8.62,0,0,1-.9,4.35A2.83,2.83,0,0,1,286,38.3a2.77,2.77,0,0,1-2.52-1.51,8.75,8.75,0,0,1-.88-4.35q0-5.81,3.44-5.81a2.8,2.8,0,0,1,2.52,1.52A8.47,8.47,0,0,1,289.46,32.44Zm-5.83,0a9,9,0,0,0,.58,3.68A1.91,1.91,0,0,0,286,37.36q2.41,0,2.41-4.92T286,27.56a1.9,1.9,0,0,0-1.83,1.22A9.11,9.11,0,0,0,283.62,32.44Zm1.53-7.21V25a16.77,16.77,0,0,0,2-3.18h1.3V22a10.37,10.37,0,0,1-1.23,1.67,14.3,14.3,0,0,1-1.56,1.55Z" transform="translate(-5.69 -14.15)"/><path class="cls-1" d="M297,38.09V30.34q0-2.8-1.66-2.8a2,2,0,0,0-1.85,1,7.08,7.08,0,0,0-.59,3.33v6.18h-1V26.84h.83l.08,1.56h.09a2.93,2.93,0,0,1,1-1.32,2.42,2.42,0,0,1,1.42-.47,2.29,2.29,0,0,1,2,.88,4.76,4.76,0,0,1,.65,2.81v7.77Z" transform="translate(-5.69 -14.15)"/><path class="cls-1" d="M309.36,35.27a3.14,3.14,0,0,1-.75,2.22,2.8,2.8,0,0,1-2.16.8,4.19,4.19,0,0,1-1.35-.2,3.32,3.32,0,0,1-.9-.44V36.51a2.72,2.72,0,0,0,1,.61,3.64,3.64,0,0,0,1.3.23,1.72,1.72,0,0,0,1.37-.57,2.23,2.23,0,0,0,.5-1.52A2.16,2.16,0,0,0,308,34a5,5,0,0,0-1.36-1.17,9.33,9.33,0,0,1-1.57-1.16,3.25,3.25,0,0,1-.65-1,3.16,3.16,0,0,1-.23-1.29,2.66,2.66,0,0,1,.82-2,2.86,2.86,0,0,1,2.08-.79,3.84,3.84,0,0,1,2.27.64l-.51.86a3.18,3.18,0,0,0-1.8-.57,1.9,1.9,0,0,0-1.39.51,1.83,1.83,0,0,0-.52,1.35,2.13,2.13,0,0,0,.35,1.25A5.4,5.4,0,0,0,307,31.89a9.49,9.49,0,0,1,1.53,1.17,2.93,2.93,0,0,1,.61,1A3.4,3.4,0,0,1,309.36,35.27Z" transform="translate(-5.69 -14.15)"/><path class="cls-1" d="M318,32.44a8.62,8.62,0,0,1-.9,4.35,2.83,2.83,0,0,1-2.56,1.51A2.77,2.77,0,0,1,312,36.79a8.75,8.75,0,0,1-.88-4.35q0-5.81,3.44-5.81a2.8,2.8,0,0,1,2.52,1.52A8.47,8.47,0,0,1,318,32.44Zm-5.83,0a9,9,0,0,0,.58,3.68,1.91,1.91,0,0,0,1.81,1.24q2.41,0,2.41-4.92t-2.41-4.88a1.9,1.9,0,0,0-1.83,1.22A9.11,9.11,0,0,0,312.12,32.44Z" transform="translate(-5.69 -14.15)"/><path class="cls-1" d="M323.92,26.65q3.3,0,3.3,5.79a9.26,9.26,0,0,1-.82,4.36,2.63,2.63,0,0,1-3.83,1.05,3.33,3.33,0,0,1-1.1-1.32h-.08l-.13,1.55h-.81V22h1v5l0,1.36h.08A2.72,2.72,0,0,1,323.92,26.65Zm0,.91A2,2,0,0,0,322,28.7a8.81,8.81,0,0,0-.58,3.74v.26q0,4.71,2.5,4.71a1.81,1.81,0,0,0,1.7-1.21,9.36,9.36,0,0,0,.57-3.75,9.34,9.34,0,0,0-.55-3.66A1.83,1.83,0,0,0,323.88,27.56Z" transform="translate(-5.69 -14.15)"/><path class="cls-1" d="M332.81,26.63a3.23,3.23,0,0,1,1,.15l-.24,1a2,2,0,0,0-.77-.16,1.4,1.4,0,0,0-1.06.59,4.19,4.19,0,0,0-.77,1.63,8.94,8.94,0,0,0-.28,2.31v6h-1V26.84h.81l.1,2h.07Q331.46,26.63,332.81,26.63Z" transform="translate(-5.69 -14.15)"/><path class="cls-1" d="M338.68,38.3a3,3,0,0,1-2.74-1.52,7.87,7.87,0,0,1-1-4.23,9.07,9.07,0,0,1,.86-4.4,2.68,2.68,0,0,1,2.46-1.52A2.48,2.48,0,0,1,340.5,28a6.88,6.88,0,0,1,.81,3.59v.91H336a8,8,0,0,0,.69,3.68,2.19,2.19,0,0,0,2,1.22,4.39,4.39,0,0,0,2.23-.69v1A4.22,4.22,0,0,1,338.68,38.3Zm-.45-10.78q-2,0-2.23,4.05h4.32a6.5,6.5,0,0,0-.57-3A1.7,1.7,0,0,0,338.23,27.52Z" transform="translate(-5.69 -14.15)"/><path class="cls-1" d="M139.14,43.15H142a3.83,3.83,0,0,1,2.74.91,3.56,3.56,0,0,1,1,2.69q0,3.08-2.25,3.52v.08a3,3,0,0,1,1.93,1.15,4.21,4.21,0,0,1,.63,2.47,5,5,0,0,1-.9,3.17,3,3,0,0,1-2.53,1.14h-3.48Zm1,6.75h1.91a2.39,2.39,0,0,0,2-.78,3.82,3.82,0,0,0,.61-2.38,2.69,2.69,0,0,0-.67-2,2.65,2.65,0,0,0-2-.68h-1.89Zm0,.93v6.54h2.33q2.51,0,2.51-3.4a3.36,3.36,0,0,0-.74-2.33,2.65,2.65,0,0,0-2.06-.81Z" transform="translate(-5.69 -14.15)"/><path class="cls-1" d="M148.24,43.94a1.2,1.2,0,0,1,.19-.73.59.59,0,0,1,.49-.26.51.51,0,0,1,.45.26,1.64,1.64,0,0,1,0,1.44.51.51,0,0,1-.45.26.59.59,0,0,1-.49-.26A1.2,1.2,0,0,1,148.24,43.94Zm1.13,14.36h-1V47.06h1Z" transform="translate(-5.69 -14.15)"/><path class="cls-1" d="M158.7,52.65a8.62,8.62,0,0,1-.9,4.35,2.83,2.83,0,0,1-2.56,1.51A2.77,2.77,0,0,1,152.72,57a8.75,8.75,0,0,1-.88-4.35q0-5.81,3.44-5.81a2.8,2.8,0,0,1,2.52,1.52A8.47,8.47,0,0,1,158.7,52.65Zm-5.83,0a9,9,0,0,0,.58,3.68,1.91,1.91,0,0,0,1.81,1.24q2.41,0,2.41-4.92t-2.41-4.88A1.9,1.9,0,0,0,153.43,49,9.11,9.11,0,0,0,152.87,52.65Z" transform="translate(-5.69 -14.15)"/><path class="cls-1" d="M163.93,58.51q-3.28,0-3.28-5.81a9.27,9.27,0,0,1,.82-4.36,2.66,2.66,0,0,1,3.85-1.06,3.15,3.15,0,0,1,1.08,1.2h.08l0-1.25v-5h1V58.3h-.81l-.08-1.58h-.09a3.29,3.29,0,0,1-1,1.32A2.46,2.46,0,0,1,163.93,58.51Zm.06-.86a2,2,0,0,0,1.82-1.1,6.45,6.45,0,0,0,.64-3.22V52.7a8.5,8.5,0,0,0-.62-3.73,2,2,0,0,0-1.88-1.19A1.8,1.8,0,0,0,162.21,49a9.94,9.94,0,0,0-.53,3.67,9.55,9.55,0,0,0,.55,3.68A1.84,1.84,0,0,0,164,57.65Z" transform="translate(-5.69 -14.15)"/><path class="cls-1" d="M170.29,43.94a1.2,1.2,0,0,1,.19-.73A.59.59,0,0,1,171,43a.51.51,0,0,1,.45.26,1.64,1.64,0,0,1,0,1.44.51.51,0,0,1-.45.26.59.59,0,0,1-.49-.26A1.2,1.2,0,0,1,170.29,43.94Zm1.13,14.36h-1V47.06h1Z" transform="translate(-5.69 -14.15)"/><path class="cls-1" d="M175.68,58.3,173,47.06h1l1.68,7.23q.29,1.25.56,2.74h.08q.07-.54.21-1.2t2-8.77h1L176.85,58.3Z" transform="translate(-5.69 -14.15)"/><path class="cls-1" d="M184.39,58.51A3,3,0,0,1,181.65,57a7.87,7.87,0,0,1-1-4.23,9.07,9.07,0,0,1,.86-4.4A2.68,2.68,0,0,1,184,46.84a2.48,2.48,0,0,1,2.21,1.33,6.88,6.88,0,0,1,.81,3.59v.91h-5.33a8,8,0,0,0,.69,3.68,2.19,2.19,0,0,0,2,1.22,4.39,4.39,0,0,0,2.23-.69v1A4.22,4.22,0,0,1,184.39,58.51Zm-.45-10.78q-2,0-2.23,4.05H186a6.5,6.5,0,0,0-.57-3A1.7,1.7,0,0,0,183.94,47.73Z" transform="translate(-5.69 -14.15)"/><path class="cls-1" d="M192.64,46.84a3.23,3.23,0,0,1,1,.15l-.24,1a2,2,0,0,0-.77-.16,1.4,1.4,0,0,0-1.06.59,4.19,4.19,0,0,0-.77,1.63,8.94,8.94,0,0,0-.28,2.31v6h-1V47.06h.81l.1,2h.07Q191.29,46.84,192.64,46.84Z" transform="translate(-5.69 -14.15)"/><path class="cls-1" d="M199.73,55.48a3.14,3.14,0,0,1-.75,2.22,2.8,2.8,0,0,1-2.16.8,4.19,4.19,0,0,1-1.35-.2,3.32,3.32,0,0,1-.9-.44V56.73a2.72,2.72,0,0,0,1,.61,3.64,3.64,0,0,0,1.3.23,1.72,1.72,0,0,0,1.37-.57,2.23,2.23,0,0,0,.5-1.52,2.16,2.16,0,0,0-.36-1.26A5,5,0,0,0,197,53.06a9.33,9.33,0,0,1-1.57-1.16,3.25,3.25,0,0,1-.65-1,3.16,3.16,0,0,1-.23-1.29,2.66,2.66,0,0,1,.82-2,2.86,2.86,0,0,1,2.08-.79,3.84,3.84,0,0,1,2.27.64l-.51.86a3.18,3.18,0,0,0-1.8-.57,1.9,1.9,0,0,0-1.39.51,1.83,1.83,0,0,0-.52,1.35,2.13,2.13,0,0,0,.35,1.25,5.4,5.4,0,0,0,1.49,1.22,9.49,9.49,0,0,1,1.53,1.17,2.93,2.93,0,0,1,.61,1A3.4,3.4,0,0,1,199.73,55.48Z" transform="translate(-5.69 -14.15)"/><path class="cls-1" d="M201.85,43.94a1.2,1.2,0,0,1,.19-.73.59.59,0,0,1,.49-.26.51.51,0,0,1,.45.26,1.64,1.64,0,0,1,0,1.44.51.51,0,0,1-.45.26.59.59,0,0,1-.49-.26A1.2,1.2,0,0,1,201.85,43.94ZM203,58.3h-1V47.06h1Z" transform="translate(-5.69 -14.15)"/><path class="cls-1" d="M208.73,58.51q-3.28,0-3.28-5.81a9.27,9.27,0,0,1,.82-4.36,2.66,2.66,0,0,1,3.85-1.06,3.15,3.15,0,0,1,1.08,1.2h.08l0-1.25v-5h1V58.3h-.81l-.08-1.58h-.09a3.29,3.29,0,0,1-1,1.32A2.46,2.46,0,0,1,208.73,58.51Zm.06-.86a2,2,0,0,0,1.82-1.1,6.45,6.45,0,0,0,.64-3.22V52.7a8.5,8.5,0,0,0-.62-3.73,2,2,0,0,0-1.88-1.19A1.8,1.8,0,0,0,207,49a9.94,9.94,0,0,0-.53,3.67A9.55,9.55,0,0,0,207,56.4,1.84,1.84,0,0,0,208.79,57.65Z" transform="translate(-5.69 -14.15)"/><path class="cls-1" d="M219.59,58.3l-.12-1.58h0A2.61,2.61,0,0,1,217,58.51a2.1,2.1,0,0,1-1.77-.88,3.74,3.74,0,0,1-.67-2.35,3.4,3.4,0,0,1,1-2.55,4,4,0,0,1,2.71-1l1.21-.06v-.93a5,5,0,0,0-.39-2.3,1.38,1.38,0,0,0-1.31-.72,3.69,3.69,0,0,0-2,.63l-.42-.78a4.59,4.59,0,0,1,2.46-.73,2.27,2.27,0,0,1,2,.88,5.28,5.28,0,0,1,.61,2.93V58.3Zm-2.39-.63a1.82,1.82,0,0,0,1.64-1,6.15,6.15,0,0,0,.58-3V52.51l-1.17.06a2.94,2.94,0,0,0-2,.75,2.75,2.75,0,0,0-.66,2A3,3,0,0,0,216,57.1,1.41,1.41,0,0,0,217.2,57.67Z" transform="translate(-5.69 -14.15)"/><path class="cls-1" d="M226.11,58.51q-3.28,0-3.28-5.81a9.27,9.27,0,0,1,.82-4.36,2.66,2.66,0,0,1,3.85-1.06,3.15,3.15,0,0,1,1.08,1.2h.08l0-1.25v-5h1V58.3h-.81l-.08-1.58h-.09a3.29,3.29,0,0,1-1,1.32A2.46,2.46,0,0,1,226.11,58.51Zm.06-.86a2,2,0,0,0,1.82-1.1,6.45,6.45,0,0,0,.64-3.22V52.7A8.5,8.5,0,0,0,228,49a2,2,0,0,0-1.88-1.19A1.8,1.8,0,0,0,224.39,49a9.94,9.94,0,0,0-.53,3.67,9.55,9.55,0,0,0,.55,3.68A1.84,1.84,0,0,0,226.17,57.65Z" transform="translate(-5.69 -14.15)"/><path class="cls-1" d="M239.36,58.51q-3.28,0-3.28-5.81a9.27,9.27,0,0,1,.82-4.36,2.66,2.66,0,0,1,3.85-1.06,3.15,3.15,0,0,1,1.08,1.2h.08l0-1.25v-5h1V58.3h-.81L242,56.73h-.09a3.29,3.29,0,0,1-1,1.32A2.46,2.46,0,0,1,239.36,58.51Zm.06-.86a2,2,0,0,0,1.82-1.1,6.45,6.45,0,0,0,.64-3.22V52.7a8.5,8.5,0,0,0-.62-3.73,2,2,0,0,0-1.88-1.19A1.8,1.8,0,0,0,237.64,49a9.94,9.94,0,0,0-.53,3.67,9.55,9.55,0,0,0,.55,3.68A1.84,1.84,0,0,0,239.42,57.65Z" transform="translate(-5.69 -14.15)"/><path class="cls-1" d="M249.06,58.51A3,3,0,0,1,246.32,57a7.87,7.87,0,0,1-1-4.23,9.07,9.07,0,0,1,.86-4.4,2.68,2.68,0,0,1,2.46-1.52,2.48,2.48,0,0,1,2.21,1.33,6.88,6.88,0,0,1,.81,3.59v.91h-5.33a8,8,0,0,0,.69,3.68,2.19,2.19,0,0,0,2,1.22,4.39,4.39,0,0,0,2.23-.69v1A4.22,4.22,0,0,1,249.06,58.51Zm-.45-10.78q-2,0-2.23,4.05h4.32a6.5,6.5,0,0,0-.57-3A1.7,1.7,0,0,0,248.61,47.73Z" transform="translate(-5.69 -14.15)"/><path class="cls-1" d="M262.61,43.89a3,3,0,0,0-2.72,1.81,10.32,10.32,0,0,0-1,5,12.6,12.6,0,0,0,.47,3.63,5.33,5.33,0,0,0,1.34,2.37,2.84,2.84,0,0,0,2,.83,4.5,4.5,0,0,0,2-.42V58a4.23,4.23,0,0,1-2.12.47,3.75,3.75,0,0,1-2.53-.93,5.94,5.94,0,0,1-1.67-2.7,13.24,13.24,0,0,1-.59-4.19,10.78,10.78,0,0,1,1.29-5.7,4,4,0,0,1,3.52-2.07,4.51,4.51,0,0,1,2.43.64l-.47.89A3.58,3.58,0,0,0,262.61,43.89Z" transform="translate(-5.69 -14.15)"/><path class="cls-1" d="M273.42,52.65a8.62,8.62,0,0,1-.9,4.35A2.83,2.83,0,0,1,270,58.51,2.77,2.77,0,0,1,267.44,57a8.75,8.75,0,0,1-.88-4.35q0-5.81,3.44-5.81a2.8,2.8,0,0,1,2.52,1.52A8.47,8.47,0,0,1,273.42,52.65Zm-5.83,0a9,9,0,0,0,.58,3.68A1.91,1.91,0,0,0,270,57.58q2.41,0,2.41-4.92T270,47.77A1.9,1.9,0,0,0,268.15,49,9.11,9.11,0,0,0,267.59,52.65Z" transform="translate(-5.69 -14.15)"/><path class="cls-1" d="M276.89,58.3h-1V42.18h1Z" transform="translate(-5.69 -14.15)"/><path class="cls-1" d="M286.22,52.65a8.62,8.62,0,0,1-.9,4.35,2.83,2.83,0,0,1-2.56,1.51A2.77,2.77,0,0,1,280.24,57a8.75,8.75,0,0,1-.88-4.35q0-5.81,3.44-5.81a2.8,2.8,0,0,1,2.52,1.52A8.47,8.47,0,0,1,286.22,52.65Zm-5.83,0a9,9,0,0,0,.58,3.68,1.91,1.91,0,0,0,1.81,1.24q2.41,0,2.41-4.92t-2.41-4.88A1.9,1.9,0,0,0,281,49,9.11,9.11,0,0,0,280.39,52.65Z" transform="translate(-5.69 -14.15)"/><path class="cls-1" d="M298.26,58.3V50.64q0-2.83-1.66-2.83a1.71,1.71,0,0,0-1.64,1,6.61,6.61,0,0,0-.5,2.92V58.3h-1V50.64a4.4,4.4,0,0,0-.4-2.13,1.35,1.35,0,0,0-1.25-.7,1.7,1.7,0,0,0-1.63,1,7.85,7.85,0,0,0-.51,3.3V58.3h-1V47.06h.83l.08,1.56h.09A2.36,2.36,0,0,1,292,46.84a2.09,2.09,0,0,1,1.47.5,2.86,2.86,0,0,1,.78,1.45,3.39,3.39,0,0,1,1-1.49,2.44,2.44,0,0,1,1.53-.46,2,2,0,0,1,1.87,1,6.29,6.29,0,0,1,.59,3.13V58.3Z" transform="translate(-5.69 -14.15)"/><path class="cls-1" d="M305.69,46.86q3.3,0,3.3,5.79a9.26,9.26,0,0,1-.82,4.36,2.63,2.63,0,0,1-3.83,1.05,3.33,3.33,0,0,1-1.1-1.32h-.08L303,58.3h-.81V42.18h1v5l0,1.36h.08A2.72,2.72,0,0,1,305.69,46.86Zm0,.91a2,2,0,0,0-1.88,1.14,8.81,8.81,0,0,0-.58,3.74v.26q0,4.71,2.5,4.71a1.81,1.81,0,0,0,1.7-1.21,9.36,9.36,0,0,0,.57-3.75,9.34,9.34,0,0,0-.55-3.66A1.83,1.83,0,0,0,305.65,47.77Z" transform="translate(-5.69 -14.15)"/><path class="cls-1" d="M311.31,43.94a1.2,1.2,0,0,1,.19-.73A.59.59,0,0,1,312,43a.51.51,0,0,1,.45.26,1.64,1.64,0,0,1,0,1.44.51.51,0,0,1-.45.26.59.59,0,0,1-.49-.26A1.2,1.2,0,0,1,311.31,43.94Zm1.13,14.36h-1V47.06h1Z" transform="translate(-5.69 -14.15)"/><path class="cls-1" d="M319.8,58.3l-.12-1.58h0a2.61,2.61,0,0,1-2.45,1.78,2.1,2.1,0,0,1-1.77-.88,3.74,3.74,0,0,1-.67-2.35,3.4,3.4,0,0,1,1-2.55,4,4,0,0,1,2.71-1l1.21-.06v-.93a5,5,0,0,0-.39-2.3,1.38,1.38,0,0,0-1.31-.72,3.69,3.69,0,0,0-2,.63l-.42-.78a4.59,4.59,0,0,1,2.46-.73,2.27,2.27,0,0,1,2,.88,5.28,5.28,0,0,1,.61,2.93V58.3Zm-2.39-.63a1.82,1.82,0,0,0,1.64-1,6.15,6.15,0,0,0,.58-3V52.51l-1.17.06a2.94,2.94,0,0,0-2,.75,2.75,2.75,0,0,0-.66,2,3,3,0,0,0,.44,1.79A1.41,1.41,0,0,0,317.41,57.67Z" transform="translate(-5.69 -14.15)"/></svg>