<?xml version="1.0" encoding="UTF-8" standalone="no"?>
<svg width="347px" height="91px" viewBox="0 0 347 91" version="1.1" xmlns="http://www.w3.org/2000/svg" xmlns:xlink="http://www.w3.org/1999/xlink" xmlns:sketch="http://www.bohemiancoding.com/sketch/ns">
    <!-- Generator: Sketch 3.4 (15575) - http://www.bohemiancoding.com/sketch -->
    <title>sib-logo-full</title>
    <desc>Created with Sketch.</desc>
    <defs></defs>
    <g id="Page-1" stroke="none" stroke-width="1" fill="none" fill-rule="evenodd" sketch:type="MSPage">
        <g id="sib-logo-full" sketch:type="MSLayerGroup" fill="#FEFEFE">
            <path d="M59.793559,13.9533997 C59.793559,17.2380087 57.1316042,19.901585 53.8464547,19.901585 C50.5575217,19.901585 47.8928643,17.2380087 47.8928643,13.9533997 C47.8928643,10.6671692 50.5575217,8.00251184 53.8464547,8.00251184 C57.1316042,8.00251184 59.793559,10.6671692 59.793559,13.9533997 M2.25641885,34.2642502 C7.71491262,54.4848374 19.0902428,74.1222268 34.4414796,88.3621988 C52.3233301,84.0782081 69.6663036,74.7270445 83.2652444,62.1296474 C82.9668893,61.8788561 82.6847491,61.6075259 82.4269313,61.3140352 L82.4263908,61.3161972 C82.4263908,61.3161972 79.1309718,57.8932206 73.9983986,57.5462206 C68.0772382,57.1462517 60.3686494,65.9628623 60.3686494,65.9628623 L60.3686494,65.9601598 C55.8430559,71.3510913 49.0554765,74.7789324 41.4663379,74.7789324 C27.8403721,74.7789324 16.794746,63.7333062 16.794746,50.1073405 C16.794746,36.4819153 27.8403721,25.4362891 41.4663379,25.4362891 C44.3920559,25.4362891 47.1988643,25.9454386 49.8024453,26.8805009 C55.8798098,29.0619526 60.848612,33.5626832 63.6521774,39.3130461 L63.6532584,39.3054791 C63.6532584,39.3054791 69.004193,50.3938047 74.7842833,51.4575056 C79.7979469,52.379596 84.0165372,49.8176333 84.0165372,49.8176333 L84.0159967,49.8192548 C84.6002755,49.4392844 85.2423877,49.1387673 85.9271992,48.9268919 C80.4168176,31.5790539 70.2565279,15.2008701 57.5018456,2.43699938 C36.9802008,7.72956012 17.1466104,19.1805601 2.25641885,34.2642502" id="Fill-2" sketch:type="MSShapeGroup"></path>
            <path d="M81.2875065,28.3537375 C81.9901545,30.9519136 82.6101062,33.5771145 83.1403352,36.2206924 C84.6802153,39.6333995 86.0482168,43.1120475 87.2324489,46.6360974 C88.3469567,44.0914307 89.3571483,41.5148746 90.2543757,38.9139961 C87.5275611,35.2223917 84.5218492,31.6950989 81.2875065,28.3537375" id="Fill-4" sketch:type="MSShapeGroup"></path>
            <path d="M46.6897688,3.76068006 C44.0467315,2.52077664 41.3701832,1.38410841 38.670934,0.360404361 C34.9512237,3.28504143 31.3877174,6.47506324 28.0079807,9.88506791 C30.9985586,9.04675483 34.0242688,8.31491994 37.0743016,7.69713022 C40.2318935,6.2453514 43.4429947,4.93139969 46.6897688,3.76068006" id="Fill-6" sketch:type="MSShapeGroup"></path>
            <path d="M44.8306164,87.3510883 C47.4795992,88.496945 50.1637145,89.531459 52.8748547,90.4432799 C56.769146,87.4889154 60.4829107,84.2237643 63.9810167,80.704579 C61.3493298,81.4969497 58.6852129,82.1985167 55.9962332,82.8011724 C52.3473282,84.521579 48.6151864,86.0420011 44.8306164,87.3510883" id="Fill-8" sketch:type="MSShapeGroup"></path>
            <path d="M3.63901386,44.9241226 C2.37911199,47.6449917 1.22730981,50.4009933 0.193876791,53.1829388 C3.32174128,57.0696631 6.74309642,60.7899139 10.4055139,64.3009917 C9.46883006,61.2833889 8.64997492,58.2225463 7.95543442,55.1308952 C6.35664003,51.7862908 4.91675218,48.3757456 3.63901386,44.9241226" id="Fill-10" sketch:type="MSShapeGroup"></path>
            <path d="M20.4024109,83.1312548 C22.5898081,83.3523187 24.7934202,83.5058202 27.0083829,83.586895 C21.2926118,77.3154916 16.2589498,70.3041458 12.0149561,62.8468888 C14.1466819,69.9214729 16.9459234,76.7517517 20.4024109,83.1312548" id="Fill-12" sketch:type="MSShapeGroup"></path>
            <path d="M82.8748964,70.9016668 C83.1094727,68.8445298 83.2824322,66.7738802 83.3899914,64.6918802 C77.462345,70.0141684 70.8839385,74.7343413 63.8882671,78.7194363 C70.4974821,76.7028366 76.8845522,74.0868241 82.8748964,70.9016668" id="Fill-14" sketch:type="MSShapeGroup"></path>
            <path d="M7.24840841,19.9615263 C7.07436791,22.3645824 6.97815919,24.7860154 6.95545826,27.2182584 C13.823572,21.1917008 21.4737869,15.8845466 29.5920735,11.4713768 C21.8240299,13.5749967 14.2965081,16.422883 7.24840841,19.9615263" id="Fill-16" sketch:type="MSShapeGroup"></path>
            <path d="M71.4059519,7.53319704 C69.1423444,7.34348209 66.863603,7.22241044 64.5740516,7.16998209 C70.2092883,13.6840693 75.2018724,20.899183 79.353441,28.553722 C77.3590017,21.2553715 74.6851559,14.1780849 71.4059519,7.53319704" id="Fill-18" sketch:type="MSShapeGroup"></path>
            <path d="M29.196753,51.2451978 C28.5681533,44.4678879 33.5526299,38.4618692 40.3277779,37.8332695 C47.1056283,37.2052103 53.109485,42.1923894 53.7380847,48.9696994 C54.3661439,55.7432259 49.3811268,61.7454611 42.6038168,62.3735202 C35.8281283,63.0021199 29.8248121,58.0187243 29.196753,51.2451978" id="Fill-20" sketch:type="MSShapeGroup"></path>
            <path d="M84.3778064,56.6080774 C84.182146,54.497431 85.7344575,52.6305494 87.8451039,52.4348889 C89.9535883,52.2392285 91.8215509,53.789378 92.0172114,55.899484 C92.2128718,58.0117519 90.6621818,59.880255 88.5536974,60.0759154 C86.4430509,60.2715759 84.5734668,58.7203453 84.3778064,56.6080774" id="Fill-22" sketch:type="MSShapeGroup"></path>
            <path d="M50.8676056,13.9533456 C50.8676056,12.3113114 52.2004748,10.9762802 53.8462925,10.9762802 C55.4861648,10.9762802 56.8195745,12.3113114 56.8195745,13.9533456 C56.8195745,15.5953799 55.4861648,16.9287896 53.8462925,16.9287896 C52.2004748,16.9287896 50.8676056,15.5953799 50.8676056,13.9533456" id="Fill-24" sketch:type="MSShapeGroup"></path>
            <path d="M112.937312,33.8023942 C106.612399,30.9091061 104.055301,29.2270749 104.055301,25.5257416 C104.055301,22.6324534 106.410252,19.8067276 111.659033,19.8067276 C115.897622,19.8067276 119.060619,21.0850064 120.877234,22.0270952 L122.963558,13.8850266 C120.541044,12.6737696 116.772689,11.5300749 111.860639,11.5300749 C100.690698,11.5300749 94.0295952,18.0571341 94.0295952,26.5353927 C94.0295952,33.2640578 98.8740827,38.1090858 106.679421,41.4731481 C112.398975,43.9632245 114.888511,46.1835921 114.888511,49.8843849 C114.888511,53.7197618 111.995223,56.3438818 106.477815,56.3438818 C102.305707,56.3438818 97.9990157,55.065603 95.307874,53.4505936 L95.2943615,53.5084269 C95.6608195,54.3980874 95.8656684,55.3709846 95.8656684,56.3925266 C95.8656684,58.5534394 94.95655,60.4986933 93.5063927,61.8796668 C95.9851185,63.3287431 101.058237,64.6880967 106.074062,64.6880967 C118.11853,64.6880967 124.914757,58.0934752 124.914757,49.0768802 C124.914757,42.2811933 121.213964,37.5031871 112.937312,33.8023942" id="Fill-26" sketch:type="MSShapeGroup"></path>
            <path d="M133.526627,10.9917385 C130.431192,10.9917385 128.210825,13.2121061 128.210825,16.3075407 C128.210825,19.3354129 130.364171,21.6233428 133.526627,21.6233428 C136.622062,21.6233428 138.909991,19.5375593 138.909991,16.3075407 C138.909991,13.2121061 136.756646,10.9917385 133.526627,10.9917385" id="Fill-28" sketch:type="MSShapeGroup"></path>
            <path d="M128.614847,64.015014 L138.573531,64.015014 L138.573531,26.5352305 L128.614847,26.5352305 L128.614847,64.015014 Z" id="Fill-30" sketch:type="MSShapeGroup"></path>
            <path d="M158.556731,57.0170185 C156.807138,57.0170185 155.596421,56.9499967 154.58677,56.7478503 L154.58677,40.5988379 L158.287563,40.5988379 C163.40176,40.5988379 168.515415,42.7516431 168.515415,48.7409064 C168.515415,54.595045 163.939555,57.0170185 158.556731,57.0170185 L158.556731,57.0170185 Z M154.58677,19.6047974 C155.461297,19.4026509 156.807138,19.2680668 158.960484,19.2680668 C163.40176,19.2680668 167.237136,20.950098 167.237136,26.0642942 C167.237136,30.3034235 163.872534,33.3312958 158.220541,33.3312958 L154.58677,33.3312958 L154.58677,19.6047974 Z M168.852146,36.3591681 L168.852146,36.0905403 C174.369554,34.0042164 177.128258,29.630503 177.128258,24.9205995 C177.128258,20.6814702 175.177059,17.2493051 172.082164,15.1635217 C168.515415,12.6739858 164.07468,11.8664812 157.816789,11.8664812 C152.769615,11.8664812 147.655959,12.3372553 144.695649,12.943154 L144.695649,63.813246 C147.117622,64.1499765 150.818415,64.4861665 155.731006,64.4861665 C164.949207,64.4861665 170.735783,62.8041354 174.23497,59.641679 C177.263383,56.9499967 178.945414,53.0470575 178.945414,49.0095341 C178.945414,42.4149126 174.638722,37.8401338 168.852146,36.3591681 L168.852146,36.3591681 Z" id="Fill-32" sketch:type="MSShapeGroup"></path>
            <path d="M190.698444,22.2171885 C190.698444,23.3473707 190.384415,24.2624346 189.756896,24.9623801 C189.128837,25.6623255 188.331602,26.012028 187.36465,26.012028 C186.265817,26.012028 185.383723,25.8520405 184.718369,25.5320654 L184.718369,24.5337648 C185.044831,24.7159128 185.449664,24.8602259 185.93341,24.966704 C186.416616,25.0737227 186.893876,25.1272321 187.36465,25.1272321 C188.067838,25.1272321 188.645631,24.8602259 189.097488,24.3267539 C189.549345,23.7927414 189.775813,23.1149564 189.775813,22.2923178 C189.775813,21.5329174 189.615285,20.9302617 189.29531,20.4843505 C188.975335,20.0384393 188.36295,19.5930685 187.458697,19.1471573 C186.749563,18.7893474 186.218793,18.4423474 185.867469,18.1066978 C185.515605,17.7705078 185.255084,17.3797274 185.085368,16.9338162 C184.916192,16.4884455 184.831334,15.954433 184.831334,15.3328598 C184.831334,14.6550748 184.969701,14.052419 185.245896,13.5248925 C185.522091,12.997366 185.908007,12.5876682 186.404184,12.2957991 C186.899821,12.0039299 187.443022,11.8579953 188.033246,11.8579953 C188.566718,11.8579953 189.052086,11.9179907 189.488268,12.0369003 C189.92445,12.1563505 190.268207,12.2849891 190.519539,12.4233567 L190.161729,13.3081526 C189.465027,12.9503427 188.755352,12.7714377 188.033246,12.7714377 C187.355461,12.7714377 186.804693,13.0022305 186.380943,13.4638162 C185.956651,13.9254019 185.744776,14.5356246 185.744776,15.2950249 C185.744776,16.0673972 185.898818,16.6673505 186.206362,17.0943442 C186.513905,17.5207975 187.116561,17.9634657 188.014329,18.4218084 C188.943446,18.8742056 189.623393,19.4028131 190.05363,20.0087118 C190.483326,20.6146106 190.698444,21.3507695 190.698444,22.2171885" id="Fill-33" sketch:type="MSShapeGroup"></path>
            <path d="M192.503385,12.0558178 L193.426016,12.0558178 L193.426016,25.8239346 L192.503385,25.8239346 L192.503385,12.0558178 Z" id="Fill-34" sketch:type="MSShapeGroup"></path>
            <path d="M201.202437,22.2171885 C201.202437,23.3473707 200.888407,24.2624346 200.260889,24.9623801 C199.632829,25.6623255 198.835594,26.012028 197.868643,26.012028 C196.769809,26.012028 195.887716,25.8520405 195.222362,25.5320654 L195.222362,24.5337648 C195.548823,24.7159128 195.953657,24.8602259 196.437403,24.966704 C196.920608,25.0737227 197.397868,25.1272321 197.868643,25.1272321 C198.571831,25.1272321 199.149624,24.8602259 199.601481,24.3267539 C200.053878,23.7927414 200.279806,23.1149564 200.279806,22.2923178 C200.279806,21.5329174 200.119278,20.9302617 199.799303,20.4843505 C199.479328,20.0384393 198.866943,19.5930685 197.962689,19.1471573 C197.253555,18.7893474 196.722786,18.4423474 196.371462,18.1066978 C196.019597,17.7705078 195.759077,17.3797274 195.589361,16.9338162 C195.420185,16.4884455 195.335326,15.954433 195.335326,15.3328598 C195.335326,14.6550748 195.473694,14.052419 195.749889,13.5248925 C196.026083,12.997366 196.411999,12.5876682 196.908177,12.2957991 C197.403814,12.0039299 197.947015,11.8579953 198.537239,11.8579953 C199.070711,11.8579953 199.556079,11.9179907 199.992261,12.0369003 C200.428443,12.1563505 200.7722,12.2849891 201.023532,12.4233567 L200.665722,13.3081526 C199.969019,12.9503427 199.259345,12.7714377 198.537239,12.7714377 C197.859454,12.7714377 197.308686,13.0022305 196.884935,13.4638162 C196.460644,13.9254019 196.248769,14.5356246 196.248769,15.2950249 C196.248769,16.0673972 196.402811,16.6673505 196.710354,17.0943442 C197.017898,17.5207975 197.620554,17.9634657 198.518322,18.4218084 C199.447438,18.8742056 200.127386,19.4028131 200.557622,20.0087118 C200.987319,20.6146106 201.202437,21.3507695 201.202437,22.2171885" id="Fill-35" sketch:type="MSShapeGroup"></path>
            <path d="M205.955526,25.8239346 L205.032355,25.8239346 L205.032355,12.9411542 L202.292028,12.9411542 L202.292028,12.0558178 L208.695853,12.0558178 L208.695853,12.9411542 L205.955526,12.9411542 L205.955526,25.8239346 Z" id="Fill-36" sketch:type="MSShapeGroup"></path>
            <path d="M215.184321,25.8239346 L210.193358,25.8239346 L210.193358,12.0558178 L215.184321,12.0558178 L215.184321,12.9411542 L211.115989,12.9411542 L211.115989,18.1677741 L214.958393,18.1677741 L214.958393,19.0525701 L211.115989,19.0525701 L211.115989,24.9385981 L215.184321,24.9385981 L215.184321,25.8239346 Z" id="Fill-37" sketch:type="MSShapeGroup"></path>
            <path d="M221.553663,25.8239346 L217.890164,13.2892352 L217.815035,13.2892352 C217.877733,14.6080514 217.909082,15.4431215 217.909082,15.7944455 L217.909082,25.8239346 L217.023745,25.8239346 L217.023745,12.0558178 L218.389044,12.0558178 L221.477993,22.5847274 C221.754188,23.5138442 221.933633,24.3045935 222.014708,24.9575156 L222.090378,24.9575156 C222.153075,24.4926869 222.347655,23.7084237 222.674116,22.6031044 L225.734959,12.0558178 L227.147281,12.0558178 L227.147281,25.8239346 L226.22465,25.8239346 L226.22465,15.8695748 C226.22465,15.4804159 226.255999,14.6269688 226.318697,13.3081526 L226.243568,13.3081526 L222.598987,25.8239346 L221.553663,25.8239346 Z" id="Fill-38" sketch:type="MSShapeGroup"></path>
            <path d="M233.862109,19.9003419 L232.647069,14.7677687 C232.521673,14.1905164 232.424383,13.6440724 232.3552,13.1295179 C232.298988,13.6754213 232.210887,14.2218653 232.091977,14.7677687 L230.914231,19.9003419 L233.862109,19.9003419 Z M235.29389,25.8242048 L234.078849,20.8327017 L230.735866,20.8327017 L229.539743,25.8242048 L228.579278,25.8242048 L231.894155,12.056088 L232.844891,12.056088 L236.235438,25.8242048 L235.29389,25.8242048 Z" id="Fill-39" sketch:type="MSShapeGroup"></path>
            <path d="M247.225447,18.8644766 C247.225447,16.9246277 246.939523,15.445824 246.368216,14.4291464 C245.79691,13.4119283 244.952651,12.9033193 243.835441,12.9033193 L242.290696,12.9033193 L242.290696,24.976433 L243.759771,24.976433 C244.952651,24.976433 245.828258,24.4553925 246.387134,23.412771 C246.946009,22.3712305 247.225447,20.8545919 247.225447,18.8644766 M248.195101,18.8077243 C248.195101,23.4851978 246.735755,25.8239346 243.815983,25.8239346 L241.368065,25.8239346 L241.368065,12.0558178 L243.872735,12.0558178 C245.291543,12.0558178 246.366595,12.6287461 247.09843,13.7746028 C247.829724,14.9204595 248.195101,16.5981667 248.195101,18.8077243" id="Fill-40" sketch:type="MSShapeGroup"></path>
            <path d="M255.229526,25.8239346 L250.238564,25.8239346 L250.238564,12.0558178 L255.229526,12.0558178 L255.229526,12.9411542 L251.161194,12.9411542 L251.161194,18.1677741 L255.003598,18.1677741 L255.003598,19.0525701 L251.161194,19.0525701 L251.161194,24.9385981 L255.229526,24.9385981 L255.229526,25.8239346 Z" id="Fill-41" sketch:type="MSShapeGroup"></path>
            <path d="M261.285055,12.0558178 L262.207685,12.0558178 L262.207685,25.8239346 L261.285055,25.8239346 L261.285055,12.0558178 Z" id="Fill-42" sketch:type="MSShapeGroup"></path>
            <path d="M271.936441,25.8239346 L270.759236,25.8239346 L265.551533,13.4778692 L265.476404,13.4778692 C265.551533,14.3318567 265.589368,15.1539548 265.589368,15.9452445 L265.589368,25.8239346 L264.685114,25.8239346 L264.685114,12.0558178 L265.881237,12.0558178 L271.051105,24.2608131 L271.107857,24.2608131 C271.057591,23.2311636 271.032187,22.3712305 271.032187,21.679933 L271.032187,12.0558178 L271.936441,12.0558178 L271.936441,25.8239346 Z" id="Fill-43" sketch:type="MSShapeGroup"></path>
            <path d="M275.354229,25.8239346 L274.431598,25.8239346 L274.431598,12.0558178 L279.441478,12.0558178 L279.441478,12.9411542 L275.354229,12.9411542 L275.354229,18.7796184 L279.21555,18.7796184 L279.21555,19.6741433 L275.354229,19.6741433 L275.354229,25.8239346 Z" id="Fill-44" sketch:type="MSShapeGroup"></path>
            <path d="M281.660711,18.9210128 C281.660711,20.9678804 281.916367,22.5137059 282.428219,23.5590299 C282.940071,24.6043539 283.685418,25.1270159 284.664801,25.1270159 C285.65067,25.1270159 286.399261,24.6092184 286.910572,23.5730829 C287.422424,22.5374879 287.67808,20.9867978 287.67808,18.9210128 C287.67808,16.8806312 287.427289,15.3407511 286.925166,14.3019131 C286.422502,13.2625346 285.678776,12.7431156 284.692907,12.7431156 C283.682175,12.7431156 282.924396,13.2690206 282.41903,14.3208305 C281.913664,15.3726405 281.660711,16.9054941 281.660711,18.9210128 M288.639086,18.9210128 C288.639086,21.1997542 288.298572,22.9515097 287.617544,24.1757386 C286.935976,25.3999676 285.951728,26.0123523 284.664801,26.0123523 C283.365443,26.0123523 282.379574,25.3956436 281.707734,24.1616857 C281.035895,22.9282682 280.700245,21.1748913 280.700245,18.9020953 C280.700245,16.5293072 281.032652,14.7618773 281.698546,13.6003461 C282.363899,12.438815 283.3622,11.8583196 284.692907,11.8583196 C285.973888,11.8583196 286.95165,12.4685424 287.626733,13.6895283 C288.301275,14.9110548 288.639086,16.6547028 288.639086,18.9210128" id="Fill-45" sketch:type="MSShapeGroup"></path>
            <path d="M291.662688,18.9587396 L292.952858,18.9587396 C293.787928,18.9587396 294.431121,18.7014623 294.883519,18.1863673 C295.335375,17.6718128 295.561304,16.905386 295.561304,15.8887084 C295.561304,14.8525729 295.330511,14.105604 294.869466,13.6472614 C294.40788,13.1889187 293.68145,12.9597474 292.689095,12.9597474 L291.662688,12.9597474 L291.662688,18.9587396 Z M291.662688,19.8062411 L291.662688,25.8241508 L290.740058,25.8241508 L290.740058,12.056034 L292.623154,12.056034 C293.966833,12.056034 294.94946,12.372766 295.571033,13.0067707 C296.192606,13.6413159 296.503393,14.5888097 296.503393,15.8508735 C296.503393,16.8053938 296.333676,17.5901975 295.994783,18.2052847 C295.655891,18.8209125 295.087287,19.2819576 294.290051,19.5895012 L297.02119,25.8241508 L295.985055,25.8241508 L293.414444,19.8062411 L291.662688,19.8062411 Z" id="Fill-46" sketch:type="MSShapeGroup"></path>
            <path d="M303.158009,25.8239346 L299.494511,13.2892352 L299.419382,13.2892352 C299.482079,14.6080514 299.513428,15.4431215 299.513428,15.7944455 L299.513428,25.8239346 L298.628092,25.8239346 L298.628092,12.0558178 L299.993391,12.0558178 L303.08234,22.5847274 C303.358534,23.5138442 303.53798,24.3045935 303.619055,24.9575156 L303.694724,24.9575156 C303.757422,24.4926869 303.952002,23.7084237 304.278463,22.6031044 L307.339305,12.0558178 L308.751628,12.0558178 L308.751628,25.8239346 L307.828997,25.8239346 L307.828997,15.8695748 C307.828997,15.4804159 307.860346,14.6269688 307.923044,13.3081526 L307.847914,13.3081526 L304.203333,25.8239346 L303.158009,25.8239346 Z" id="Fill-47" sketch:type="MSShapeGroup"></path>
            <path d="M315.466294,19.9003419 L314.251253,14.7677687 C314.125858,14.1905164 314.028568,13.6440724 313.959384,13.1295179 C313.903172,13.6754213 313.815071,14.2218653 313.696162,14.7677687 L312.518415,19.9003419 L315.466294,19.9003419 Z M316.898074,25.8242048 L315.683034,20.8327017 L312.340051,20.8327017 L311.143928,25.8242048 L310.183462,25.8242048 L313.498339,12.056088 L314.449076,12.056088 L317.839623,25.8242048 L316.898074,25.8242048 Z" id="Fill-48" sketch:type="MSShapeGroup"></path>
            <path d="M322.770806,12.7243603 C321.735211,12.7243603 320.910951,13.2724257 320.299107,14.3674755 C319.686722,15.4636064 319.3808,16.981326 319.3808,18.9211749 C319.3808,20.1826983 319.52187,21.2815316 319.804551,22.2171344 C320.086691,23.1527372 320.492065,23.8716002 321.019051,24.3737232 C321.546577,24.8758463 322.158962,25.127178 322.855664,25.127178 C323.571284,25.127178 324.186371,24.9985394 324.701467,24.7407217 L324.701467,25.5882232 C324.211775,25.8709039 323.568041,26.011974 322.770806,26.011974 C321.897901,26.011974 321.133636,25.7298338 320.477471,25.1644724 C319.821306,24.5996516 319.314859,23.7818774 318.957049,22.7116905 C318.599239,21.6409631 318.419794,20.3713322 318.419794,18.9022575 C318.419794,16.7051313 318.810574,14.9782388 319.592675,13.7226609 C320.374236,12.467083 321.439558,11.8390238 322.789724,11.8390238 C323.630739,11.8390238 324.365817,12.0341438 324.993336,12.4233026 L324.569585,13.2329693 C324.042058,12.8940768 323.442646,12.7243603 322.770806,12.7243603" id="Fill-49" sketch:type="MSShapeGroup"></path>
            <path d="M326.642667,12.0558178 L327.565298,12.0558178 L327.565298,25.8239346 L326.642667,25.8239346 L326.642667,12.0558178 Z" id="Fill-50" sketch:type="MSShapeGroup"></path>
            <path d="M332.955472,10.9540117 L332.955472,10.7561893 C333.752707,9.71410826 334.352661,8.75039953 334.754251,7.86506308 L335.931457,7.86506308 L335.931457,8.02505062 C335.686611,8.46447586 335.314748,8.9698419 334.815327,9.54168925 C334.316447,10.1129961 333.844052,10.5837702 333.39814,10.9540117 L332.955472,10.9540117 Z M330.638896,18.9209587 C330.638896,20.9678263 330.894552,22.5136519 331.406404,23.5589759 C331.918256,24.6042998 332.663603,25.1269618 333.642986,25.1269618 C334.628855,25.1269618 335.377446,24.6091643 335.888757,23.5730288 C336.400609,22.5374338 336.656265,20.9867438 336.656265,18.9209587 C336.656265,16.8805771 336.405474,15.340697 335.903351,14.301859 C335.400687,13.2624805 334.656961,12.7430615 333.671092,12.7430615 C332.66036,12.7430615 331.902041,13.2689665 331.396675,14.3207765 C330.891309,15.3725864 330.638896,16.90544 330.638896,18.9209587 L330.638896,18.9209587 Z M337.617271,18.9209587 C337.617271,21.1997002 337.276217,22.9519961 336.595189,24.1756846 C335.914161,25.3999136 334.929913,26.0122983 333.642986,26.0122983 C332.343628,26.0122983 331.357759,25.3955896 330.685919,24.1616316 C330.01408,22.9282142 329.67843,21.1748372 329.67843,18.9020413 C329.67843,16.5292531 330.010837,14.7618232 330.676731,13.6002921 C331.342084,12.4387609 332.340385,11.8582656 333.671092,11.8582656 C334.952074,11.8582656 335.929835,12.4684883 336.604918,13.6894743 C337.27946,14.9110008 337.617271,16.6546488 337.617271,18.9209587 L337.617271,18.9209587 Z" id="Fill-51" sketch:type="MSShapeGroup"></path>
            <path d="M346.968975,25.8239346 L345.79177,25.8239346 L340.584067,13.4778692 L340.508938,13.4778692 C340.584067,14.3318567 340.621902,15.1539548 340.621902,15.9452445 L340.621902,25.8239346 L339.717648,25.8239346 L339.717648,12.0558178 L340.913771,12.0558178 L346.083639,24.2608131 L346.140391,24.2608131 C346.090125,23.2311636 346.064721,22.3712305 346.064721,21.679933 L346.064721,12.0558178 L346.968975,12.0558178 L346.968975,25.8239346 Z" id="Fill-52" sketch:type="MSShapeGroup"></path>
            <path d="M190.698444,41.5038484 C190.698444,42.6340307 190.384415,43.548554 189.756896,44.24904 C189.128837,44.9489855 188.331602,45.298688 187.36465,45.298688 C186.265817,45.298688 185.383723,45.1387005 184.718369,44.8187254 L184.718369,43.8204248 C185.044831,44.0025727 185.449664,44.1468858 185.93341,44.253364 C186.416616,44.3603827 186.893876,44.4138921 187.36465,44.4138921 C188.067838,44.4138921 188.645631,44.1468858 189.097488,43.6134139 C189.549345,43.0794014 189.775813,42.4016164 189.775813,41.5789777 C189.775813,40.8195774 189.615285,40.2169217 189.29531,39.7710104 C188.975335,39.3250992 188.36295,38.8797285 187.458697,38.4338173 C186.749563,38.0760073 186.218793,37.7290073 185.867469,37.3933578 C185.515605,37.0571678 185.255084,36.6663874 185.085368,36.2204762 C184.916192,35.7751055 184.831334,35.241093 184.831334,34.6195198 C184.831334,33.9417347 184.969701,33.339079 185.245896,32.8115525 C185.522091,32.284026 185.908007,31.8743282 186.404184,31.582459 C186.899821,31.2905899 187.443022,31.1446553 188.033246,31.1446553 C188.566718,31.1446553 189.052086,31.2046506 189.488268,31.3235603 C189.92445,31.4430104 190.268207,31.5716491 190.519539,31.7100167 L190.161729,32.5948126 C189.465027,32.2370026 188.755352,32.0580977 188.033246,32.0580977 C187.355461,32.0580977 186.804693,32.2888905 186.380943,32.7504762 C185.956651,33.2120618 185.744776,33.8222846 185.744776,34.5816849 C185.744776,35.3540572 185.898818,35.9540104 186.206362,36.3810042 C186.513905,36.8074575 187.116561,37.2501257 188.014329,37.7084684 C188.943446,38.1608656 189.623393,38.6894731 190.05363,39.2953718 C190.483326,39.9012706 190.698444,40.6374294 190.698444,41.5038484" id="Fill-53" sketch:type="MSShapeGroup"></path>
            <path d="M193.164685,38.2076727 C193.164685,40.2545403 193.42034,41.8003659 193.932192,42.8456899 C194.444044,43.8910139 195.189392,44.4136759 196.168775,44.4136759 C197.154644,44.4136759 197.903234,43.8958783 198.414546,42.8597428 C198.926398,41.8241478 199.182054,40.2734578 199.182054,38.2076727 C199.182054,36.1672911 198.931262,34.6274111 198.429139,33.5885731 C197.926476,32.5491945 197.18275,32.0297755 196.196881,32.0297755 C195.186149,32.0297755 194.42837,32.5556805 193.923004,33.6074905 C193.417097,34.65876 193.164685,36.192154 193.164685,38.2076727 M200.14306,38.2076727 C200.14306,40.4864142 199.802005,42.2381696 199.121518,43.4623986 C198.439949,44.6866276 197.455702,45.2990123 196.168775,45.2990123 C194.869417,45.2990123 193.883548,44.6823036 193.211708,43.4483456 C192.539868,42.2149282 192.204219,40.4615512 192.204219,38.1887553 C192.204219,35.8159671 192.536625,34.0485372 193.202519,32.8870061 C193.867873,31.7254749 194.866174,31.1449796 196.196881,31.1449796 C197.477862,31.1449796 198.455624,31.7552023 199.130706,32.9761883 C199.805248,34.1977148 200.14306,35.9413628 200.14306,38.2076727" id="Fill-54" sketch:type="MSShapeGroup"></path>
            <path d="M203.1665,38.320691 L203.1665,44.2629308 L205.285254,44.2629308 C206.804595,44.2629308 207.564536,43.2332813 207.564536,41.1739822 C207.564536,40.2578374 207.34131,39.5530274 206.895939,39.0600928 C206.450028,38.5671583 205.825212,38.320691 205.022031,38.320691 L203.1665,38.320691 Z M203.1665,37.4731894 L204.899338,37.4731894 C205.759271,37.4731894 206.373277,37.2364511 206.740276,36.7618935 C207.107815,36.2884168 207.291044,35.5679324 207.291044,34.6009807 C207.291044,33.8226629 207.088897,33.2259526 206.684064,32.8113903 C206.27869,32.396828 205.677656,32.1898171 204.880421,32.1898171 L203.1665,32.1898171 L203.1665,37.4731894 Z M202.243869,31.3423156 L204.880421,31.3423156 C205.960337,31.3423156 206.790542,31.6185103 207.371038,32.1708997 C207.952073,32.7238296 208.242321,33.5399822 208.242321,34.6198981 C208.242321,36.4840773 207.561293,37.5515617 206.198696,37.8218109 L206.198696,37.8969402 C206.9835,38.0601707 207.567238,38.4104137 207.950452,38.9471287 C208.333665,39.4838436 208.525002,40.232434 208.525002,41.1928997 C208.525002,42.4236146 208.25205,43.3840804 207.705606,44.0748374 C207.159703,44.7655944 206.393276,45.1104324 205.407947,45.1104324 L202.243869,45.1104324 L202.243869,31.3423156 Z" id="Fill-55" sketch:type="MSShapeGroup"></path>
            <path d="M211.387968,38.2454536 L212.678138,38.2454536 C213.513208,38.2454536 214.156401,37.9881763 214.608798,37.4730813 C215.060655,36.9585268 215.286583,36.1921 215.286583,35.1754224 C215.286583,34.1392869 215.05579,33.3923181 214.594745,32.9339754 C214.13316,32.4756327 213.40673,32.2464614 212.414374,32.2464614 L211.387968,32.2464614 L211.387968,38.2454536 Z M211.387968,39.0929551 L211.387968,45.1108648 L210.465337,45.1108648 L210.465337,31.342748 L212.348434,31.342748 C213.692113,31.342748 214.674739,31.6594801 215.296312,32.2934847 C215.917885,32.9280299 216.228672,33.8755237 216.228672,35.1375875 C216.228672,36.0921078 216.058955,36.8769115 215.720063,37.4919988 C215.38117,38.1076265 214.812566,38.5686717 214.015331,38.8762153 L216.746469,45.1108648 L215.710334,45.1108648 L213.139723,39.0929551 L211.387968,39.0929551 Z" id="Fill-56" sketch:type="MSShapeGroup"></path>
            <path d="M223.344604,45.1105945 L218.353642,45.1105945 L218.353642,31.3424777 L223.344604,31.3424777 L223.344604,32.2278142 L219.276272,32.2278142 L219.276272,37.4544341 L223.118676,37.4544341 L223.118676,38.3392301 L219.276272,38.3392301 L219.276272,44.2252581 L223.344604,44.2252581 L223.344604,45.1105945 Z" id="Fill-57" sketch:type="MSShapeGroup"></path>
            <path d="M230.322763,38.320691 L230.322763,44.2629308 L232.441517,44.2629308 C233.960858,44.2629308 234.720799,43.2332813 234.720799,41.1739822 C234.720799,40.2578374 234.497573,39.5530274 234.052203,39.0600928 C233.606291,38.5671583 232.981475,38.320691 232.178295,38.320691 L230.322763,38.320691 Z M230.322763,37.4731894 L232.055601,37.4731894 C232.915534,37.4731894 233.529541,37.2364511 233.896539,36.7618935 C234.264078,36.2884168 234.447307,35.5679324 234.447307,34.6009807 C234.447307,33.8226629 234.245161,33.2259526 233.840327,32.8113903 C233.434953,32.396828 232.833919,32.1898171 232.036684,32.1898171 L230.322763,32.1898171 L230.322763,37.4731894 Z M229.400133,31.3423156 L232.036684,31.3423156 C233.1166,31.3423156 233.946805,31.6185103 234.527301,32.1708997 C235.108337,32.7238296 235.398584,33.5399822 235.398584,34.6198981 C235.398584,36.4840773 234.717556,37.5515617 233.35496,37.8218109 L233.35496,37.8969402 C234.139763,38.0601707 234.723502,38.4104137 235.106715,38.9471287 C235.489929,39.4838436 235.681265,40.232434 235.681265,41.1928997 C235.681265,42.4236146 235.408313,43.3840804 234.861869,44.0748374 C234.315966,44.7655944 233.549539,45.1104324 232.56421,45.1104324 L229.400133,45.1104324 L229.400133,31.3423156 Z" id="Fill-58" sketch:type="MSShapeGroup"></path>
            <path d="M237.611763,31.3424237 L238.534394,31.3424237 L238.534394,45.1105405 L237.611763,45.1105405 L237.611763,31.3424237 Z" id="Fill-59" sketch:type="MSShapeGroup"></path>
            <path d="M241.607398,38.2076727 C241.607398,40.2545403 241.863054,41.8003659 242.374906,42.8456899 C242.886758,43.8910139 243.632105,44.4136759 244.611488,44.4136759 C245.597357,44.4136759 246.345948,43.8958783 246.857259,42.8597428 C247.369111,41.8241478 247.624767,40.2734578 247.624767,38.2076727 C247.624767,36.1672911 247.373976,34.6274111 246.871853,33.5885731 C246.369189,32.5491945 245.625463,32.0297755 244.639594,32.0297755 C243.628862,32.0297755 242.870543,32.5556805 242.365177,33.6074905 C241.859811,34.65876 241.607398,36.192154 241.607398,38.2076727 M248.585773,38.2076727 C248.585773,40.4864142 248.244719,42.2381696 247.564231,43.4623986 C246.882663,44.6866276 245.898415,45.2990123 244.611488,45.2990123 C243.31213,45.2990123 242.326261,44.6823036 241.654421,43.4483456 C240.982582,42.2149282 240.646932,40.4615512 240.646932,38.1887553 C240.646932,35.8159671 240.979339,34.0485372 241.645233,32.8870061 C242.310586,31.7254749 243.308887,31.1449796 244.639594,31.1449796 C245.920576,31.1449796 246.898337,31.7552023 247.57342,32.9761883 C248.247962,34.1977148 248.585773,35.9413628 248.585773,38.2076727" id="Fill-60" sketch:type="MSShapeGroup"></path>
            <path d="M256.544181,38.1511907 C256.544181,36.2113417 256.258257,34.732538 255.68695,33.7158604 C255.115643,32.6986424 254.271385,32.1900333 253.154174,32.1900333 L251.60943,32.1900333 L251.60943,44.263147 L253.078505,44.263147 C254.271385,44.263147 255.146992,43.7421065 255.705867,42.699485 C256.264743,41.6579445 256.544181,40.1413059 256.544181,38.1511907 M257.513835,38.0944383 C257.513835,42.7719118 256.054489,45.1106486 253.135257,45.1106486 L250.686799,45.1106486 L250.686799,31.3425318 L253.191469,31.3425318 C254.610277,31.3425318 255.685329,31.9154601 256.417163,33.0613168 C257.148458,34.2071735 257.513835,35.8848807 257.513835,38.0944383" id="Fill-61" sketch:type="MSShapeGroup"></path>
            <path d="M259.578701,31.3424237 L260.501332,31.3424237 L260.501332,45.1105405 L259.578701,45.1105405 L259.578701,31.3424237 Z" id="Fill-62" sketch:type="MSShapeGroup"></path>
            <path d="M268.494709,31.3425318 L269.445986,31.3425318 L266.187321,45.1106486 L265.160915,45.1106486 L261.921167,31.3425318 L262.881633,31.3425318 L265.12308,41.0233994 C265.298742,41.7644227 265.414949,42.3087047 265.471701,42.6573262 C265.527913,43.0059477 265.584666,43.4437514 265.640877,43.9712779 C265.691144,43.6069819 265.744653,43.249172 265.801405,42.8973075 C265.857617,42.5459835 265.912748,42.2492498 265.966257,42.007647 C266.019226,41.7660442 266.862404,38.2106455 268.494709,31.3425318" id="Fill-63" sketch:type="MSShapeGroup"></path>
            <path d="M275.868405,45.1105945 L270.877443,45.1105945 L270.877443,31.3424777 L275.868405,31.3424777 L275.868405,32.2278142 L271.800073,32.2278142 L271.800073,37.4544341 L275.642477,37.4544341 L275.642477,38.3392301 L271.800073,38.3392301 L271.800073,44.2252581 L275.868405,44.2252581 L275.868405,45.1105945 Z" id="Fill-64" sketch:type="MSShapeGroup"></path>
            <path d="M278.630947,38.2454536 L279.921117,38.2454536 C280.756187,38.2454536 281.39938,37.9881763 281.851777,37.4730813 C282.303634,36.9585268 282.529562,36.1921 282.529562,35.1754224 C282.529562,34.1392869 282.298769,33.3923181 281.837724,32.9339754 C281.376138,32.4756327 280.649708,32.2464614 279.657353,32.2464614 L278.630947,32.2464614 L278.630947,38.2454536 Z M278.630947,39.0929551 L278.630947,45.1108648 L277.708316,45.1108648 L277.708316,31.342748 L279.591412,31.342748 C280.935092,31.342748 281.917718,31.6594801 282.539291,32.2934847 C283.160864,32.9280299 283.471651,33.8755237 283.471651,35.1375875 C283.471651,36.0921078 283.301934,36.8769115 282.963042,37.4919988 C282.624149,38.1076265 282.055545,38.5686717 281.25831,38.8762153 L283.989448,45.1108648 L282.953313,45.1108648 L280.382702,39.0929551 L278.630947,39.0929551 Z" id="Fill-65" sketch:type="MSShapeGroup"></path>
            <path d="M291.273097,41.5038484 C291.273097,42.6340307 290.959068,43.548554 290.331549,44.24904 C289.70349,44.9489855 288.906255,45.298688 287.939303,45.298688 C286.840469,45.298688 285.958376,45.1387005 285.293022,44.8187254 L285.293022,43.8204248 C285.619483,44.0025727 286.024317,44.1468858 286.508063,44.253364 C286.991269,44.3603827 287.468529,44.4138921 287.939303,44.4138921 C288.642491,44.4138921 289.220284,44.1468858 289.672141,43.6134139 C290.124538,43.0794014 290.350466,42.4016164 290.350466,41.5789777 C290.350466,40.8195774 290.189938,40.2169217 289.869963,39.7710104 C289.549988,39.3250992 288.937603,38.8797285 288.03335,38.4338173 C287.323675,38.0760073 286.793446,37.7290073 286.442122,37.3933578 C286.090258,37.0571678 285.829737,36.6663874 285.660021,36.2204762 C285.490845,35.7751055 285.405987,35.241093 285.405987,34.6195198 C285.405987,33.9417347 285.544354,33.339079 285.820549,32.8115525 C286.096744,32.284026 286.48266,31.8743282 286.978837,31.582459 C287.474474,31.2905899 288.017675,31.1446553 288.607899,31.1446553 C289.141371,31.1446553 289.626739,31.2046506 290.062921,31.3235603 C290.499103,31.4430104 290.84286,31.5716491 291.094192,31.7100167 L290.736382,32.5948126 C290.03968,32.2370026 289.330005,32.0580977 288.607899,32.0580977 C287.930114,32.0580977 287.379346,32.2888905 286.955055,32.7504762 C286.531304,33.2120618 286.319429,33.8222846 286.319429,34.5816849 C286.319429,35.3540572 286.473471,35.9540104 286.781015,36.3810042 C287.088558,36.8074575 287.691214,37.2501257 288.588982,37.7084684 C289.518099,38.1608656 290.198046,38.6894731 290.628283,39.2953718 C291.057979,39.9012706 291.273097,40.6374294 291.273097,41.5038484" id="Fill-66" sketch:type="MSShapeGroup"></path>
            <path d="M293.078254,31.3424237 L294.000885,31.3424237 L294.000885,45.1105405 L293.078254,45.1105405 L293.078254,31.3424237 Z" id="Fill-67" sketch:type="MSShapeGroup"></path>
            <path d="M302.336019,38.1511907 C302.336019,36.2113417 302.050096,34.732538 301.478789,33.7158604 C300.907482,32.6986424 300.063223,32.1900333 298.946013,32.1900333 L297.401269,32.1900333 L297.401269,44.263147 L298.870343,44.263147 C300.063223,44.263147 300.938831,43.7421065 301.497706,42.699485 C302.056582,41.6579445 302.336019,40.1413059 302.336019,38.1511907 M303.305674,38.0944383 C303.305674,42.7719118 301.846328,45.1106486 298.927096,45.1106486 L296.478638,45.1106486 L296.478638,31.3425318 L298.983307,31.3425318 C300.402116,31.3425318 301.477167,31.9154601 302.209002,33.0613168 C302.940297,34.2071735 303.305674,35.8848807 303.305674,38.0944383" id="Fill-68" sketch:type="MSShapeGroup"></path>
            <path d="M309.192837,39.1870019 L307.977796,34.0544287 C307.8524,33.4771763 307.755111,32.9307324 307.685927,32.4161779 C307.629715,32.9620813 307.541614,33.5085252 307.422704,34.0544287 L306.244958,39.1870019 L309.192837,39.1870019 Z M310.624617,45.1108648 L309.409576,40.1193617 L306.066594,40.1193617 L304.870471,45.1108648 L303.910005,45.1108648 L307.224882,31.342748 L308.175619,31.342748 L311.566165,45.1108648 L310.624617,45.1108648 Z" id="Fill-69" sketch:type="MSShapeGroup"></path>
            <path d="M318.847652,38.1511907 C318.847652,36.2113417 318.561729,34.732538 317.990422,33.7158604 C317.419115,32.6986424 316.574856,32.1900333 315.457646,32.1900333 L313.912901,32.1900333 L313.912901,44.263147 L315.381976,44.263147 C316.574856,44.263147 317.450464,43.7421065 318.009339,42.699485 C318.568214,41.6579445 318.847652,40.1413059 318.847652,38.1511907 M319.817306,38.0944383 C319.817306,42.7719118 318.357961,45.1106486 315.438729,45.1106486 L312.990271,45.1106486 L312.990271,31.3425318 L315.49494,31.3425318 C316.913749,31.3425318 317.9888,31.9154601 318.720635,33.0613168 C319.451929,34.2071735 319.817306,35.8848807 319.817306,38.0944383" id="Fill-70" sketch:type="MSShapeGroup"></path>
            <path d="M191.272994,57.4378506 C191.272994,55.4980017 190.98707,54.019198 190.415764,53.0025204 C189.844457,51.9853023 189.000198,51.4766933 187.882988,51.4766933 L186.338243,51.4766933 L186.338243,63.549807 L187.807318,63.549807 C189.000198,63.549807 189.875806,63.0287665 190.434681,61.986145 C190.993556,60.9446045 191.272994,59.4279659 191.272994,57.4378506 M192.242648,57.3810983 C192.242648,62.0585718 190.783302,64.3973086 187.86407,64.3973086 L185.415612,64.3973086 L185.415612,50.6291917 L187.920282,50.6291917 C189.339091,50.6291917 190.414142,51.2021201 191.145977,52.3479768 C191.877271,53.4938335 192.242648,55.1715407 192.242648,57.3810983" id="Fill-71" sketch:type="MSShapeGroup"></path>
            <path d="M199.27729,64.3972545 L194.286327,64.3972545 L194.286327,50.6291377 L199.27729,50.6291377 L199.27729,51.5144741 L195.208958,51.5144741 L195.208958,56.7410941 L199.051361,56.7410941 L199.051361,57.62589 L195.208958,57.62589 L195.208958,63.5119181 L199.27729,63.5119181 L199.27729,64.3972545 Z" id="Fill-72" sketch:type="MSShapeGroup"></path>
            <path d="M209.221866,51.2977343 C208.186271,51.2977343 207.362011,51.8457997 206.750167,52.9408495 C206.137782,54.0369804 205.83186,55.5547 205.83186,57.4945489 C205.83186,58.7560723 205.97293,59.8549056 206.255611,60.7905084 C206.537751,61.7261112 206.943125,62.4449741 207.470111,62.9470972 C207.997637,63.4492202 208.610022,63.700552 209.306725,63.700552 C210.022345,63.700552 210.637432,63.5719134 211.152527,63.3140956 L211.152527,64.1615972 C210.662835,64.4442779 210.019102,64.585348 209.221866,64.585348 C208.348961,64.585348 207.584697,64.3032078 206.928531,63.7378464 C206.272366,63.1730255 205.765919,62.3552514 205.408109,61.2850645 C205.050299,60.2143371 204.870854,58.9447062 204.870854,57.4756315 C204.870854,55.2785053 205.261634,53.5516128 206.043736,52.2960349 C206.825296,51.040457 207.890619,50.4123978 209.240784,50.4123978 C210.08234,50.4123978 210.816877,50.6075178 211.444396,50.9966766 L211.020645,51.8063433 C210.493119,51.4674508 209.893706,51.2977343 209.221866,51.2977343" id="Fill-73" sketch:type="MSShapeGroup"></path>
            <path d="M213.062756,57.4943327 C213.062756,59.5412003 213.318412,61.0870259 213.830264,62.1323498 C214.342116,63.1776738 215.087464,63.7003358 216.066847,63.7003358 C217.052716,63.7003358 217.801306,63.1825383 218.312618,62.1464028 C218.82447,61.1108078 219.080126,59.5601178 219.080126,57.4943327 C219.080126,55.4539511 218.829334,53.914071 218.327211,52.875233 C217.824548,51.8358545 217.080822,51.3164355 216.094953,51.3164355 C215.084221,51.3164355 214.326442,51.8423405 213.821076,52.8941505 C213.31571,53.9459604 213.062756,55.478814 213.062756,57.4943327 M220.041132,57.4943327 C220.041132,59.7730741 219.700077,61.5248296 219.01959,62.7490586 C218.338021,63.9732875 217.353774,64.5856723 216.066847,64.5856723 C214.767488,64.5856723 213.781619,63.9689636 213.10978,62.7350056 C212.43794,61.5015882 212.102291,59.7482112 212.102291,57.4754153 C212.102291,55.1026271 212.434697,53.3351972 213.100591,52.173666 C213.765945,51.0121349 214.764245,50.4316396 216.094953,50.4316396 C217.375934,50.4316396 218.353696,51.0418623 219.028778,52.2628483 C219.70332,53.4843748 220.041132,55.2280227 220.041132,57.4943327" id="Fill-74" sketch:type="MSShapeGroup"></path>
            <path d="M222.141725,64.3972545 L222.141725,50.6291377 L223.064356,50.6291377 L223.064356,63.5119181 L226.944594,63.5119181 L226.944594,64.3972545 L222.141725,64.3972545 Z" id="Fill-75" sketch:type="MSShapeGroup"></path>
            <path d="M228.582467,57.4943327 C228.582467,59.5412003 228.838122,61.0870259 229.349974,62.1323498 C229.861826,63.1776738 230.607174,63.7003358 231.586557,63.7003358 C232.572426,63.7003358 233.321016,63.1825383 233.832328,62.1464028 C234.34418,61.1108078 234.599836,59.5601178 234.599836,57.4943327 C234.599836,55.4539511 234.349044,53.914071 233.846921,52.875233 C233.344258,51.8358545 232.600532,51.3164355 231.614663,51.3164355 C230.603931,51.3164355 229.846152,51.8423405 229.340786,52.8941505 C228.834879,53.9459604 228.582467,55.478814 228.582467,57.4943327 M235.560842,57.4943327 C235.560842,59.7730741 235.219787,61.5248296 234.5393,62.7490586 C233.857731,63.9732875 232.873484,64.5856723 231.586557,64.5856723 C230.287199,64.5856723 229.301329,63.9689636 228.62949,62.7350056 C227.95765,61.5015882 227.622001,59.7482112 227.622001,57.4754153 C227.622001,55.1026271 227.954407,53.3351972 228.620301,52.173666 C229.285655,51.0121349 230.283956,50.4316396 231.614663,50.4316396 C232.895644,50.4316396 233.873406,51.0418623 234.548488,52.2628483 C235.22303,53.4843748 235.560842,55.2280227 235.560842,57.4943327" id="Fill-76" sketch:type="MSShapeGroup"></path>
            <path d="M242.191461,64.3972545 L238.527962,51.8625551 L238.452833,51.8625551 C238.515531,53.1813713 238.54688,54.0164414 238.54688,54.3677654 L238.54688,64.3972545 L237.661543,64.3972545 L237.661543,50.6291377 L239.026842,50.6291377 L242.115791,61.1580474 C242.391986,62.0871642 242.571431,62.8779134 242.652506,63.5308355 L242.728176,63.5308355 C242.790873,63.0660069 242.985453,62.2817436 243.311914,61.1764243 L246.372757,50.6291377 L247.785079,50.6291377 L247.785079,64.3972545 L246.862448,64.3972545 L246.862448,54.4428947 C246.862448,54.0537358 246.893797,53.2002888 246.956495,51.8814726 L246.881366,51.8814726 L243.236785,64.3972545 L242.191461,64.3972545 Z" id="Fill-77" sketch:type="MSShapeGroup"></path>
            <path d="M251.202813,57.6073509 L251.202813,63.5495908 L253.321567,63.5495908 C254.840908,63.5495908 255.600849,62.5204818 255.600849,60.4606422 C255.600849,59.5444974 255.377623,58.8396874 254.932252,58.3467528 C254.486341,57.8538182 253.861525,57.6073509 253.058344,57.6073509 L251.202813,57.6073509 Z M251.202813,56.7598494 L252.935651,56.7598494 C253.795584,56.7598494 254.40959,56.5231111 254.776588,56.0485534 C255.144127,55.5750768 255.327356,54.8545924 255.327356,53.8876407 C255.327356,53.1093229 255.12521,52.5126126 254.720377,52.0980503 C254.315003,51.683488 253.713969,51.4764771 252.916733,51.4764771 L251.202813,51.4764771 L251.202813,56.7598494 Z M250.280182,50.6289755 L252.916733,50.6289755 C253.996649,50.6289755 254.826855,50.9051702 255.40735,51.4575597 C255.988386,52.0104896 256.278634,52.8266422 256.278634,53.9065581 C256.278634,55.7707372 255.597606,56.8382217 254.235009,57.1084709 L254.235009,57.1836002 C255.019813,57.3468307 255.603551,57.6970737 255.986764,58.2337886 C256.369978,58.7705036 256.561314,59.5190939 256.561314,60.4795597 C256.561314,61.7102746 256.288363,62.6707403 255.741919,63.3614974 C255.196015,64.0522544 254.429588,64.3970924 253.44426,64.3970924 L250.280182,64.3970924 L250.280182,50.6289755 Z" id="Fill-78" sketch:type="MSShapeGroup"></path>
            <path d="M258.491759,50.6290296 L259.414389,50.6290296 L259.414389,64.3971464 L258.491759,64.3971464 L258.491759,50.6290296 Z" id="Fill-79" sketch:type="MSShapeGroup"></path>
            <path d="M266.117489,58.4736618 L264.902448,53.3410886 C264.777053,52.7638363 264.679763,52.2173924 264.610579,51.7028379 C264.554367,52.2487413 264.466266,52.7951852 264.347357,53.3410886 L263.16961,58.4736618 L266.117489,58.4736618 Z M267.549269,64.3975248 L266.334229,59.4060217 L262.991246,59.4060217 L261.795123,64.3975248 L260.834657,64.3975248 L264.149534,50.6294079 L265.100271,50.6294079 L268.490818,64.3975248 L267.549269,64.3975248 Z" id="Fill-80" sketch:type="MSShapeGroup"></path>
        </g>
    </g>
</svg>