<?xml version="1.0" encoding="UTF-8" standalone="no"?>
<svg width="16px" height="17px" viewBox="0 0 16 17" version="1.1" xmlns="http://www.w3.org/2000/svg" xmlns:xlink="http://www.w3.org/1999/xlink" xmlns:sketch="http://www.bohemiancoding.com/sketch/ns">
    <!-- Generator: Sketch 3.3.2 (12043) - http://www.bohemiancoding.com/sketch -->
    <title>Imported Layers</title>
    <desc>Created with Sketch.</desc>
    <defs></defs>
    <g id="Page-1" stroke="none" stroke-width="1" fill="none" fill-rule="evenodd" sketch:type="MSPage">
        <g id="Imported-Layers" sketch:type="MSLayerGroup">
            <path d="M15.446,2.919 L15.446,16.934 L2.443,16.934 C2.398,16.92 2.352,16.898 2.306,16.896 C1.685,16.867 1.188,16.592 0.844,16.086 C0.675,15.838 0.584,15.537 0.458,15.26 L0.458,2.608 C0.47,2.588 0.49,2.57 0.494,2.549 C0.587,2.077 0.811,1.691 1.187,1.382 C1.468,1.151 1.795,1.036 2.132,0.934 L13.46,0.934 L13.46,13.936 L13.2,13.936 C9.638,13.936 6.076,13.935 2.515,13.939 C2.371,13.94 2.223,13.971 2.087,14.016 C1.75,14.128 1.415,14.638 1.474,14.949 C1.585,15.532 1.925,15.882 2.566,15.882 C6.426,15.883 10.286,15.883 14.147,15.883 L14.396,15.883 L14.396,2.919 L15.446,2.919" id="Fill-1" fill="#F46E49" sketch:type="MSShapeGroup"></path>
            <path d="M11.134,11.071 L9.079,8.99 C9.662,8.363 10.022,7.525 10.022,6.603 C10.021,4.661 8.448,3.087 6.506,3.087 C4.564,3.087 2.991,4.661 2.99,6.603 C2.991,8.545 4.564,10.118 6.506,10.119 C7.117,10.119 7.692,9.958 8.194,9.683 L10.34,11.856 L11.134,11.071 L11.134,11.071 Z M4.81,8.299 C4.375,7.863 4.107,7.267 4.107,6.603 C4.107,5.938 4.375,5.342 4.81,4.906 C5.246,4.471 5.842,4.204 6.506,4.204 C7.17,4.204 7.766,4.471 8.203,4.906 C8.638,5.342 8.905,5.938 8.905,6.603 C8.905,7.39 8.528,8.086 7.942,8.525 C7.541,8.825 7.046,9.001 6.506,9.002 C5.842,9.001 5.246,8.734 4.81,8.299 L4.81,8.299 Z" id="Fill-2" fill="#FFFFFF" sketch:type="MSShapeGroup"></path>
        </g>
    </g>
</svg>