<?xml version="1.0" encoding="UTF-8" standalone="no"?>
<svg width="17px" height="14px" viewBox="0 0 17 14" version="1.1" xmlns="http://www.w3.org/2000/svg" xmlns:xlink="http://www.w3.org/1999/xlink" xmlns:sketch="http://www.bohemiancoding.com/sketch/ns">
    <!-- Generator: Sketch 3.3.2 (12043) - http://www.bohemiancoding.com/sketch -->
    <title>Imported Layers</title>
    <desc>Created with Sketch.</desc>
    <defs></defs>
    <g id="Page-1" stroke="none" stroke-width="1" fill="none" fill-rule="evenodd" sketch:type="MSPage">
        <g id="Imported-Layers" sketch:type="MSLayerGroup">
            <path d="M2.132,14 C1.032,14 0.582,13.245 1.132,12.293 L7.632,1.047 C8.182,0.094 9.082,0.1 9.632,1.053 L16.132,12.29 C16.682,13.242 16.232,14 15.132,14 L2.132,14" id="Fill-1" fill="#F46E49" sketch:type="MSShapeGroup"></path>
            <path d="M7.787,10.928 C7.787,10.645 7.863,10.43 8.016,10.285 C8.168,10.14 8.389,10.066 8.68,10.066 C8.961,10.066 9.178,10.142 9.332,10.29 C9.486,10.439 9.563,10.651 9.563,10.928 C9.563,11.195 9.485,11.405 9.329,11.559 C9.174,11.712 8.957,11.789 8.68,11.789 C8.396,11.789 8.176,11.714 8.021,11.564 C7.865,11.413 7.787,11.201 7.787,10.928 L7.787,10.928 Z M9.304,9.195 L8.066,9.195 L7.808,4.247 L9.563,4.247 L9.304,9.195 L9.304,9.195 Z" id="Fill-2" fill="#FFFFFF" sketch:type="MSShapeGroup"></path>
        </g>
    </g>
</svg>